%TF.GenerationSoftware,KiCad,Pcbnew,6.0.6-1.fc36*%
%TF.CreationDate,2022-08-03T23:42:08-05:00*%
%TF.ProjectId,ses-badge,7365732d-6261-4646-9765-2e6b69636164,rev?*%
%TF.SameCoordinates,Original*%
%TF.FileFunction,Copper,L2,Bot*%
%TF.FilePolarity,Positive*%
%FSLAX46Y46*%
G04 Gerber Fmt 4.6, Leading zero omitted, Abs format (unit mm)*
G04 Created by KiCad (PCBNEW 6.0.6-1.fc36) date 2022-08-03 23:42:08*
%MOMM*%
%LPD*%
G01*
G04 APERTURE LIST*
G04 Aperture macros list*
%AMRoundRect*
0 Rectangle with rounded corners*
0 $1 Rounding radius*
0 $2 $3 $4 $5 $6 $7 $8 $9 X,Y pos of 4 corners*
0 Add a 4 corners polygon primitive as box body*
4,1,4,$2,$3,$4,$5,$6,$7,$8,$9,$2,$3,0*
0 Add four circle primitives for the rounded corners*
1,1,$1+$1,$2,$3*
1,1,$1+$1,$4,$5*
1,1,$1+$1,$6,$7*
1,1,$1+$1,$8,$9*
0 Add four rect primitives between the rounded corners*
20,1,$1+$1,$2,$3,$4,$5,0*
20,1,$1+$1,$4,$5,$6,$7,0*
20,1,$1+$1,$6,$7,$8,$9,0*
20,1,$1+$1,$8,$9,$2,$3,0*%
G04 Aperture macros list end*
%TA.AperFunction,ComponentPad*%
%ADD10R,1.905000X1.800000*%
%TD*%
%TA.AperFunction,ComponentPad*%
%ADD11C,1.905000*%
%TD*%
%TA.AperFunction,ComponentPad*%
%ADD12C,1.500000*%
%TD*%
%TA.AperFunction,ComponentPad*%
%ADD13O,1.400000X1.500000*%
%TD*%
%TA.AperFunction,SMDPad,CuDef*%
%ADD14RoundRect,0.750000X-0.750000X-2.250000X0.750000X-2.250000X0.750000X2.250000X-0.750000X2.250000X0*%
%TD*%
%TA.AperFunction,SMDPad,CuDef*%
%ADD15RoundRect,1.250000X-1.250000X-1.250000X1.250000X-1.250000X1.250000X1.250000X-1.250000X1.250000X0*%
%TD*%
%TA.AperFunction,Conductor*%
%ADD16C,0.250000*%
%TD*%
%TA.AperFunction,Conductor*%
%ADD17C,0.381000*%
%TD*%
G04 APERTURE END LIST*
D10*
%TO.P,D2,1,K*%
%TO.N,GND*%
X147315000Y-79000000D03*
D11*
%TO.P,D2,2,A*%
%TO.N,Net-(D2-Pad2)*%
X149855000Y-79000000D03*
%TD*%
D12*
%TO.P,R1,1*%
%TO.N,VCC*%
X116586000Y-101600000D03*
D13*
%TO.P,R1,2*%
%TO.N,Net-(D1-Pad2)*%
X116586000Y-106680000D03*
%TD*%
D12*
%TO.P,R2,1*%
%TO.N,VCC*%
X150876000Y-101600000D03*
D13*
%TO.P,R2,2*%
%TO.N,Net-(D2-Pad2)*%
X150876000Y-106680000D03*
%TD*%
D10*
%TO.P,D1,1,K*%
%TO.N,GND*%
X120142000Y-79000000D03*
D11*
%TO.P,D1,2,A*%
%TO.N,Net-(D1-Pad2)*%
X117602000Y-79000000D03*
%TD*%
D14*
%TO.P,B1,1,+*%
%TO.N,VCC*%
X121850000Y-97028000D03*
%TO.P,B1,2,+*%
X144850000Y-97028000D03*
D15*
%TO.P,B1,3,-*%
%TO.N,GND*%
X133350000Y-94028000D03*
%TD*%
D16*
%TO.N,VCC*%
X144850000Y-97028000D02*
X146304000Y-97028000D01*
D17*
X119634000Y-101346000D02*
X119634000Y-107950000D01*
X147320000Y-99498000D02*
X144850000Y-97028000D01*
X147320000Y-107950000D02*
X147320000Y-99498000D01*
X120396000Y-108712000D02*
X146558000Y-108712000D01*
D16*
X121850000Y-97028000D02*
X121850000Y-99130000D01*
X121158000Y-97028000D02*
X121850000Y-97028000D01*
D17*
X116586000Y-101600000D02*
X121158000Y-97028000D01*
X146558000Y-108712000D02*
X147320000Y-107950000D01*
X119634000Y-107950000D02*
X120396000Y-108712000D01*
X121850000Y-99130000D02*
X119634000Y-101346000D01*
X146304000Y-97028000D02*
X150876000Y-101600000D01*
%TO.N,GND*%
X133350000Y-90170000D02*
X122180000Y-79000000D01*
X147315000Y-79000000D02*
X144532000Y-79000000D01*
X144526000Y-78994000D02*
X133350000Y-90170000D01*
X133350000Y-90170000D02*
X133350000Y-94028000D01*
X122180000Y-79000000D02*
X120142000Y-79000000D01*
D16*
X144532000Y-79000000D02*
X144526000Y-78994000D01*
D17*
%TO.N,Net-(D1-Pad2)*%
X116586000Y-106680000D02*
X115316000Y-106680000D01*
X114554000Y-82048000D02*
X117602000Y-79000000D01*
X114554000Y-105918000D02*
X114554000Y-82048000D01*
X115316000Y-106680000D02*
X114554000Y-105918000D01*
%TO.N,Net-(D2-Pad2)*%
X152908000Y-80772000D02*
X151136000Y-79000000D01*
X152146000Y-106680000D02*
X152908000Y-105918000D01*
X151136000Y-79000000D02*
X149855000Y-79000000D01*
X152908000Y-105918000D02*
X152908000Y-80772000D01*
X150876000Y-106680000D02*
X152146000Y-106680000D01*
%TD*%
M02*
