%TF.GenerationSoftware,KiCad,Pcbnew,6.0.6-1.fc36*%
%TF.CreationDate,2022-08-03T23:42:08-05:00*%
%TF.ProjectId,ses-badge,7365732d-6261-4646-9765-2e6b69636164,rev?*%
%TF.SameCoordinates,Original*%
%TF.FileFunction,Legend,Top*%
%TF.FilePolarity,Positive*%
%FSLAX46Y46*%
G04 Gerber Fmt 4.6, Leading zero omitted, Abs format (unit mm)*
G04 Created by KiCad (PCBNEW 6.0.6-1.fc36) date 2022-08-03 23:42:08*
%MOMM*%
%LPD*%
G01*
G04 APERTURE LIST*
%ADD10C,0.150000*%
%ADD11C,0.120000*%
G04 APERTURE END LIST*
D10*
X118000857Y-72614142D02*
X118215142Y-72685571D01*
X118572285Y-72685571D01*
X118715142Y-72614142D01*
X118786571Y-72542714D01*
X118858000Y-72399857D01*
X118858000Y-72257000D01*
X118786571Y-72114142D01*
X118715142Y-72042714D01*
X118572285Y-71971285D01*
X118286571Y-71899857D01*
X118143714Y-71828428D01*
X118072285Y-71757000D01*
X118000857Y-71614142D01*
X118000857Y-71471285D01*
X118072285Y-71328428D01*
X118143714Y-71257000D01*
X118286571Y-71185571D01*
X118643714Y-71185571D01*
X118858000Y-71257000D01*
X120143714Y-72685571D02*
X120143714Y-71899857D01*
X120072285Y-71757000D01*
X119929428Y-71685571D01*
X119643714Y-71685571D01*
X119500857Y-71757000D01*
X120143714Y-72614142D02*
X120000857Y-72685571D01*
X119643714Y-72685571D01*
X119500857Y-72614142D01*
X119429428Y-72471285D01*
X119429428Y-72328428D01*
X119500857Y-72185571D01*
X119643714Y-72114142D01*
X120000857Y-72114142D01*
X120143714Y-72042714D01*
X121500857Y-71685571D02*
X121500857Y-72685571D01*
X120858000Y-71685571D02*
X120858000Y-72471285D01*
X120929428Y-72614142D01*
X121072285Y-72685571D01*
X121286571Y-72685571D01*
X121429428Y-72614142D01*
X121500857Y-72542714D01*
X122215142Y-72685571D02*
X122215142Y-71185571D01*
X122358000Y-72114142D02*
X122786571Y-72685571D01*
X122786571Y-71685571D02*
X122215142Y-72257000D01*
X123286571Y-71685571D02*
X123643714Y-72685571D01*
X124000857Y-71685571D01*
X124572285Y-72685571D02*
X124572285Y-71685571D01*
X124572285Y-71185571D02*
X124500857Y-71257000D01*
X124572285Y-71328428D01*
X124643714Y-71257000D01*
X124572285Y-71185571D01*
X124572285Y-71328428D01*
X125500857Y-72685571D02*
X125358000Y-72614142D01*
X125286571Y-72471285D01*
X125286571Y-71185571D01*
X126286571Y-72685571D02*
X126143714Y-72614142D01*
X126072285Y-72471285D01*
X126072285Y-71185571D01*
X127429428Y-72614142D02*
X127286571Y-72685571D01*
X127000857Y-72685571D01*
X126858000Y-72614142D01*
X126786571Y-72471285D01*
X126786571Y-71899857D01*
X126858000Y-71757000D01*
X127000857Y-71685571D01*
X127286571Y-71685571D01*
X127429428Y-71757000D01*
X127500857Y-71899857D01*
X127500857Y-72042714D01*
X126786571Y-72185571D01*
X129286571Y-71899857D02*
X129786571Y-71899857D01*
X130000857Y-72685571D02*
X129286571Y-72685571D01*
X129286571Y-71185571D01*
X130000857Y-71185571D01*
X130857999Y-72685571D02*
X130715142Y-72614142D01*
X130643714Y-72471285D01*
X130643714Y-71185571D01*
X132000857Y-72614142D02*
X131857999Y-72685571D01*
X131572285Y-72685571D01*
X131429428Y-72614142D01*
X131357999Y-72471285D01*
X131357999Y-71899857D01*
X131429428Y-71757000D01*
X131572285Y-71685571D01*
X131857999Y-71685571D01*
X132000857Y-71757000D01*
X132072285Y-71899857D01*
X132072285Y-72042714D01*
X131357999Y-72185571D01*
X132715142Y-72685571D02*
X132715142Y-71685571D01*
X132715142Y-71828428D02*
X132786571Y-71757000D01*
X132929428Y-71685571D01*
X133143714Y-71685571D01*
X133286571Y-71757000D01*
X133357999Y-71899857D01*
X133357999Y-72685571D01*
X133357999Y-71899857D02*
X133429428Y-71757000D01*
X133572285Y-71685571D01*
X133786571Y-71685571D01*
X133929428Y-71757000D01*
X134000857Y-71899857D01*
X134000857Y-72685571D01*
X135286571Y-72614142D02*
X135143714Y-72685571D01*
X134858000Y-72685571D01*
X134715142Y-72614142D01*
X134643714Y-72471285D01*
X134643714Y-71899857D01*
X134715142Y-71757000D01*
X134858000Y-71685571D01*
X135143714Y-71685571D01*
X135286571Y-71757000D01*
X135358000Y-71899857D01*
X135358000Y-72042714D01*
X134643714Y-72185571D01*
X136000857Y-71685571D02*
X136000857Y-72685571D01*
X136000857Y-71828428D02*
X136072285Y-71757000D01*
X136215142Y-71685571D01*
X136429428Y-71685571D01*
X136572285Y-71757000D01*
X136643714Y-71899857D01*
X136643714Y-72685571D01*
X137143714Y-71685571D02*
X137715142Y-71685571D01*
X137358000Y-71185571D02*
X137358000Y-72471285D01*
X137429428Y-72614142D01*
X137572285Y-72685571D01*
X137715142Y-72685571D01*
X138858000Y-72685571D02*
X138858000Y-71899857D01*
X138786571Y-71757000D01*
X138643714Y-71685571D01*
X138358000Y-71685571D01*
X138215142Y-71757000D01*
X138858000Y-72614142D02*
X138715142Y-72685571D01*
X138358000Y-72685571D01*
X138215142Y-72614142D01*
X138143714Y-72471285D01*
X138143714Y-72328428D01*
X138215142Y-72185571D01*
X138358000Y-72114142D01*
X138715142Y-72114142D01*
X138858000Y-72042714D01*
X139572285Y-72685571D02*
X139572285Y-71685571D01*
X139572285Y-71971285D02*
X139643714Y-71828428D01*
X139715142Y-71757000D01*
X139858000Y-71685571D01*
X140000857Y-71685571D01*
X140358000Y-71685571D02*
X140715142Y-72685571D01*
X141072285Y-71685571D02*
X140715142Y-72685571D01*
X140572285Y-73042714D01*
X140500857Y-73114142D01*
X140358000Y-73185571D01*
X142715142Y-72614142D02*
X142929428Y-72685571D01*
X143286571Y-72685571D01*
X143429428Y-72614142D01*
X143500857Y-72542714D01*
X143572285Y-72399857D01*
X143572285Y-72257000D01*
X143500857Y-72114142D01*
X143429428Y-72042714D01*
X143286571Y-71971285D01*
X143000857Y-71899857D01*
X142858000Y-71828428D01*
X142786571Y-71757000D01*
X142715142Y-71614142D01*
X142715142Y-71471285D01*
X142786571Y-71328428D01*
X142858000Y-71257000D01*
X143000857Y-71185571D01*
X143358000Y-71185571D01*
X143572285Y-71257000D01*
X144858000Y-72614142D02*
X144715142Y-72685571D01*
X144429428Y-72685571D01*
X144286571Y-72614142D01*
X144215142Y-72542714D01*
X144143714Y-72399857D01*
X144143714Y-71971285D01*
X144215142Y-71828428D01*
X144286571Y-71757000D01*
X144429428Y-71685571D01*
X144715142Y-71685571D01*
X144858000Y-71757000D01*
X145500857Y-72685571D02*
X145500857Y-71185571D01*
X146143714Y-72685571D02*
X146143714Y-71899857D01*
X146072285Y-71757000D01*
X145929428Y-71685571D01*
X145715142Y-71685571D01*
X145572285Y-71757000D01*
X145500857Y-71828428D01*
X147072285Y-72685571D02*
X146929428Y-72614142D01*
X146858000Y-72542714D01*
X146786571Y-72399857D01*
X146786571Y-71971285D01*
X146858000Y-71828428D01*
X146929428Y-71757000D01*
X147072285Y-71685571D01*
X147286571Y-71685571D01*
X147429428Y-71757000D01*
X147500857Y-71828428D01*
X147572285Y-71971285D01*
X147572285Y-72399857D01*
X147500857Y-72542714D01*
X147429428Y-72614142D01*
X147286571Y-72685571D01*
X147072285Y-72685571D01*
X148429428Y-72685571D02*
X148286571Y-72614142D01*
X148215142Y-72542714D01*
X148143714Y-72399857D01*
X148143714Y-71971285D01*
X148215142Y-71828428D01*
X148286571Y-71757000D01*
X148429428Y-71685571D01*
X148643714Y-71685571D01*
X148786571Y-71757000D01*
X148858000Y-71828428D01*
X148929428Y-71971285D01*
X148929428Y-72399857D01*
X148858000Y-72542714D01*
X148786571Y-72614142D01*
X148643714Y-72685571D01*
X148429428Y-72685571D01*
X149786571Y-72685571D02*
X149643714Y-72614142D01*
X149572285Y-72471285D01*
X149572285Y-71185571D01*
X123429428Y-76015571D02*
X123786571Y-77515571D01*
X124072285Y-76444142D01*
X124358000Y-77515571D01*
X124715142Y-76015571D01*
X125286571Y-77515571D02*
X125286571Y-76015571D01*
X125929428Y-77515571D02*
X125929428Y-76729857D01*
X125858000Y-76587000D01*
X125715142Y-76515571D01*
X125500857Y-76515571D01*
X125358000Y-76587000D01*
X125286571Y-76658428D01*
X127215142Y-77444142D02*
X127072285Y-77515571D01*
X126786571Y-77515571D01*
X126643714Y-77444142D01*
X126572285Y-77301285D01*
X126572285Y-76729857D01*
X126643714Y-76587000D01*
X126786571Y-76515571D01*
X127072285Y-76515571D01*
X127215142Y-76587000D01*
X127286571Y-76729857D01*
X127286571Y-76872714D01*
X126572285Y-77015571D01*
X127929428Y-77515571D02*
X127929428Y-76515571D01*
X127929428Y-76801285D02*
X128000857Y-76658428D01*
X128072285Y-76587000D01*
X128215142Y-76515571D01*
X128358000Y-76515571D01*
X129429428Y-77444142D02*
X129286571Y-77515571D01*
X129000857Y-77515571D01*
X128858000Y-77444142D01*
X128786571Y-77301285D01*
X128786571Y-76729857D01*
X128858000Y-76587000D01*
X129000857Y-76515571D01*
X129286571Y-76515571D01*
X129429428Y-76587000D01*
X129500857Y-76729857D01*
X129500857Y-76872714D01*
X128786571Y-77015571D01*
X131286571Y-76729857D02*
X131786571Y-76729857D01*
X132000857Y-77515571D02*
X131286571Y-77515571D01*
X131286571Y-76015571D01*
X132000857Y-76015571D01*
X133286571Y-77515571D02*
X133286571Y-76729857D01*
X133215142Y-76587000D01*
X133072285Y-76515571D01*
X132786571Y-76515571D01*
X132643714Y-76587000D01*
X133286571Y-77444142D02*
X133143714Y-77515571D01*
X132786571Y-77515571D01*
X132643714Y-77444142D01*
X132572285Y-77301285D01*
X132572285Y-77158428D01*
X132643714Y-77015571D01*
X132786571Y-76944142D01*
X133143714Y-76944142D01*
X133286571Y-76872714D01*
X134643714Y-76515571D02*
X134643714Y-77729857D01*
X134572285Y-77872714D01*
X134500857Y-77944142D01*
X134358000Y-78015571D01*
X134143714Y-78015571D01*
X134000857Y-77944142D01*
X134643714Y-77444142D02*
X134500857Y-77515571D01*
X134215142Y-77515571D01*
X134072285Y-77444142D01*
X134000857Y-77372714D01*
X133929428Y-77229857D01*
X133929428Y-76801285D01*
X134000857Y-76658428D01*
X134072285Y-76587000D01*
X134215142Y-76515571D01*
X134500857Y-76515571D01*
X134643714Y-76587000D01*
X135572285Y-77515571D02*
X135429428Y-77444142D01*
X135358000Y-77301285D01*
X135358000Y-76015571D01*
X136715142Y-77444142D02*
X136572285Y-77515571D01*
X136286571Y-77515571D01*
X136143714Y-77444142D01*
X136072285Y-77301285D01*
X136072285Y-76729857D01*
X136143714Y-76587000D01*
X136286571Y-76515571D01*
X136572285Y-76515571D01*
X136715142Y-76587000D01*
X136786571Y-76729857D01*
X136786571Y-76872714D01*
X136072285Y-77015571D01*
X137358000Y-77444142D02*
X137500857Y-77515571D01*
X137786571Y-77515571D01*
X137929428Y-77444142D01*
X138000857Y-77301285D01*
X138000857Y-77229857D01*
X137929428Y-77087000D01*
X137786571Y-77015571D01*
X137572285Y-77015571D01*
X137429428Y-76944142D01*
X137358000Y-76801285D01*
X137358000Y-76729857D01*
X137429428Y-76587000D01*
X137572285Y-76515571D01*
X137786571Y-76515571D01*
X137929428Y-76587000D01*
X139715142Y-77444142D02*
X139929428Y-77515571D01*
X140286571Y-77515571D01*
X140429428Y-77444142D01*
X140500857Y-77372714D01*
X140572285Y-77229857D01*
X140572285Y-77087000D01*
X140500857Y-76944142D01*
X140429428Y-76872714D01*
X140286571Y-76801285D01*
X140000857Y-76729857D01*
X139858000Y-76658428D01*
X139786571Y-76587000D01*
X139715142Y-76444142D01*
X139715142Y-76301285D01*
X139786571Y-76158428D01*
X139858000Y-76087000D01*
X140000857Y-76015571D01*
X140358000Y-76015571D01*
X140572285Y-76087000D01*
X141429428Y-77515571D02*
X141286571Y-77444142D01*
X141215142Y-77372714D01*
X141143714Y-77229857D01*
X141143714Y-76801285D01*
X141215142Y-76658428D01*
X141286571Y-76587000D01*
X141429428Y-76515571D01*
X141643714Y-76515571D01*
X141786571Y-76587000D01*
X141858000Y-76658428D01*
X141929428Y-76801285D01*
X141929428Y-77229857D01*
X141858000Y-77372714D01*
X141786571Y-77444142D01*
X141643714Y-77515571D01*
X141429428Y-77515571D01*
X143215142Y-77515571D02*
X143215142Y-76729857D01*
X143143714Y-76587000D01*
X143000857Y-76515571D01*
X142715142Y-76515571D01*
X142572285Y-76587000D01*
X143215142Y-77444142D02*
X143072285Y-77515571D01*
X142715142Y-77515571D01*
X142572285Y-77444142D01*
X142500857Y-77301285D01*
X142500857Y-77158428D01*
X142572285Y-77015571D01*
X142715142Y-76944142D01*
X143072285Y-76944142D01*
X143215142Y-76872714D01*
X143929428Y-77515571D02*
X143929428Y-76515571D01*
X143929428Y-76801285D02*
X144000857Y-76658428D01*
X144072285Y-76587000D01*
X144215142Y-76515571D01*
X144358000Y-76515571D01*
%TO.C,D2*%
X147846904Y-75492380D02*
X147846904Y-74492380D01*
X148085000Y-74492380D01*
X148227857Y-74540000D01*
X148323095Y-74635238D01*
X148370714Y-74730476D01*
X148418333Y-74920952D01*
X148418333Y-75063809D01*
X148370714Y-75254285D01*
X148323095Y-75349523D01*
X148227857Y-75444761D01*
X148085000Y-75492380D01*
X147846904Y-75492380D01*
X148799285Y-74587619D02*
X148846904Y-74540000D01*
X148942142Y-74492380D01*
X149180238Y-74492380D01*
X149275476Y-74540000D01*
X149323095Y-74587619D01*
X149370714Y-74682857D01*
X149370714Y-74778095D01*
X149323095Y-74920952D01*
X148751666Y-75492380D01*
X149370714Y-75492380D01*
%TO.C,R1*%
X118958380Y-104306666D02*
X118482190Y-104640000D01*
X118958380Y-104878095D02*
X117958380Y-104878095D01*
X117958380Y-104497142D01*
X118006000Y-104401904D01*
X118053619Y-104354285D01*
X118148857Y-104306666D01*
X118291714Y-104306666D01*
X118386952Y-104354285D01*
X118434571Y-104401904D01*
X118482190Y-104497142D01*
X118482190Y-104878095D01*
X118958380Y-103354285D02*
X118958380Y-103925714D01*
X118958380Y-103640000D02*
X117958380Y-103640000D01*
X118101238Y-103735238D01*
X118196476Y-103830476D01*
X118244095Y-103925714D01*
%TO.C,R2*%
X153248380Y-104306666D02*
X152772190Y-104640000D01*
X153248380Y-104878095D02*
X152248380Y-104878095D01*
X152248380Y-104497142D01*
X152296000Y-104401904D01*
X152343619Y-104354285D01*
X152438857Y-104306666D01*
X152581714Y-104306666D01*
X152676952Y-104354285D01*
X152724571Y-104401904D01*
X152772190Y-104497142D01*
X152772190Y-104878095D01*
X152343619Y-103925714D02*
X152296000Y-103878095D01*
X152248380Y-103782857D01*
X152248380Y-103544761D01*
X152296000Y-103449523D01*
X152343619Y-103401904D01*
X152438857Y-103354285D01*
X152534095Y-103354285D01*
X152676952Y-103401904D01*
X153248380Y-103973333D01*
X153248380Y-103354285D01*
%TO.C,D1*%
X118133904Y-83412380D02*
X118133904Y-82412380D01*
X118372000Y-82412380D01*
X118514857Y-82460000D01*
X118610095Y-82555238D01*
X118657714Y-82650476D01*
X118705333Y-82840952D01*
X118705333Y-82983809D01*
X118657714Y-83174285D01*
X118610095Y-83269523D01*
X118514857Y-83364761D01*
X118372000Y-83412380D01*
X118133904Y-83412380D01*
X119657714Y-83412380D02*
X119086285Y-83412380D01*
X119372000Y-83412380D02*
X119372000Y-82412380D01*
X119276761Y-82555238D01*
X119181523Y-82650476D01*
X119086285Y-82698095D01*
D11*
%TO.C,D2*%
X146025000Y-77455000D02*
X146025000Y-80545000D01*
X146025000Y-80544830D02*
G75*
G03*
X151575000Y-78999538I2560000J1544830D01*
G01*
X151575000Y-79000462D02*
G75*
G03*
X146025000Y-77455170I-2990000J462D01*
G01*
X151085000Y-79000000D02*
G75*
G03*
X151085000Y-79000000I-2500000J0D01*
G01*
%TO.C,R1*%
X117506000Y-102220000D02*
X117506000Y-106060000D01*
X115666000Y-102220000D02*
X115666000Y-106060000D01*
%TO.C,REF\u002A\u002A*%
G36*
X128950450Y-83805696D02*
G01*
X128982437Y-83809102D01*
X129058216Y-83821990D01*
X129142285Y-83841087D01*
X129231419Y-83865374D01*
X129322392Y-83893827D01*
X129411980Y-83925428D01*
X129496956Y-83959155D01*
X129574095Y-83993987D01*
X129587603Y-84000647D01*
X129655079Y-84036283D01*
X129730075Y-84079148D01*
X129809874Y-84127525D01*
X129891755Y-84179698D01*
X129972999Y-84233949D01*
X130050889Y-84288562D01*
X130096406Y-84321928D01*
X130158663Y-84371440D01*
X130222819Y-84427973D01*
X130287242Y-84489710D01*
X130350297Y-84554833D01*
X130410351Y-84621523D01*
X130465770Y-84687964D01*
X130514921Y-84752337D01*
X130556170Y-84812824D01*
X130587884Y-84867607D01*
X130589334Y-84870448D01*
X130616751Y-84934191D01*
X130638776Y-85005033D01*
X130650721Y-85060003D01*
X130659010Y-85125986D01*
X130659578Y-85188675D01*
X130651959Y-85250668D01*
X130635690Y-85314563D01*
X130610308Y-85382960D01*
X130582022Y-85444939D01*
X130543058Y-85515615D01*
X130500337Y-85574306D01*
X130452212Y-85622462D01*
X130397036Y-85661532D01*
X130333162Y-85692965D01*
X130277556Y-85712709D01*
X130240780Y-85722650D01*
X130213730Y-85726320D01*
X130194075Y-85723742D01*
X130179488Y-85714938D01*
X130178164Y-85713662D01*
X130166094Y-85696453D01*
X130160018Y-85681426D01*
X130158614Y-85673672D01*
X130158530Y-85664493D01*
X130160181Y-85651973D01*
X130163978Y-85634199D01*
X130170335Y-85609256D01*
X130179664Y-85575231D01*
X130192379Y-85530209D01*
X130193427Y-85526524D01*
X130201855Y-85484915D01*
X130206767Y-85434478D01*
X130208123Y-85379531D01*
X130205881Y-85324392D01*
X130200000Y-85273380D01*
X130196049Y-85252431D01*
X130163679Y-85135095D01*
X130118505Y-85019581D01*
X130061310Y-84907205D01*
X129992877Y-84799281D01*
X129913990Y-84697125D01*
X129825432Y-84602052D01*
X129787065Y-84565927D01*
X129738512Y-84525463D01*
X129680747Y-84483050D01*
X129617461Y-84441034D01*
X129552343Y-84401758D01*
X129489085Y-84367565D01*
X129435007Y-84342319D01*
X129351999Y-84313373D01*
X129259567Y-84292141D01*
X129159519Y-84278674D01*
X129053661Y-84273023D01*
X128943803Y-84275240D01*
X128831752Y-84285374D01*
X128719317Y-84303477D01*
X128644881Y-84320038D01*
X128610245Y-84330827D01*
X128567306Y-84347591D01*
X128519145Y-84368868D01*
X128468840Y-84393193D01*
X128419470Y-84419104D01*
X128374115Y-84445136D01*
X128350488Y-84459958D01*
X128299635Y-84491518D01*
X128258074Y-84513659D01*
X128225454Y-84526548D01*
X128202964Y-84530379D01*
X128178011Y-84525919D01*
X128148815Y-84514273D01*
X128120575Y-84498038D01*
X128098488Y-84479814D01*
X128095785Y-84476785D01*
X128082786Y-84457969D01*
X128073262Y-84435245D01*
X128066323Y-84405604D01*
X128061081Y-84366035D01*
X128060093Y-84355976D01*
X128058928Y-84319277D01*
X128063209Y-84283943D01*
X128073775Y-84246786D01*
X128091467Y-84204620D01*
X128109549Y-84168494D01*
X128135672Y-84123281D01*
X128164158Y-84083983D01*
X128196907Y-84048952D01*
X128235821Y-84016542D01*
X128282803Y-83985107D01*
X128339753Y-83952999D01*
X128384914Y-83930055D01*
X128479489Y-83888339D01*
X128576850Y-83854429D01*
X128674812Y-83828767D01*
X128771190Y-83811796D01*
X128863797Y-83803959D01*
X128950450Y-83805696D01*
G37*
G36*
X129017344Y-84561731D02*
G01*
X129119554Y-84580300D01*
X129224260Y-84611243D01*
X129332268Y-84654771D01*
X129372343Y-84673674D01*
X129473072Y-84727987D01*
X129562712Y-84787476D01*
X129643355Y-84853970D01*
X129717093Y-84929301D01*
X129786016Y-85015297D01*
X129822500Y-85067611D01*
X129851285Y-85111713D01*
X129872630Y-85147368D01*
X129887274Y-85176989D01*
X129895956Y-85202993D01*
X129899417Y-85227794D01*
X129898394Y-85253806D01*
X129893628Y-85283444D01*
X129891593Y-85293333D01*
X129875692Y-85342164D01*
X129848504Y-85394618D01*
X129811226Y-85448924D01*
X129765053Y-85503313D01*
X129718616Y-85549287D01*
X129664940Y-85590625D01*
X129603104Y-85624974D01*
X129536000Y-85651450D01*
X129466520Y-85669170D01*
X129397556Y-85677248D01*
X129331998Y-85674800D01*
X129316169Y-85672384D01*
X129247110Y-85654953D01*
X129172731Y-85626904D01*
X129094718Y-85589274D01*
X129014752Y-85543102D01*
X128934519Y-85489424D01*
X128855701Y-85429278D01*
X128779983Y-85363702D01*
X128719496Y-85304654D01*
X128683802Y-85266602D01*
X128642849Y-85221067D01*
X128599557Y-85171429D01*
X128556845Y-85121068D01*
X128517631Y-85073365D01*
X128493309Y-85042699D01*
X128460924Y-84992134D01*
X128441275Y-84940483D01*
X128434776Y-84889885D01*
X128435655Y-84864861D01*
X128439276Y-84843807D01*
X128447011Y-84821587D01*
X128460229Y-84793070D01*
X128461099Y-84791303D01*
X128491603Y-84740557D01*
X128530044Y-84697283D01*
X128578599Y-84659265D01*
X128609784Y-84640145D01*
X128671161Y-84607710D01*
X128726881Y-84584058D01*
X128780697Y-84568152D01*
X128836358Y-84558957D01*
X128897615Y-84555437D01*
X128916829Y-84555329D01*
X129017344Y-84561731D01*
G37*
G36*
X136684900Y-95822536D02*
G01*
X136698725Y-95828297D01*
X136709036Y-95837372D01*
X136716324Y-95851598D01*
X136721084Y-95872817D01*
X136723808Y-95902869D01*
X136724990Y-95943591D01*
X136725163Y-95972750D01*
X136725248Y-96064532D01*
X136766630Y-96139318D01*
X136834299Y-96252812D01*
X136908500Y-96359606D01*
X136955245Y-96419777D01*
X136983509Y-96455899D01*
X137003456Y-96484481D01*
X137016127Y-96507850D01*
X137022565Y-96528331D01*
X137023809Y-96548250D01*
X137021377Y-96567472D01*
X137008732Y-96600653D01*
X136985378Y-96631244D01*
X136954200Y-96657054D01*
X136918082Y-96675890D01*
X136879907Y-96685558D01*
X136865008Y-96686370D01*
X136837854Y-96683704D01*
X136807603Y-96677203D01*
X136793559Y-96672828D01*
X136747946Y-96652447D01*
X136711347Y-96626309D01*
X136679435Y-96591291D01*
X136678008Y-96589413D01*
X136663244Y-96568980D01*
X136651677Y-96550033D01*
X136642825Y-96530442D01*
X136636205Y-96508078D01*
X136631333Y-96480810D01*
X136627727Y-96446510D01*
X136624902Y-96403046D01*
X136622376Y-96348289D01*
X136622169Y-96343280D01*
X136619499Y-96290429D01*
X136615780Y-96233724D01*
X136611357Y-96177537D01*
X136606572Y-96126243D01*
X136601821Y-96084602D01*
X136593765Y-96012016D01*
X136590164Y-95952112D01*
X136591024Y-95904722D01*
X136596347Y-95869681D01*
X136606136Y-95846823D01*
X136606619Y-95846162D01*
X136628945Y-95826057D01*
X136656345Y-95818530D01*
X136684900Y-95822536D01*
G37*
G36*
X134542184Y-97430298D02*
G01*
X134562464Y-97443603D01*
X134574691Y-97463901D01*
X134576760Y-97477497D01*
X134573466Y-97493769D01*
X134564859Y-97516475D01*
X134553597Y-97539200D01*
X134522357Y-97608037D01*
X134504582Y-97678737D01*
X134500246Y-97751464D01*
X134508862Y-97824122D01*
X134513638Y-97851195D01*
X134514697Y-97869810D01*
X134512070Y-97884576D01*
X134509322Y-97892109D01*
X134499591Y-97917155D01*
X134491540Y-97941696D01*
X134484462Y-97968668D01*
X134477653Y-98001006D01*
X134470406Y-98041647D01*
X134464100Y-98080352D01*
X134451790Y-98173756D01*
X134444311Y-98266982D01*
X134441764Y-98356839D01*
X134444250Y-98440133D01*
X134450653Y-98505271D01*
X134476095Y-98657827D01*
X134510859Y-98816466D01*
X134539645Y-98926792D01*
X134556972Y-98992122D01*
X134569892Y-99047343D01*
X134578208Y-99091542D01*
X134581404Y-99118244D01*
X134583133Y-99145936D01*
X134582990Y-99163750D01*
X134580290Y-99175356D01*
X134574352Y-99184421D01*
X134567791Y-99191330D01*
X134545592Y-99205345D01*
X134517487Y-99208241D01*
X134482393Y-99200122D01*
X134480796Y-99199559D01*
X134439173Y-99178157D01*
X134407150Y-99147212D01*
X134396936Y-99131950D01*
X134384321Y-99105271D01*
X134370751Y-99067557D01*
X134356883Y-99021277D01*
X134343370Y-98968899D01*
X134330867Y-98912890D01*
X134320031Y-98855719D01*
X134314530Y-98821412D01*
X134307195Y-98772467D01*
X134298814Y-98717406D01*
X134290320Y-98662304D01*
X134282644Y-98613242D01*
X134281156Y-98603853D01*
X134267042Y-98505184D01*
X134257667Y-98415056D01*
X134252749Y-98329374D01*
X134252008Y-98244041D01*
X134253271Y-98196032D01*
X134258848Y-98094260D01*
X134267878Y-98003234D01*
X134280961Y-97920405D01*
X134298695Y-97843227D01*
X134321682Y-97769151D01*
X134350520Y-97695627D01*
X134385810Y-97620108D01*
X134391463Y-97608910D01*
X134409350Y-97575806D01*
X134429610Y-97541594D01*
X134450797Y-97508368D01*
X134471462Y-97478223D01*
X134490159Y-97453255D01*
X134505439Y-97435559D01*
X134515855Y-97427228D01*
X134517243Y-97426869D01*
X134542184Y-97430298D01*
G37*
G36*
X130637155Y-83641100D02*
G01*
X130581670Y-83569661D01*
X130532800Y-83507140D01*
X130489998Y-83452908D01*
X130452717Y-83406337D01*
X130420409Y-83366799D01*
X130392528Y-83333663D01*
X130368527Y-83306302D01*
X130347858Y-83284088D01*
X130329975Y-83266390D01*
X130314330Y-83252581D01*
X130300377Y-83242032D01*
X130287569Y-83234114D01*
X130275358Y-83228198D01*
X130263197Y-83223656D01*
X130254953Y-83221112D01*
X130216508Y-83213886D01*
X130176378Y-83214678D01*
X130132925Y-83223922D01*
X130084512Y-83242050D01*
X130029498Y-83269494D01*
X129993189Y-83290287D01*
X129938859Y-83321348D01*
X129886549Y-83348319D01*
X129834204Y-83371887D01*
X129779769Y-83392736D01*
X129721189Y-83411552D01*
X129656410Y-83429020D01*
X129583378Y-83445825D01*
X129500037Y-83462651D01*
X129446282Y-83472670D01*
X129378791Y-83484696D01*
X129316224Y-83495207D01*
X129257073Y-83504315D01*
X129199832Y-83512130D01*
X129142993Y-83518762D01*
X129085048Y-83524321D01*
X129024490Y-83528917D01*
X128959811Y-83532662D01*
X128889504Y-83535665D01*
X128812063Y-83538036D01*
X128725978Y-83539887D01*
X128629743Y-83541326D01*
X128521850Y-83542465D01*
X128488614Y-83542751D01*
X128397549Y-83543382D01*
X128309671Y-83543717D01*
X128224005Y-83543728D01*
X128139575Y-83543386D01*
X128055408Y-83542660D01*
X127970529Y-83541523D01*
X127883964Y-83539944D01*
X127794737Y-83537895D01*
X127701874Y-83535347D01*
X127604401Y-83532269D01*
X127501343Y-83528634D01*
X127391726Y-83524411D01*
X127274574Y-83519572D01*
X127148914Y-83514088D01*
X127013771Y-83507928D01*
X126868169Y-83501065D01*
X126711135Y-83493468D01*
X126541694Y-83485109D01*
X126506685Y-83483366D01*
X126379281Y-83477074D01*
X126264491Y-83471547D01*
X126161358Y-83466758D01*
X126068919Y-83462681D01*
X125986217Y-83459288D01*
X125912292Y-83456554D01*
X125846184Y-83454451D01*
X125786933Y-83452954D01*
X125733581Y-83452034D01*
X125685167Y-83451665D01*
X125640732Y-83451822D01*
X125599316Y-83452477D01*
X125559961Y-83453603D01*
X125521705Y-83455174D01*
X125511020Y-83455692D01*
X125413946Y-83461182D01*
X125325818Y-83467653D01*
X125241997Y-83475570D01*
X125157841Y-83485396D01*
X125068710Y-83497595D01*
X125021165Y-83504679D01*
X124907365Y-83522559D01*
X124804770Y-83539924D01*
X124711027Y-83557286D01*
X124623783Y-83575159D01*
X124540685Y-83594056D01*
X124459379Y-83614488D01*
X124377512Y-83636970D01*
X124292731Y-83662013D01*
X124276706Y-83666917D01*
X124227283Y-83682093D01*
X124176594Y-83697619D01*
X124127962Y-83712481D01*
X124084708Y-83725664D01*
X124050152Y-83736154D01*
X124042150Y-83738572D01*
X123886860Y-83792431D01*
X123733803Y-83859552D01*
X123583343Y-83939728D01*
X123435847Y-84032754D01*
X123291681Y-84138423D01*
X123199110Y-84214495D01*
X123043299Y-84352850D01*
X122899399Y-84490584D01*
X122765931Y-84629430D01*
X122641414Y-84771122D01*
X122524368Y-84917391D01*
X122413311Y-85069972D01*
X122306764Y-85230595D01*
X122243656Y-85332761D01*
X122195874Y-85415034D01*
X122152110Y-85496831D01*
X122111336Y-85580474D01*
X122072526Y-85668285D01*
X122034654Y-85762584D01*
X121996693Y-85865694D01*
X121958047Y-85978638D01*
X121936197Y-86045766D01*
X121917960Y-86105123D01*
X121902568Y-86159931D01*
X121889251Y-86213408D01*
X121877240Y-86268773D01*
X121865766Y-86329247D01*
X121854059Y-86398047D01*
X121846446Y-86445665D01*
X121822003Y-86611672D01*
X121801645Y-86772162D01*
X121785411Y-86926286D01*
X121773341Y-87073193D01*
X121765477Y-87212035D01*
X121761860Y-87341962D01*
X121762529Y-87462125D01*
X121767526Y-87571674D01*
X121776892Y-87669760D01*
X121785159Y-87725908D01*
X121797181Y-87786933D01*
X121813936Y-87858330D01*
X121834763Y-87937988D01*
X121859001Y-88023798D01*
X121885989Y-88113651D01*
X121915064Y-88205436D01*
X121945566Y-88297044D01*
X121976833Y-88386365D01*
X122008203Y-88471289D01*
X122039014Y-88549708D01*
X122056953Y-88592744D01*
X122074526Y-88632287D01*
X122097224Y-88680977D01*
X122123663Y-88736024D01*
X122152461Y-88794635D01*
X122182237Y-88854019D01*
X122211608Y-88911385D01*
X122239192Y-88963939D01*
X122257470Y-88997778D01*
X122291184Y-89058436D01*
X122323155Y-89113998D01*
X122354321Y-89165671D01*
X122385623Y-89214662D01*
X122418000Y-89262178D01*
X122452391Y-89309427D01*
X122489735Y-89357614D01*
X122530972Y-89407948D01*
X122577042Y-89461634D01*
X122628884Y-89519881D01*
X122687437Y-89583894D01*
X122753641Y-89654882D01*
X122828435Y-89734051D01*
X122840071Y-89746304D01*
X123021676Y-89931976D01*
X123204263Y-90107453D01*
X123389891Y-90274456D01*
X123580617Y-90434708D01*
X123778500Y-90589930D01*
X123985599Y-90741845D01*
X124203971Y-90892174D01*
X124232514Y-90911173D01*
X124308407Y-90961144D01*
X124381571Y-91008522D01*
X124453408Y-91054131D01*
X124525316Y-91098798D01*
X124598695Y-91143346D01*
X124674945Y-91188601D01*
X124755466Y-91235389D01*
X124841656Y-91284533D01*
X124934916Y-91336861D01*
X125036644Y-91393196D01*
X125148242Y-91454363D01*
X125221728Y-91494384D01*
X125319597Y-91547449D01*
X125406500Y-91594285D01*
X125483313Y-91635344D01*
X125550911Y-91671075D01*
X125610173Y-91701929D01*
X125661974Y-91728359D01*
X125707191Y-91750813D01*
X125746701Y-91769744D01*
X125781380Y-91785602D01*
X125812106Y-91798838D01*
X125820014Y-91802093D01*
X125852852Y-91815670D01*
X125883504Y-91828710D01*
X125908417Y-91839679D01*
X125923424Y-91846729D01*
X125942894Y-91854952D01*
X125959583Y-91859315D01*
X125962517Y-91859527D01*
X125967648Y-91858955D01*
X125971327Y-91855949D01*
X125973796Y-91848574D01*
X125975296Y-91834895D01*
X125976066Y-91812975D01*
X125976348Y-91780881D01*
X125976385Y-91748099D01*
X125977129Y-91700184D01*
X125979605Y-91654434D01*
X125984178Y-91608905D01*
X125991210Y-91561652D01*
X126001068Y-91510732D01*
X126014115Y-91454199D01*
X126030716Y-91390109D01*
X126051235Y-91316517D01*
X126068262Y-91257841D01*
X126096023Y-91169863D01*
X126125465Y-91090828D01*
X126158331Y-91017136D01*
X126196367Y-90945187D01*
X126241317Y-90871382D01*
X126291829Y-90796530D01*
X126392845Y-90660479D01*
X126499180Y-90533457D01*
X126612130Y-90414281D01*
X126732991Y-90301768D01*
X126863060Y-90194733D01*
X127003634Y-90091994D01*
X127156008Y-89992367D01*
X127206952Y-89961263D01*
X127298103Y-89908680D01*
X127395745Y-89856323D01*
X127496321Y-89805926D01*
X127596275Y-89759222D01*
X127692053Y-89717945D01*
X127763224Y-89690016D01*
X127830179Y-89667555D01*
X127909079Y-89645349D01*
X127998271Y-89623682D01*
X128096103Y-89602839D01*
X128200922Y-89583104D01*
X128311076Y-89564764D01*
X128424911Y-89548103D01*
X128540776Y-89533405D01*
X128657018Y-89520956D01*
X128771984Y-89511040D01*
X128821647Y-89507559D01*
X128879340Y-89504138D01*
X128944380Y-89500897D01*
X129017167Y-89497831D01*
X129098102Y-89494932D01*
X129187583Y-89492193D01*
X129286010Y-89489607D01*
X129393784Y-89487167D01*
X129511304Y-89484866D01*
X129638969Y-89482698D01*
X129777180Y-89480654D01*
X129926336Y-89478729D01*
X130086836Y-89476915D01*
X130259081Y-89475206D01*
X130443471Y-89473594D01*
X130640404Y-89472072D01*
X130850282Y-89470633D01*
X130990437Y-89469760D01*
X131192584Y-89468377D01*
X131381843Y-89466703D01*
X131558919Y-89464688D01*
X131724520Y-89462283D01*
X131879353Y-89459437D01*
X132024123Y-89456101D01*
X132159539Y-89452224D01*
X132286306Y-89447756D01*
X132405131Y-89442649D01*
X132516720Y-89436851D01*
X132621782Y-89430312D01*
X132721021Y-89422983D01*
X132815145Y-89414815D01*
X132904861Y-89405755D01*
X132990875Y-89395756D01*
X133073894Y-89384767D01*
X133154625Y-89372738D01*
X133233773Y-89359618D01*
X133312047Y-89345359D01*
X133390152Y-89329910D01*
X133468796Y-89313221D01*
X133548684Y-89295242D01*
X133587547Y-89286171D01*
X133756889Y-89243184D01*
X133921549Y-89195009D01*
X134083778Y-89140798D01*
X134245829Y-89079698D01*
X134409952Y-89010862D01*
X134578400Y-88933438D01*
X134753425Y-88846577D01*
X134756926Y-88844780D01*
X134896033Y-88771608D01*
X135023282Y-88700843D01*
X135139970Y-88631455D01*
X135247395Y-88562414D01*
X135346853Y-88492690D01*
X135439643Y-88421251D01*
X135527060Y-88347068D01*
X135610404Y-88269110D01*
X135690970Y-88186347D01*
X135770057Y-88097748D01*
X135848962Y-88002283D01*
X135900300Y-87936668D01*
X135986542Y-87815882D01*
X136061890Y-87692729D01*
X136125791Y-87568329D01*
X136177693Y-87443804D01*
X136217045Y-87320276D01*
X136230182Y-87266793D01*
X136235844Y-87239230D01*
X136239932Y-87213060D01*
X136242684Y-87185184D01*
X136244339Y-87152500D01*
X136245135Y-87111907D01*
X136245314Y-87069832D01*
X136243079Y-86959995D01*
X136235979Y-86861604D01*
X136223499Y-86773220D01*
X136205123Y-86693406D01*
X136180333Y-86620723D01*
X136148614Y-86553734D01*
X136109449Y-86491000D01*
X136062320Y-86431083D01*
X136006713Y-86372546D01*
X135988745Y-86355453D01*
X135935636Y-86310401D01*
X135873226Y-86264799D01*
X135804950Y-86220701D01*
X135734239Y-86180163D01*
X135664526Y-86145237D01*
X135599243Y-86117980D01*
X135581660Y-86111812D01*
X135497785Y-86090773D01*
X135409576Y-86081568D01*
X135319082Y-86084025D01*
X135228351Y-86097972D01*
X135139432Y-86123238D01*
X135063144Y-86155270D01*
X135009441Y-86184377D01*
X134967356Y-86213703D01*
X134934978Y-86244818D01*
X134910395Y-86279292D01*
X134908866Y-86281961D01*
X134884519Y-86318807D01*
X134859540Y-86343209D01*
X134832465Y-86356292D01*
X134808285Y-86359367D01*
X134768560Y-86354999D01*
X134724864Y-86343107D01*
X134683109Y-86325510D01*
X134665143Y-86315351D01*
X134637485Y-86295104D01*
X134604623Y-86266539D01*
X134568836Y-86232101D01*
X134532404Y-86194238D01*
X134497606Y-86155395D01*
X134466719Y-86118020D01*
X134442025Y-86084557D01*
X134426855Y-86059571D01*
X134414934Y-86026962D01*
X134406782Y-85985557D01*
X134402879Y-85939753D01*
X134403710Y-85893947D01*
X134406202Y-85871390D01*
X134415942Y-85824464D01*
X134431286Y-85781951D01*
X134453731Y-85741227D01*
X134484775Y-85699668D01*
X134525917Y-85654649D01*
X134535300Y-85645187D01*
X134608055Y-85579062D01*
X134686925Y-85520177D01*
X134773524Y-85467592D01*
X134869467Y-85420370D01*
X134976367Y-85377572D01*
X135024196Y-85360932D01*
X135125410Y-85330087D01*
X135237102Y-85301448D01*
X135356246Y-85275599D01*
X135479819Y-85253128D01*
X135604797Y-85234622D01*
X135728157Y-85220668D01*
X135763135Y-85217561D01*
X135822405Y-85213186D01*
X135890601Y-85209096D01*
X135966102Y-85205323D01*
X136047285Y-85201899D01*
X136132529Y-85198856D01*
X136220211Y-85196227D01*
X136308709Y-85194043D01*
X136396402Y-85192337D01*
X136481666Y-85191140D01*
X136562880Y-85190485D01*
X136638422Y-85190403D01*
X136706670Y-85190928D01*
X136766002Y-85192091D01*
X136814795Y-85193924D01*
X136847531Y-85196099D01*
X136943793Y-85207468D01*
X137034630Y-85224498D01*
X137122454Y-85248023D01*
X137209678Y-85278880D01*
X137298716Y-85317901D01*
X137391980Y-85365923D01*
X137473249Y-85412571D01*
X137584815Y-85482617D01*
X137684454Y-85552889D01*
X137773764Y-85624995D01*
X137854343Y-85700543D01*
X137927790Y-85781142D01*
X137995705Y-85868401D01*
X138059685Y-85963928D01*
X138115442Y-86058689D01*
X138145072Y-86115308D01*
X138166228Y-86163956D01*
X138179625Y-86206686D01*
X138185978Y-86245549D01*
X138186734Y-86263369D01*
X138186877Y-86306745D01*
X138157983Y-86303392D01*
X138142260Y-86299255D01*
X138116095Y-86289614D01*
X138081150Y-86275162D01*
X138039086Y-86256589D01*
X137991566Y-86234590D01*
X137982916Y-86230488D01*
X137898931Y-86190870D01*
X137823685Y-86156268D01*
X137755004Y-86125905D01*
X137690715Y-86099004D01*
X137628645Y-86074788D01*
X137566621Y-86052480D01*
X137502471Y-86031302D01*
X137434021Y-86010479D01*
X137359099Y-85989234D01*
X137275531Y-85966788D01*
X137181144Y-85942365D01*
X137167070Y-85938777D01*
X137072414Y-85915241D01*
X136988392Y-85895608D01*
X136912763Y-85879402D01*
X136843289Y-85866148D01*
X136777729Y-85855371D01*
X136765946Y-85853625D01*
X136704031Y-85845237D01*
X136645362Y-85838501D01*
X136591342Y-85833482D01*
X136543372Y-85830249D01*
X136502857Y-85828868D01*
X136471197Y-85829406D01*
X136449796Y-85831930D01*
X136440057Y-85836508D01*
X136439608Y-85838041D01*
X136444258Y-85849096D01*
X136458317Y-85868695D01*
X136481951Y-85897039D01*
X136515323Y-85934334D01*
X136532797Y-85953269D01*
X136561367Y-85987365D01*
X136585996Y-86024931D01*
X136608973Y-86068847D01*
X136674994Y-86216114D01*
X136728850Y-86357518D01*
X136770536Y-86493038D01*
X136800048Y-86622649D01*
X136817381Y-86746328D01*
X136822529Y-86864054D01*
X136815489Y-86975801D01*
X136807467Y-87029040D01*
X136781366Y-87166423D01*
X136755123Y-87291294D01*
X136728450Y-87404736D01*
X136701057Y-87507833D01*
X136672658Y-87601669D01*
X136642965Y-87687329D01*
X136611688Y-87765896D01*
X136611615Y-87766067D01*
X136551528Y-87897717D01*
X136485601Y-88024127D01*
X136412528Y-88147351D01*
X136331007Y-88269441D01*
X136239734Y-88392449D01*
X136137406Y-88518429D01*
X136123374Y-88534955D01*
X136030723Y-88641466D01*
X135942991Y-88737630D01*
X135858405Y-88824936D01*
X135775191Y-88904876D01*
X135691577Y-88978939D01*
X135605789Y-89048614D01*
X135516053Y-89115392D01*
X135420596Y-89180762D01*
X135317646Y-89246214D01*
X135205428Y-89313239D01*
X135178446Y-89328846D01*
X134971414Y-89440708D01*
X134757457Y-89541984D01*
X134536222Y-89632787D01*
X134307355Y-89713230D01*
X134070502Y-89783426D01*
X133825312Y-89843487D01*
X133571429Y-89893528D01*
X133308502Y-89933660D01*
X133271406Y-89938437D01*
X133213986Y-89945495D01*
X133159290Y-89951808D01*
X133105846Y-89957476D01*
X133052182Y-89962602D01*
X132996826Y-89967288D01*
X132938308Y-89971634D01*
X132875155Y-89975744D01*
X132805895Y-89979718D01*
X132729057Y-89983658D01*
X132643170Y-89987666D01*
X132546761Y-89991843D01*
X132438360Y-89996292D01*
X132428366Y-89996693D01*
X132334837Y-90000458D01*
X132253969Y-90003762D01*
X132184835Y-90006666D01*
X132126508Y-90009231D01*
X132078062Y-90011515D01*
X132038570Y-90013578D01*
X132007105Y-90015481D01*
X131982740Y-90017284D01*
X131964549Y-90019046D01*
X131951604Y-90020826D01*
X131942980Y-90022686D01*
X131937749Y-90024685D01*
X131934984Y-90026882D01*
X131933996Y-90028634D01*
X131933541Y-90035832D01*
X131938790Y-90043090D01*
X131951140Y-90051118D01*
X131971990Y-90060622D01*
X132002738Y-90072309D01*
X132044782Y-90086886D01*
X132057836Y-90091270D01*
X132094211Y-90103206D01*
X132128677Y-90113950D01*
X132163183Y-90123993D01*
X132199678Y-90133826D01*
X132240112Y-90143939D01*
X132286433Y-90154823D01*
X132340592Y-90166968D01*
X132404538Y-90180866D01*
X132465759Y-90193938D01*
X132752380Y-90251816D01*
X133029007Y-90301553D01*
X133296443Y-90343276D01*
X133555488Y-90377110D01*
X133781310Y-90400846D01*
X133947131Y-90414467D01*
X134120257Y-90425421D01*
X134298720Y-90433711D01*
X134480547Y-90439342D01*
X134663770Y-90442317D01*
X134846416Y-90442638D01*
X135026516Y-90440310D01*
X135202099Y-90435335D01*
X135371194Y-90427718D01*
X135531832Y-90417460D01*
X135682040Y-90404567D01*
X135749538Y-90397479D01*
X135902484Y-90378483D01*
X136065616Y-90354738D01*
X136236565Y-90326722D01*
X136412965Y-90294916D01*
X136592449Y-90259799D01*
X136772651Y-90221850D01*
X136951204Y-90181549D01*
X137125739Y-90139375D01*
X137293892Y-90095808D01*
X137441606Y-90054709D01*
X137645116Y-89992910D01*
X137854774Y-89923391D01*
X138066682Y-89847599D01*
X138276944Y-89766978D01*
X138481663Y-89682974D01*
X138676940Y-89597032D01*
X138681800Y-89594811D01*
X138756952Y-89560424D01*
X138820719Y-89531327D01*
X138874092Y-89507182D01*
X138918066Y-89487653D01*
X138953632Y-89472402D01*
X138981785Y-89461093D01*
X139003516Y-89453388D01*
X139019819Y-89448951D01*
X139031687Y-89447444D01*
X139040112Y-89448530D01*
X139046088Y-89451873D01*
X139050607Y-89457135D01*
X139054663Y-89463979D01*
X139056650Y-89467574D01*
X139060539Y-89475721D01*
X139061784Y-89484018D01*
X139059648Y-89494917D01*
X139053398Y-89510869D01*
X139042299Y-89534325D01*
X139028120Y-89562756D01*
X139008254Y-89604332D01*
X138994259Y-89639196D01*
X138984475Y-89671958D01*
X138978347Y-89700935D01*
X138973051Y-89728030D01*
X138965319Y-89764760D01*
X138955933Y-89807547D01*
X138945674Y-89852816D01*
X138937486Y-89887900D01*
X138923254Y-89950942D01*
X138910390Y-90014577D01*
X138898649Y-90080541D01*
X138887791Y-90150570D01*
X138877571Y-90226399D01*
X138867749Y-90309766D01*
X138858080Y-90402407D01*
X138848323Y-90506056D01*
X138843473Y-90560973D01*
X138828617Y-90742199D01*
X138816456Y-90913140D01*
X138806851Y-91076811D01*
X138799662Y-91236225D01*
X138794752Y-91394396D01*
X138791981Y-91554338D01*
X138791202Y-91696358D01*
X138791260Y-91765034D01*
X138791551Y-91826882D01*
X138792159Y-91883677D01*
X138793168Y-91937193D01*
X138794662Y-91989202D01*
X138796725Y-92041479D01*
X138799440Y-92095798D01*
X138802893Y-92153931D01*
X138807167Y-92217653D01*
X138812345Y-92288738D01*
X138818513Y-92368958D01*
X138825753Y-92460088D01*
X138829681Y-92508804D01*
X138838405Y-92615305D01*
X138846473Y-92710139D01*
X138854145Y-92795208D01*
X138861682Y-92872411D01*
X138869343Y-92943649D01*
X138877390Y-93010823D01*
X138886084Y-93075832D01*
X138895683Y-93140577D01*
X138906450Y-93206959D01*
X138918644Y-93276877D01*
X138932526Y-93352233D01*
X138948356Y-93434925D01*
X138966395Y-93526856D01*
X138975513Y-93572803D01*
X138993340Y-93661934D01*
X139009859Y-93743207D01*
X139025433Y-93817955D01*
X139040428Y-93887510D01*
X139055207Y-93953205D01*
X139070135Y-94016371D01*
X139085575Y-94078341D01*
X139101891Y-94140447D01*
X139119448Y-94204021D01*
X139138610Y-94270396D01*
X139159741Y-94340903D01*
X139183204Y-94416876D01*
X139209365Y-94499646D01*
X139238586Y-94590546D01*
X139271233Y-94690908D01*
X139307670Y-94802063D01*
X139330088Y-94870198D01*
X139376126Y-95008011D01*
X139419925Y-95134851D01*
X139462342Y-95252987D01*
X139504231Y-95364688D01*
X139546446Y-95472222D01*
X139589844Y-95577859D01*
X139635278Y-95683866D01*
X139645693Y-95707600D01*
X139661541Y-95742521D01*
X139683091Y-95788388D01*
X139709778Y-95844080D01*
X139741036Y-95908475D01*
X139776299Y-95980453D01*
X139815003Y-96058891D01*
X139856581Y-96142669D01*
X139900470Y-96230665D01*
X139946103Y-96321759D01*
X139992914Y-96414828D01*
X140040340Y-96508752D01*
X140087813Y-96602410D01*
X140134770Y-96694681D01*
X140180644Y-96784442D01*
X140224871Y-96870573D01*
X140266884Y-96951953D01*
X140306119Y-97027460D01*
X140342010Y-97095974D01*
X140373992Y-97156372D01*
X140401499Y-97207535D01*
X140408119Y-97219682D01*
X140465527Y-97322707D01*
X140528982Y-97432878D01*
X140598796Y-97550703D01*
X140675281Y-97676689D01*
X140758748Y-97811342D01*
X140849509Y-97955171D01*
X140947877Y-98108682D01*
X141054163Y-98272383D01*
X141073073Y-98301310D01*
X141105300Y-98350099D01*
X141143096Y-98406533D01*
X141185487Y-98469211D01*
X141231498Y-98536731D01*
X141280152Y-98607690D01*
X141330476Y-98680685D01*
X141381494Y-98754315D01*
X141432230Y-98827178D01*
X141481710Y-98897870D01*
X141528958Y-98964991D01*
X141572999Y-99027137D01*
X141612858Y-99082906D01*
X141647559Y-99130896D01*
X141676128Y-99169706D01*
X141687743Y-99185143D01*
X141718015Y-99225701D01*
X141740793Y-99258319D01*
X141757389Y-99285411D01*
X141769118Y-99309395D01*
X141777294Y-99332686D01*
X141783231Y-99357702D01*
X141784122Y-99362354D01*
X141788482Y-99398975D01*
X141789733Y-99441805D01*
X141788122Y-99486749D01*
X141783895Y-99529709D01*
X141777299Y-99566589D01*
X141770467Y-99589002D01*
X141743735Y-99642014D01*
X141706531Y-99697187D01*
X141661190Y-99752116D01*
X141610046Y-99804395D01*
X141555436Y-99851617D01*
X141499694Y-99891378D01*
X141450261Y-99918902D01*
X141390607Y-99943737D01*
X141333334Y-99959774D01*
X141273730Y-99967952D01*
X141207084Y-99969211D01*
X141199281Y-99968973D01*
X141161808Y-99967343D01*
X141132599Y-99964856D01*
X141106930Y-99960637D01*
X141080080Y-99953811D01*
X141047327Y-99943504D01*
X141029483Y-99937524D01*
X140925833Y-99897428D01*
X140823230Y-99847419D01*
X140720853Y-99786938D01*
X140617884Y-99715428D01*
X140513503Y-99632332D01*
X140406889Y-99537092D01*
X140328473Y-99460876D01*
X140264153Y-99395120D01*
X140209711Y-99336639D01*
X140164315Y-99284336D01*
X140127132Y-99237108D01*
X140097330Y-99193857D01*
X140074075Y-99153483D01*
X140056536Y-99114884D01*
X140047722Y-99089961D01*
X140042680Y-99072802D01*
X140038903Y-99056182D01*
X140036213Y-99037776D01*
X140034430Y-99015256D01*
X140033375Y-98986295D01*
X140032867Y-98948568D01*
X140032729Y-98899746D01*
X140032729Y-98748724D01*
X140067840Y-98677988D01*
X140084942Y-98643031D01*
X140097619Y-98615062D01*
X140107015Y-98590392D01*
X140114276Y-98565333D01*
X140120545Y-98536195D01*
X140126968Y-98499288D01*
X140130927Y-98474677D01*
X140144864Y-98378786D01*
X140156366Y-98281021D01*
X140165557Y-98179472D01*
X140172559Y-98072226D01*
X140177495Y-97957372D01*
X140180488Y-97832999D01*
X140181662Y-97697194D01*
X140181681Y-97686026D01*
X140181553Y-97598606D01*
X140180754Y-97522626D01*
X140179001Y-97455935D01*
X140176009Y-97396383D01*
X140171494Y-97341817D01*
X140165174Y-97290087D01*
X140156764Y-97239042D01*
X140145980Y-97186529D01*
X140132540Y-97130398D01*
X140116158Y-97068497D01*
X140096552Y-96998675D01*
X140086352Y-96963236D01*
X140057649Y-96866565D01*
X140030820Y-96782018D01*
X140005269Y-96708349D01*
X139980400Y-96644313D01*
X139955616Y-96588661D01*
X139930322Y-96540148D01*
X139903921Y-96497528D01*
X139875818Y-96459554D01*
X139845415Y-96424979D01*
X139814406Y-96394646D01*
X139767162Y-96355354D01*
X139720112Y-96323774D01*
X139675866Y-96301554D01*
X139655768Y-96294515D01*
X139624513Y-96288468D01*
X139584303Y-96285035D01*
X139539523Y-96284199D01*
X139494560Y-96285942D01*
X139453798Y-96290249D01*
X139427643Y-96295401D01*
X139385286Y-96308320D01*
X139347038Y-96324633D01*
X139310346Y-96345974D01*
X139272658Y-96373973D01*
X139231421Y-96410262D01*
X139198913Y-96441634D01*
X139147596Y-96494714D01*
X139106262Y-96543121D01*
X139073444Y-96589517D01*
X139047677Y-96636564D01*
X139027494Y-96686925D01*
X139011430Y-96743262D01*
X138998494Y-96805592D01*
X138994520Y-96830297D01*
X138991451Y-96856529D01*
X138989181Y-96886423D01*
X138987607Y-96922118D01*
X138986622Y-96965751D01*
X138986124Y-97019459D01*
X138986011Y-97060544D01*
X138986003Y-97114147D01*
X138986312Y-97159375D01*
X138987263Y-97198309D01*
X138989181Y-97233029D01*
X138992390Y-97265614D01*
X138997218Y-97298144D01*
X139003989Y-97332700D01*
X139013027Y-97371360D01*
X139024660Y-97416206D01*
X139039211Y-97469316D01*
X139057007Y-97532770D01*
X139063457Y-97555659D01*
X139082995Y-97625443D01*
X139098999Y-97683885D01*
X139111816Y-97732676D01*
X139121795Y-97773505D01*
X139129286Y-97808062D01*
X139134636Y-97838037D01*
X139138195Y-97865119D01*
X139140310Y-97890998D01*
X139141332Y-97917364D01*
X139141565Y-97934179D01*
X139141575Y-97967713D01*
X139140566Y-97991574D01*
X139137822Y-98009683D01*
X139132628Y-98025962D01*
X139124269Y-98044332D01*
X139119873Y-98053157D01*
X139082252Y-98115813D01*
X139035227Y-98174519D01*
X138980980Y-98227421D01*
X138921692Y-98272665D01*
X138859543Y-98308399D01*
X138796715Y-98332768D01*
X138788001Y-98335164D01*
X138711418Y-98349706D01*
X138629883Y-98355512D01*
X138547604Y-98352664D01*
X138468791Y-98341244D01*
X138417201Y-98327963D01*
X138336287Y-98296931D01*
X138258649Y-98256231D01*
X138185887Y-98207275D01*
X138119599Y-98151478D01*
X138061386Y-98090254D01*
X138012847Y-98025017D01*
X137975580Y-97957181D01*
X137963011Y-97926448D01*
X137929376Y-97821143D01*
X137907437Y-97721245D01*
X137896993Y-97625580D01*
X137897190Y-97543253D01*
X137903241Y-97456249D01*
X137911224Y-97379911D01*
X137921706Y-97311375D01*
X137935249Y-97247777D01*
X137952419Y-97186255D01*
X137973780Y-97123945D01*
X137986241Y-97091516D01*
X138016043Y-97019559D01*
X138051364Y-96939674D01*
X138090809Y-96854678D01*
X138132982Y-96767389D01*
X138176487Y-96680623D01*
X138219930Y-96597198D01*
X138261914Y-96519931D01*
X138301044Y-96451641D01*
X138313444Y-96430977D01*
X138339472Y-96388008D01*
X138367854Y-96340834D01*
X138395911Y-96293930D01*
X138420961Y-96251770D01*
X138432098Y-96232886D01*
X138456638Y-96191702D01*
X138485181Y-96144705D01*
X138514310Y-96097473D01*
X138540607Y-96055588D01*
X138542432Y-96052720D01*
X138563244Y-96018631D01*
X138588031Y-95975750D01*
X138614873Y-95927541D01*
X138641849Y-95877464D01*
X138667039Y-95828983D01*
X138671989Y-95819195D01*
X138699808Y-95762890D01*
X138722011Y-95714953D01*
X138739621Y-95672140D01*
X138753663Y-95631204D01*
X138765163Y-95588901D01*
X138775144Y-95541986D01*
X138784633Y-95487213D01*
X138792038Y-95439051D01*
X138804834Y-95334183D01*
X138810678Y-95235172D01*
X138809489Y-95137908D01*
X138801183Y-95038284D01*
X138785678Y-94932189D01*
X138781344Y-94907855D01*
X138762279Y-94821207D01*
X138739196Y-94747435D01*
X138712112Y-94686594D01*
X138703058Y-94670619D01*
X138670279Y-94622693D01*
X138628903Y-94572474D01*
X138581365Y-94522207D01*
X138530099Y-94474135D01*
X138477540Y-94430503D01*
X138426123Y-94393556D01*
X138378282Y-94365536D01*
X138365434Y-94359405D01*
X138327703Y-94344516D01*
X138287800Y-94333242D01*
X138242878Y-94325065D01*
X138190095Y-94319463D01*
X138127611Y-94315957D01*
X138042685Y-94315626D01*
X137966414Y-94322127D01*
X137895333Y-94336131D01*
X137825975Y-94358313D01*
X137758558Y-94387554D01*
X137708910Y-94417551D01*
X137661972Y-94457097D01*
X137621252Y-94502737D01*
X137590257Y-94551020D01*
X137588049Y-94555409D01*
X137564795Y-94602766D01*
X137565632Y-94731963D01*
X137567914Y-94825908D01*
X137573848Y-94909720D01*
X137584013Y-94986510D01*
X137598989Y-95059391D01*
X137619352Y-95131474D01*
X137645683Y-95205871D01*
X137660828Y-95243842D01*
X137688108Y-95311402D01*
X137709655Y-95367951D01*
X137725733Y-95414681D01*
X137736607Y-95452787D01*
X137742541Y-95483460D01*
X137743801Y-95507894D01*
X137740649Y-95527280D01*
X137733352Y-95542812D01*
X137728538Y-95549151D01*
X137718045Y-95559727D01*
X137706792Y-95565415D01*
X137690264Y-95567636D01*
X137669049Y-95567861D01*
X137642563Y-95566127D01*
X137617957Y-95560564D01*
X137592110Y-95549906D01*
X137561900Y-95532888D01*
X137527402Y-95510411D01*
X137448483Y-95464776D01*
X137365791Y-95431892D01*
X137280207Y-95411985D01*
X137192614Y-95405279D01*
X137128662Y-95408766D01*
X137072109Y-95415804D01*
X137026730Y-95423569D01*
X136990102Y-95432675D01*
X136959800Y-95443739D01*
X136933402Y-95457376D01*
X136930556Y-95459107D01*
X136907820Y-95471586D01*
X136887119Y-95480305D01*
X136874077Y-95483242D01*
X136852600Y-95476867D01*
X136835709Y-95457910D01*
X136823502Y-95426628D01*
X136816079Y-95383274D01*
X136813537Y-95328103D01*
X136813537Y-95327279D01*
X136812593Y-95300914D01*
X136809142Y-95276975D01*
X136802253Y-95254285D01*
X136790995Y-95231668D01*
X136774437Y-95207946D01*
X136751650Y-95181943D01*
X136721703Y-95152481D01*
X136683664Y-95118385D01*
X136636604Y-95078477D01*
X136579931Y-95031857D01*
X136542360Y-95001537D01*
X136512838Y-94978772D01*
X136489086Y-94962273D01*
X136468827Y-94950749D01*
X136449783Y-94942909D01*
X136429675Y-94937463D01*
X136406226Y-94933120D01*
X136405405Y-94932986D01*
X136331818Y-94925884D01*
X136251282Y-94926624D01*
X136167637Y-94934779D01*
X136084726Y-94949919D01*
X136006390Y-94971615D01*
X135981748Y-94980309D01*
X135942268Y-94998916D01*
X135897150Y-95026528D01*
X135848752Y-95061153D01*
X135799429Y-95100797D01*
X135751537Y-95143466D01*
X135707434Y-95187167D01*
X135669475Y-95229905D01*
X135640411Y-95269083D01*
X135617112Y-95309262D01*
X135592405Y-95359640D01*
X135567497Y-95417071D01*
X135543596Y-95478409D01*
X135521911Y-95540510D01*
X135503649Y-95600229D01*
X135490020Y-95654421D01*
X135487289Y-95667702D01*
X135477901Y-95728110D01*
X135470677Y-95799689D01*
X135465581Y-95880192D01*
X135462579Y-95967373D01*
X135461634Y-96058983D01*
X135462711Y-96152776D01*
X135465774Y-96246506D01*
X135470789Y-96337924D01*
X135477719Y-96424784D01*
X135486530Y-96504838D01*
X135497184Y-96575840D01*
X135502041Y-96601631D01*
X135531368Y-96716104D01*
X135573497Y-96833135D01*
X135628033Y-96951998D01*
X135694583Y-97071966D01*
X135772753Y-97192314D01*
X135862149Y-97312316D01*
X135935309Y-97400480D01*
X135949165Y-97415691D01*
X135971679Y-97439429D01*
X136001838Y-97470665D01*
X136038628Y-97508367D01*
X136081036Y-97551505D01*
X136128049Y-97599048D01*
X136178653Y-97649966D01*
X136231837Y-97703228D01*
X136286193Y-97757413D01*
X136355150Y-97826133D01*
X136415198Y-97886359D01*
X136467191Y-97939064D01*
X136511984Y-97985217D01*
X136550430Y-98025790D01*
X136583383Y-98061755D01*
X136611697Y-98094083D01*
X136636226Y-98123745D01*
X136657824Y-98151713D01*
X136677345Y-98178957D01*
X136695642Y-98206448D01*
X136713571Y-98235159D01*
X136729150Y-98261235D01*
X136752205Y-98302145D01*
X136777637Y-98350208D01*
X136804101Y-98402611D01*
X136830253Y-98456539D01*
X136854748Y-98509179D01*
X136876241Y-98557717D01*
X136893390Y-98599337D01*
X136902567Y-98624250D01*
X136911722Y-98652544D01*
X136918113Y-98676764D01*
X136922362Y-98700886D01*
X136925091Y-98728888D01*
X136926924Y-98764744D01*
X136927614Y-98784235D01*
X136928641Y-98825650D01*
X136928414Y-98857385D01*
X136926639Y-98883321D01*
X136923022Y-98907342D01*
X136917271Y-98933330D01*
X136915958Y-98938631D01*
X136899718Y-98995899D01*
X136878381Y-99059967D01*
X136853762Y-99125929D01*
X136827678Y-99188878D01*
X136805819Y-99236133D01*
X136765632Y-99304348D01*
X136717636Y-99361600D01*
X136661994Y-99407719D01*
X136613574Y-99435765D01*
X136576005Y-99452447D01*
X136531308Y-99469851D01*
X136483332Y-99486695D01*
X136435926Y-99501697D01*
X136392940Y-99513577D01*
X136358224Y-99521051D01*
X136356708Y-99521297D01*
X136312564Y-99523698D01*
X136265185Y-99517059D01*
X136213588Y-99501001D01*
X136156794Y-99475149D01*
X136093820Y-99439124D01*
X136026025Y-99394189D01*
X135936244Y-99327495D01*
X135859094Y-99261384D01*
X135793747Y-99194506D01*
X135739372Y-99125511D01*
X135695143Y-99053048D01*
X135660229Y-98975769D01*
X135633803Y-98892322D01*
X135615035Y-98801359D01*
X135603465Y-98705833D01*
X135600586Y-98661104D01*
X135598572Y-98604431D01*
X135597417Y-98537444D01*
X135597111Y-98461769D01*
X135597646Y-98379033D01*
X135599016Y-98290863D01*
X135601211Y-98198886D01*
X135604223Y-98104729D01*
X135606765Y-98039559D01*
X135611862Y-97902118D01*
X135615053Y-97778027D01*
X135616338Y-97667173D01*
X135615714Y-97569443D01*
X135613179Y-97484723D01*
X135608730Y-97412900D01*
X135602366Y-97353860D01*
X135594084Y-97307491D01*
X135592745Y-97301899D01*
X135577923Y-97255997D01*
X135555944Y-97205604D01*
X135529262Y-97155847D01*
X135504721Y-97117890D01*
X135459781Y-97063832D01*
X135407865Y-97018384D01*
X135348123Y-96981173D01*
X135279701Y-96951826D01*
X135201750Y-96929969D01*
X135113416Y-96915229D01*
X135025475Y-96907800D01*
X134974046Y-96905003D01*
X134934530Y-96902511D01*
X134905252Y-96900066D01*
X134884540Y-96897406D01*
X134870720Y-96894271D01*
X134862119Y-96890403D01*
X134857064Y-96885540D01*
X134854673Y-96881263D01*
X134852628Y-96875288D01*
X134852079Y-96867945D01*
X134853507Y-96857773D01*
X134857394Y-96843308D01*
X134864219Y-96823089D01*
X134874464Y-96795652D01*
X134888610Y-96759534D01*
X134907138Y-96713275D01*
X134922025Y-96676417D01*
X134966684Y-96552820D01*
X134998696Y-96434065D01*
X135014616Y-96346679D01*
X135022872Y-96277538D01*
X135029266Y-96201016D01*
X135033747Y-96120032D01*
X135036266Y-96037500D01*
X135036775Y-95956339D01*
X135035223Y-95879463D01*
X135031561Y-95809791D01*
X135025740Y-95750239D01*
X135024821Y-95743387D01*
X135008866Y-95658245D01*
X134985308Y-95574243D01*
X134955184Y-95493805D01*
X134919530Y-95419352D01*
X134879382Y-95353309D01*
X134835776Y-95298096D01*
X134833237Y-95295356D01*
X134789925Y-95255338D01*
X134736250Y-95215676D01*
X134675381Y-95178061D01*
X134610487Y-95144185D01*
X134544736Y-95115739D01*
X134481297Y-95094415D01*
X134437651Y-95084205D01*
X134400951Y-95079852D01*
X134354959Y-95077845D01*
X134303756Y-95078069D01*
X134251422Y-95080409D01*
X134202040Y-95084750D01*
X134159690Y-95090977D01*
X134153461Y-95092219D01*
X134105087Y-95106900D01*
X134052439Y-95130695D01*
X133998973Y-95161531D01*
X133948144Y-95197335D01*
X133903408Y-95236034D01*
X133888789Y-95250998D01*
X133861605Y-95282971D01*
X133839847Y-95315233D01*
X133822980Y-95349746D01*
X133810469Y-95388473D01*
X133801782Y-95433376D01*
X133796385Y-95486418D01*
X133793743Y-95549560D01*
X133793247Y-95602220D01*
X133794018Y-95673344D01*
X133796746Y-95732773D01*
X133802105Y-95782350D01*
X133810767Y-95823918D01*
X133823403Y-95859318D01*
X133840687Y-95890392D01*
X133863290Y-95918984D01*
X133891885Y-95946934D01*
X133927143Y-95976086D01*
X133930679Y-95978841D01*
X133962306Y-96006061D01*
X133984322Y-96032529D01*
X133999704Y-96062626D01*
X134010134Y-96095642D01*
X134016095Y-96120353D01*
X134018375Y-96138699D01*
X134016977Y-96156702D01*
X134011908Y-96180389D01*
X134010221Y-96187285D01*
X134000432Y-96219618D01*
X133986697Y-96250998D01*
X133967572Y-96283848D01*
X133941613Y-96320590D01*
X133907379Y-96363645D01*
X133899574Y-96373033D01*
X133848345Y-96431007D01*
X133799971Y-96478516D01*
X133752117Y-96517662D01*
X133702446Y-96550548D01*
X133702265Y-96550655D01*
X133647017Y-96580729D01*
X133597438Y-96601526D01*
X133550320Y-96614069D01*
X133502456Y-96619380D01*
X133485566Y-96619720D01*
X133449836Y-96618757D01*
X133414628Y-96615581D01*
X133378956Y-96609760D01*
X133341835Y-96600860D01*
X133302280Y-96588448D01*
X133259307Y-96572092D01*
X133211930Y-96551357D01*
X133159165Y-96525811D01*
X133100027Y-96495021D01*
X133033530Y-96458553D01*
X132958691Y-96415975D01*
X132874523Y-96366853D01*
X132780041Y-96310754D01*
X132771882Y-96305876D01*
X132689716Y-96257002D01*
X132617995Y-96215143D01*
X132555683Y-96180039D01*
X132501740Y-96151427D01*
X132455126Y-96129045D01*
X132414805Y-96112629D01*
X132379736Y-96101919D01*
X132348882Y-96096652D01*
X132321203Y-96096565D01*
X132295660Y-96101397D01*
X132271215Y-96110885D01*
X132246830Y-96124766D01*
X132221465Y-96142780D01*
X132198422Y-96161091D01*
X132145611Y-96211721D01*
X132103531Y-96268753D01*
X132071383Y-96333567D01*
X132048369Y-96407544D01*
X132043808Y-96428324D01*
X132037283Y-96475978D01*
X132034466Y-96533305D01*
X132035117Y-96596964D01*
X132038999Y-96663615D01*
X132045872Y-96729917D01*
X132055500Y-96792531D01*
X132067642Y-96848117D01*
X132075736Y-96875795D01*
X132088800Y-96908424D01*
X132107755Y-96944076D01*
X132133192Y-96983480D01*
X132165703Y-97027367D01*
X132205879Y-97076468D01*
X132254310Y-97131513D01*
X132311588Y-97193233D01*
X132378304Y-97262358D01*
X132434285Y-97318895D01*
X132505551Y-97390396D01*
X132567802Y-97453236D01*
X132621801Y-97508209D01*
X132668306Y-97556107D01*
X132708079Y-97597722D01*
X132741880Y-97633848D01*
X132770468Y-97665278D01*
X132794605Y-97692803D01*
X132807186Y-97707679D01*
X132868111Y-97783749D01*
X132918905Y-97854019D01*
X132960616Y-97920435D01*
X132994287Y-97984943D01*
X133020963Y-98049490D01*
X133041690Y-98116025D01*
X133053662Y-98166965D01*
X133062067Y-98217826D01*
X133068865Y-98280330D01*
X133073985Y-98352611D01*
X133077356Y-98432803D01*
X133078907Y-98519038D01*
X133078566Y-98609449D01*
X133076261Y-98702171D01*
X133075181Y-98730053D01*
X133071923Y-98802681D01*
X133068661Y-98863662D01*
X133065192Y-98914945D01*
X133061313Y-98958480D01*
X133056821Y-98996214D01*
X133051512Y-99030097D01*
X133045184Y-99062079D01*
X133037633Y-99094108D01*
X133036963Y-99096759D01*
X133012989Y-99177063D01*
X132980667Y-99263835D01*
X132941445Y-99354114D01*
X132896770Y-99444937D01*
X132848091Y-99533341D01*
X132796853Y-99616366D01*
X132750372Y-99683199D01*
X132700747Y-99743948D01*
X132642225Y-99805173D01*
X132577263Y-99864903D01*
X132508315Y-99921171D01*
X132437837Y-99972007D01*
X132368284Y-100015443D01*
X132302111Y-100049509D01*
X132283755Y-100057415D01*
X132248747Y-100067618D01*
X132203308Y-100074626D01*
X132150208Y-100078499D01*
X132092219Y-100079296D01*
X132032113Y-100077077D01*
X131972659Y-100071902D01*
X131916629Y-100063829D01*
X131866794Y-100052919D01*
X131850255Y-100048104D01*
X131801092Y-100028922D01*
X131755647Y-100002926D01*
X131711054Y-99968174D01*
X131664449Y-99922728D01*
X131663510Y-99921732D01*
X131619569Y-99868863D01*
X131579216Y-99808441D01*
X131544327Y-99744004D01*
X131516776Y-99679093D01*
X131498438Y-99617247D01*
X131496040Y-99605547D01*
X131490458Y-99543759D01*
X131495138Y-99477993D01*
X131509241Y-99412121D01*
X131531924Y-99350014D01*
X131562347Y-99295544D01*
X131563842Y-99293395D01*
X131587070Y-99262734D01*
X131612609Y-99234220D01*
X131641593Y-99207166D01*
X131675154Y-99180885D01*
X131714428Y-99154691D01*
X131760546Y-99127895D01*
X131814642Y-99099813D01*
X131877850Y-99069756D01*
X131951303Y-99037037D01*
X132036133Y-99000971D01*
X132068700Y-98987439D01*
X132135551Y-98959664D01*
X132191277Y-98936168D01*
X132237402Y-98916243D01*
X132275450Y-98899182D01*
X132306946Y-98884276D01*
X132333413Y-98870817D01*
X132356376Y-98858097D01*
X132377359Y-98845407D01*
X132385279Y-98840349D01*
X132450279Y-98790443D01*
X132506191Y-98730668D01*
X132553123Y-98660871D01*
X132591181Y-98580896D01*
X132617810Y-98500533D01*
X132636953Y-98413916D01*
X132644787Y-98333464D01*
X132641056Y-98257424D01*
X132625502Y-98184041D01*
X132597871Y-98111561D01*
X132557906Y-98038231D01*
X132548051Y-98022757D01*
X132500226Y-97958166D01*
X132446870Y-97901874D01*
X132389663Y-97855305D01*
X132330284Y-97819881D01*
X132287702Y-97802268D01*
X132252145Y-97793198D01*
X132206235Y-97785777D01*
X132153130Y-97780148D01*
X132095993Y-97776456D01*
X132037983Y-97774844D01*
X131982260Y-97775457D01*
X131931984Y-97778437D01*
X131890316Y-97783928D01*
X131889199Y-97784140D01*
X131842240Y-97796758D01*
X131792067Y-97817630D01*
X131736493Y-97847726D01*
X131711041Y-97863335D01*
X131654452Y-97896361D01*
X131605105Y-97919032D01*
X131561745Y-97931607D01*
X131523116Y-97934346D01*
X131487962Y-97927508D01*
X131461016Y-97915035D01*
X131436120Y-97895843D01*
X131408133Y-97866748D01*
X131378989Y-97830487D01*
X131350619Y-97789793D01*
X131324955Y-97747400D01*
X131303929Y-97706043D01*
X131291702Y-97675409D01*
X131286938Y-97659157D01*
X131282772Y-97639854D01*
X131279168Y-97616577D01*
X131276089Y-97588403D01*
X131273497Y-97554410D01*
X131271357Y-97513674D01*
X131269631Y-97465273D01*
X131268282Y-97408283D01*
X131267273Y-97341782D01*
X131266568Y-97264846D01*
X131266130Y-97176554D01*
X131265921Y-97075981D01*
X131265893Y-97029178D01*
X131265765Y-96937705D01*
X131265433Y-96853677D01*
X131264910Y-96777900D01*
X131264206Y-96711181D01*
X131263334Y-96654326D01*
X131262304Y-96608141D01*
X131261129Y-96573434D01*
X131259820Y-96551011D01*
X131258935Y-96543568D01*
X131244098Y-96489184D01*
X131220637Y-96440178D01*
X131187346Y-96394936D01*
X131143020Y-96351847D01*
X131086454Y-96309297D01*
X131081228Y-96305777D01*
X131039291Y-96278758D01*
X131003944Y-96258927D01*
X130971289Y-96244820D01*
X130937430Y-96234970D01*
X130898470Y-96227910D01*
X130862396Y-96223437D01*
X130775105Y-96220620D01*
X130687287Y-96230763D01*
X130600255Y-96253351D01*
X130515324Y-96287873D01*
X130433806Y-96333813D01*
X130357017Y-96390661D01*
X130300689Y-96442813D01*
X130273427Y-96473556D01*
X130243075Y-96512624D01*
X130211928Y-96556588D01*
X130182284Y-96602023D01*
X130156441Y-96645501D01*
X130136694Y-96683595D01*
X130131638Y-96695046D01*
X130118448Y-96729050D01*
X130108059Y-96761759D01*
X130100094Y-96795614D01*
X130094176Y-96833058D01*
X130089927Y-96876531D01*
X130086968Y-96928476D01*
X130084922Y-96991334D01*
X130084761Y-96998003D01*
X130085358Y-97173113D01*
X130095867Y-97341392D01*
X130116630Y-97505669D01*
X130147985Y-97668768D01*
X130181569Y-97802638D01*
X130190563Y-97834389D01*
X130202674Y-97875960D01*
X130216962Y-97924192D01*
X130232489Y-97975928D01*
X130248316Y-98028009D01*
X130256104Y-98053375D01*
X130281381Y-98136872D01*
X130302234Y-98209569D01*
X130319008Y-98273399D01*
X130332044Y-98330296D01*
X130341688Y-98382193D01*
X130348281Y-98431023D01*
X130352167Y-98478722D01*
X130353690Y-98527223D01*
X130353193Y-98578458D01*
X130352617Y-98597054D01*
X130343418Y-98713643D01*
X130324505Y-98825565D01*
X130296298Y-98931477D01*
X130259219Y-99030040D01*
X130213688Y-99119910D01*
X130165856Y-99192220D01*
X130138961Y-99226818D01*
X130108592Y-99263393D01*
X130073728Y-99303044D01*
X130033350Y-99346864D01*
X129986437Y-99395950D01*
X129931971Y-99451398D01*
X129868930Y-99514302D01*
X129833896Y-99548874D01*
X129740675Y-99639573D01*
X129655334Y-99720382D01*
X129577085Y-99791890D01*
X129505142Y-99854685D01*
X129438717Y-99909356D01*
X129377023Y-99956490D01*
X129319274Y-99996677D01*
X129264681Y-100030505D01*
X129212459Y-100058561D01*
X129161820Y-100081434D01*
X129111977Y-100099713D01*
X129086674Y-100107437D01*
X129026542Y-100119599D01*
X128962456Y-100123818D01*
X128899310Y-100120095D01*
X128841996Y-100108429D01*
X128838644Y-100107413D01*
X128762560Y-100077608D01*
X128686928Y-100036148D01*
X128614366Y-99984802D01*
X128547490Y-99925340D01*
X128510272Y-99885452D01*
X128472363Y-99837655D01*
X128441551Y-99789149D01*
X128416527Y-99737030D01*
X128395982Y-99678394D01*
X128378608Y-99610335D01*
X128372014Y-99578612D01*
X128364634Y-99526429D01*
X128360531Y-99463767D01*
X128359584Y-99393313D01*
X128361669Y-99317755D01*
X128366663Y-99239777D01*
X128374442Y-99162068D01*
X128384884Y-99087313D01*
X128397645Y-99019220D01*
X128419937Y-98927142D01*
X128449134Y-98824513D01*
X128484842Y-98712255D01*
X128526666Y-98591286D01*
X128574211Y-98462529D01*
X128627082Y-98326903D01*
X128684884Y-98185330D01*
X128747223Y-98038730D01*
X128813703Y-97888024D01*
X128883931Y-97734132D01*
X128957510Y-97577976D01*
X129034046Y-97420475D01*
X129113145Y-97262550D01*
X129194411Y-97105123D01*
X129277450Y-96949113D01*
X129314873Y-96880378D01*
X129428749Y-96672361D01*
X129536236Y-96475294D01*
X129637766Y-96288367D01*
X129733770Y-96110766D01*
X129824679Y-95941679D01*
X129910925Y-95780294D01*
X129992940Y-95625799D01*
X130071154Y-95477381D01*
X130146000Y-95334229D01*
X130217909Y-95195530D01*
X130287311Y-95060472D01*
X130354640Y-94928242D01*
X130409100Y-94820368D01*
X130477779Y-94683187D01*
X130540451Y-94556638D01*
X130597688Y-94439455D01*
X130650065Y-94330371D01*
X130698152Y-94228118D01*
X130742522Y-94131429D01*
X130783749Y-94039038D01*
X130822405Y-93949677D01*
X130859063Y-93862080D01*
X130894295Y-93774979D01*
X130928673Y-93687107D01*
X130962772Y-93597197D01*
X130966801Y-93586401D01*
X131003107Y-93487254D01*
X131038819Y-93386438D01*
X131073501Y-93285366D01*
X131106713Y-93185452D01*
X131138018Y-93088110D01*
X131166979Y-92994755D01*
X131193158Y-92906802D01*
X131216117Y-92825663D01*
X131235418Y-92752753D01*
X131250623Y-92689487D01*
X131261296Y-92637278D01*
X131262223Y-92631990D01*
X131266489Y-92599607D01*
X131269902Y-92559382D01*
X131272050Y-92517064D01*
X131272584Y-92487299D01*
X131273744Y-92437056D01*
X131277730Y-92398791D01*
X131285299Y-92371043D01*
X131297211Y-92352351D01*
X131314223Y-92341255D01*
X131337093Y-92336293D01*
X131351283Y-92335653D01*
X131366527Y-92336377D01*
X131382048Y-92339382D01*
X131400383Y-92345615D01*
X131424069Y-92356026D01*
X131455641Y-92371564D01*
X131478292Y-92383157D01*
X131544145Y-92415854D01*
X131602610Y-92441703D01*
X131657310Y-92461839D01*
X131711862Y-92477399D01*
X131769887Y-92489519D01*
X131835004Y-92499335D01*
X131857232Y-92502091D01*
X131938041Y-92509661D01*
X132007867Y-92511313D01*
X132068237Y-92506464D01*
X132120674Y-92494529D01*
X132166705Y-92474925D01*
X132207854Y-92447068D01*
X132245646Y-92410376D01*
X132281607Y-92364263D01*
X132303184Y-92331438D01*
X132338899Y-92264049D01*
X132361742Y-92196445D01*
X132371840Y-92127379D01*
X132369320Y-92055606D01*
X132354309Y-91979880D01*
X132342886Y-91942304D01*
X132339630Y-91932671D01*
X132336322Y-91923254D01*
X132332598Y-91913261D01*
X132328092Y-91901901D01*
X132322439Y-91888382D01*
X132315272Y-91871911D01*
X132306227Y-91851696D01*
X132294937Y-91826946D01*
X132281038Y-91796868D01*
X132264163Y-91760672D01*
X132243948Y-91717563D01*
X132220025Y-91666752D01*
X132192031Y-91607445D01*
X132159600Y-91538851D01*
X132122365Y-91460177D01*
X132079961Y-91370633D01*
X132042638Y-91291834D01*
X131981022Y-91161822D01*
X131924848Y-91043475D01*
X131873780Y-90936149D01*
X131827481Y-90839200D01*
X131785618Y-90751985D01*
X131747853Y-90673860D01*
X131713851Y-90604180D01*
X131683277Y-90542303D01*
X131655796Y-90487583D01*
X131631070Y-90439376D01*
X131608766Y-90397040D01*
X131588547Y-90359930D01*
X131570078Y-90327402D01*
X131553023Y-90298812D01*
X131537046Y-90273517D01*
X131521813Y-90250872D01*
X131506986Y-90230233D01*
X131492232Y-90210957D01*
X131477213Y-90192399D01*
X131461595Y-90173916D01*
X131457572Y-90169248D01*
X131403404Y-90112394D01*
X131348690Y-90067348D01*
X131290913Y-90032462D01*
X131227559Y-90006090D01*
X131191800Y-89995256D01*
X131150464Y-89987221D01*
X131100108Y-89982268D01*
X131044954Y-89980396D01*
X130989227Y-89981602D01*
X130937148Y-89985884D01*
X130892940Y-89993240D01*
X130884135Y-89995419D01*
X130818555Y-90017352D01*
X130755266Y-90047836D01*
X130692484Y-90087986D01*
X130628424Y-90138918D01*
X130573368Y-90189827D01*
X130533378Y-90229551D01*
X130502019Y-90263119D01*
X130478246Y-90293076D01*
X130461012Y-90321966D01*
X130449271Y-90352336D01*
X130441976Y-90386731D01*
X130438082Y-90427696D01*
X130436543Y-90477775D01*
X130436304Y-90523308D01*
X130435848Y-90577446D01*
X130434337Y-90619671D01*
X130431500Y-90651644D01*
X130427063Y-90675026D01*
X130420757Y-90691480D01*
X130412309Y-90702666D01*
X130406191Y-90707480D01*
X130390644Y-90716064D01*
X130364251Y-90728811D01*
X130328827Y-90744928D01*
X130286188Y-90763621D01*
X130238148Y-90784094D01*
X130186523Y-90805554D01*
X130133128Y-90827207D01*
X130127001Y-90829655D01*
X130076750Y-90848674D01*
X130016856Y-90869655D01*
X129950067Y-90891769D01*
X129879134Y-90914186D01*
X129806804Y-90936077D01*
X129735828Y-90956613D01*
X129668955Y-90974962D01*
X129608933Y-90990297D01*
X129558512Y-91001787D01*
X129552509Y-91003015D01*
X129410147Y-91028510D01*
X129265877Y-91048367D01*
X129123465Y-91062190D01*
X128986679Y-91069580D01*
X128910031Y-91070763D01*
X128789426Y-91069879D01*
X128680332Y-91067203D01*
X128580752Y-91062510D01*
X128488689Y-91055579D01*
X128402147Y-91046186D01*
X128319131Y-91034107D01*
X128237643Y-91019120D01*
X128155687Y-91001002D01*
X128071267Y-90979529D01*
X128055526Y-90975255D01*
X127978930Y-90954142D01*
X127913302Y-90935716D01*
X127856438Y-90919289D01*
X127806133Y-90904170D01*
X127760185Y-90889669D01*
X127716390Y-90875095D01*
X127672544Y-90859760D01*
X127626443Y-90842973D01*
X127592113Y-90830162D01*
X127530446Y-90807312D01*
X127479206Y-90789224D01*
X127436292Y-90775374D01*
X127399603Y-90765238D01*
X127367039Y-90758291D01*
X127336497Y-90754009D01*
X127305878Y-90751868D01*
X127276385Y-90751337D01*
X127199165Y-90757116D01*
X127124747Y-90773913D01*
X127055235Y-90800920D01*
X126992734Y-90837326D01*
X126941494Y-90880155D01*
X126895044Y-90933810D01*
X126851949Y-90997272D01*
X126814213Y-91066821D01*
X126783841Y-91138732D01*
X126762838Y-91209284D01*
X126761864Y-91213649D01*
X126758464Y-91236095D01*
X126755233Y-91270639D01*
X126752210Y-91315781D01*
X126749428Y-91370023D01*
X126746925Y-91431866D01*
X126744738Y-91499810D01*
X126742901Y-91572357D01*
X126741452Y-91648007D01*
X126740427Y-91725262D01*
X126739862Y-91802622D01*
X126739793Y-91878588D01*
X126740257Y-91951662D01*
X126741290Y-92020343D01*
X126741793Y-92043092D01*
X126743636Y-92118665D01*
X126745154Y-92181913D01*
X126746295Y-92234110D01*
X126747004Y-92276527D01*
X126747228Y-92310434D01*
X126746915Y-92337103D01*
X126746009Y-92357807D01*
X126744458Y-92373815D01*
X126742209Y-92386400D01*
X126739207Y-92396833D01*
X126735400Y-92406385D01*
X126730733Y-92416328D01*
X126725648Y-92426886D01*
X126677080Y-92513711D01*
X126616905Y-92593799D01*
X126545599Y-92666647D01*
X126463638Y-92731756D01*
X126393863Y-92776130D01*
X126350772Y-92799805D01*
X126315103Y-92816361D01*
X126283464Y-92826922D01*
X126252465Y-92832614D01*
X126218713Y-92834562D01*
X126217739Y-92834573D01*
X126189124Y-92834288D01*
X126167507Y-92831852D01*
X126147293Y-92825958D01*
X126122891Y-92815299D01*
X126111355Y-92809726D01*
X126080866Y-92793271D01*
X126046142Y-92772176D01*
X126013528Y-92750346D01*
X126005974Y-92744882D01*
X125990130Y-92733578D01*
X125964233Y-92715594D01*
X125929548Y-92691789D01*
X125887338Y-92663022D01*
X125838868Y-92630150D01*
X125785401Y-92594033D01*
X125728204Y-92555527D01*
X125668538Y-92515493D01*
X125639849Y-92496289D01*
X125570932Y-92450164D01*
X125493337Y-92398175D01*
X125409657Y-92342061D01*
X125322485Y-92283565D01*
X125234416Y-92224427D01*
X125148042Y-92166388D01*
X125065956Y-92111189D01*
X124990753Y-92060570D01*
X124983773Y-92055869D01*
X124914863Y-92009612D01*
X124843157Y-91961764D01*
X124770533Y-91913561D01*
X124698872Y-91866242D01*
X124630053Y-91821040D01*
X124565955Y-91779195D01*
X124508459Y-91741940D01*
X124459445Y-91710514D01*
X124439875Y-91698110D01*
X124247892Y-91576270D01*
X124062783Y-91457289D01*
X123885043Y-91341506D01*
X123715169Y-91229260D01*
X123553655Y-91120891D01*
X123400997Y-91016737D01*
X123257691Y-90917138D01*
X123124232Y-90822432D01*
X123001116Y-90732959D01*
X122888837Y-90649059D01*
X122787891Y-90571069D01*
X122753794Y-90544004D01*
X122666368Y-90472765D01*
X122584972Y-90403549D01*
X122508308Y-90334975D01*
X122435080Y-90265660D01*
X122363991Y-90194223D01*
X122293744Y-90119284D01*
X122223043Y-90039459D01*
X122150590Y-89953368D01*
X122075090Y-89859629D01*
X121995245Y-89756861D01*
X121913811Y-89649107D01*
X121855397Y-89570569D01*
X121804436Y-89501097D01*
X121759912Y-89439121D01*
X121720806Y-89383068D01*
X121686102Y-89331370D01*
X121654782Y-89282455D01*
X121625830Y-89234751D01*
X121598228Y-89186690D01*
X121570958Y-89136698D01*
X121543005Y-89083206D01*
X121526937Y-89051658D01*
X121478940Y-88954992D01*
X121435416Y-88863359D01*
X121395681Y-88774874D01*
X121359051Y-88687648D01*
X121324841Y-88599795D01*
X121292367Y-88509427D01*
X121260944Y-88414658D01*
X121229888Y-88313601D01*
X121198516Y-88204368D01*
X121166142Y-88085072D01*
X121139868Y-87984259D01*
X121120041Y-87906343D01*
X121102467Y-87835251D01*
X121087011Y-87769645D01*
X121073538Y-87708188D01*
X121061911Y-87649544D01*
X121051995Y-87592374D01*
X121043653Y-87535341D01*
X121036751Y-87477109D01*
X121031152Y-87416339D01*
X121026721Y-87351695D01*
X121023322Y-87281839D01*
X121020819Y-87205434D01*
X121019077Y-87121142D01*
X121017959Y-87027627D01*
X121017330Y-86923551D01*
X121017054Y-86807577D01*
X121017023Y-86774088D01*
X121017023Y-86678039D01*
X121017225Y-86594211D01*
X121017709Y-86521228D01*
X121018556Y-86457713D01*
X121019847Y-86402291D01*
X121021662Y-86353586D01*
X121024082Y-86310221D01*
X121027188Y-86270820D01*
X121031059Y-86234008D01*
X121035778Y-86198408D01*
X121041424Y-86162644D01*
X121048078Y-86125340D01*
X121055821Y-86085120D01*
X121058061Y-86073821D01*
X121077255Y-85992946D01*
X121104099Y-85903194D01*
X121137799Y-85806343D01*
X121177556Y-85704171D01*
X121222575Y-85598455D01*
X121272060Y-85490973D01*
X121325214Y-85383503D01*
X121381241Y-85277824D01*
X121439344Y-85175713D01*
X121498728Y-85078947D01*
X121514848Y-85054013D01*
X121586695Y-84948755D01*
X121669277Y-84836188D01*
X121762200Y-84716820D01*
X121865070Y-84591155D01*
X121972070Y-84465924D01*
X122014266Y-84418780D01*
X122062483Y-84367136D01*
X122114909Y-84312764D01*
X122169736Y-84257438D01*
X122225153Y-84202932D01*
X122279351Y-84151019D01*
X122330520Y-84103472D01*
X122376850Y-84062064D01*
X122416531Y-84028569D01*
X122426604Y-84020536D01*
X122460242Y-83994091D01*
X122501261Y-83961743D01*
X122546408Y-83926062D01*
X122592431Y-83889620D01*
X122636077Y-83854988D01*
X122644163Y-83848562D01*
X122702450Y-83802802D01*
X122756517Y-83761745D01*
X122808274Y-83724180D01*
X122859629Y-83688897D01*
X122912492Y-83654682D01*
X122968772Y-83620326D01*
X123030377Y-83584615D01*
X123099216Y-83546340D01*
X123177199Y-83504288D01*
X123234306Y-83474033D01*
X123495729Y-83343129D01*
X123758197Y-83225366D01*
X124021521Y-83120797D01*
X124285513Y-83029478D01*
X124549985Y-82951463D01*
X124814749Y-82886806D01*
X125079616Y-82835561D01*
X125344399Y-82797784D01*
X125608908Y-82773529D01*
X125667043Y-82770012D01*
X125745234Y-82766190D01*
X125833121Y-82762716D01*
X125929003Y-82759606D01*
X126031181Y-82756879D01*
X126137954Y-82754551D01*
X126247622Y-82752639D01*
X126358484Y-82751159D01*
X126468841Y-82750129D01*
X126576992Y-82749566D01*
X126681237Y-82749486D01*
X126779875Y-82749907D01*
X126871207Y-82750845D01*
X126953532Y-82752317D01*
X127025149Y-82754341D01*
X127067579Y-82756075D01*
X127285075Y-82768959D01*
X127509708Y-82787119D01*
X127645470Y-82800352D01*
X127755267Y-82811747D01*
X127852593Y-82821865D01*
X127938502Y-82830818D01*
X128014048Y-82838719D01*
X128080286Y-82845681D01*
X128138270Y-82851816D01*
X128189054Y-82857237D01*
X128233693Y-82862057D01*
X128273242Y-82866389D01*
X128308755Y-82870346D01*
X128341286Y-82874039D01*
X128371890Y-82877583D01*
X128401622Y-82881089D01*
X128410325Y-82882126D01*
X128461107Y-82888425D01*
X128520981Y-82896231D01*
X128585604Y-82904956D01*
X128650631Y-82914009D01*
X128711720Y-82922800D01*
X128733264Y-82925989D01*
X128813068Y-82937654D01*
X128890046Y-82948411D01*
X128962891Y-82958107D01*
X129030295Y-82966590D01*
X129090954Y-82973706D01*
X129143561Y-82979304D01*
X129186809Y-82983231D01*
X129219392Y-82985334D01*
X129240003Y-82985460D01*
X129241537Y-82985342D01*
X129272181Y-82978374D01*
X129292146Y-82964384D01*
X129300685Y-82943956D01*
X129300957Y-82938895D01*
X129298936Y-82926068D01*
X129293358Y-82903021D01*
X129284946Y-82872440D01*
X129274425Y-82837011D01*
X129267440Y-82814663D01*
X129246268Y-82745484D01*
X129229886Y-82685035D01*
X129217539Y-82629628D01*
X129208475Y-82575575D01*
X129201941Y-82519191D01*
X129198535Y-82477295D01*
X129195145Y-82335560D01*
X129195968Y-82322768D01*
X129850332Y-82322768D01*
X129850868Y-82359842D01*
X129852373Y-82389714D01*
X129855085Y-82415578D01*
X129859243Y-82440628D01*
X129864870Y-82467102D01*
X129880574Y-82528703D01*
X129897836Y-82579801D01*
X129918156Y-82623489D01*
X129943034Y-82662862D01*
X129973971Y-82701013D01*
X129983123Y-82711041D01*
X130000516Y-82728613D01*
X130013982Y-82738070D01*
X130028160Y-82741857D01*
X130042679Y-82742450D01*
X130074657Y-82737523D01*
X130098088Y-82723247D01*
X130110306Y-82704261D01*
X130112603Y-82692499D01*
X130115265Y-82669576D01*
X130118077Y-82637917D01*
X130120825Y-82599948D01*
X130123295Y-82558093D01*
X130123388Y-82556310D01*
X130128512Y-82475598D01*
X130135201Y-82398580D01*
X130143210Y-82327153D01*
X130152291Y-82263216D01*
X130162201Y-82208666D01*
X130172692Y-82165401D01*
X130175022Y-82157687D01*
X130190365Y-82114641D01*
X130211828Y-82062397D01*
X130238269Y-82003252D01*
X130268546Y-81939503D01*
X130301517Y-81873448D01*
X130336040Y-81807385D01*
X130370974Y-81743610D01*
X130405176Y-81684422D01*
X130431788Y-81641058D01*
X130450502Y-81611519D01*
X130473903Y-81574538D01*
X130499423Y-81534174D01*
X130524495Y-81494486D01*
X130532827Y-81481288D01*
X130553967Y-81448428D01*
X130573662Y-81418969D01*
X130590354Y-81395158D01*
X130602485Y-81379239D01*
X130607159Y-81374209D01*
X130630436Y-81362927D01*
X130656856Y-81363390D01*
X130683425Y-81375208D01*
X130696402Y-81385805D01*
X130718706Y-81410661D01*
X130735481Y-81437690D01*
X130747636Y-81469500D01*
X130756079Y-81508700D01*
X130761717Y-81557897D01*
X130763175Y-81577639D01*
X130765692Y-81618347D01*
X130768641Y-81670482D01*
X130771922Y-81731882D01*
X130775431Y-81800388D01*
X130779069Y-81873837D01*
X130782732Y-81950070D01*
X130786319Y-82026926D01*
X130789729Y-82102244D01*
X130792859Y-82173864D01*
X130795609Y-82239624D01*
X130797876Y-82297365D01*
X130799559Y-82344925D01*
X130800078Y-82361722D01*
X130804413Y-82463749D01*
X130811425Y-82553348D01*
X130821579Y-82631508D01*
X130835340Y-82699217D01*
X130853173Y-82757462D01*
X130875543Y-82807234D01*
X130902915Y-82849519D01*
X130935753Y-82885307D01*
X130974524Y-82915586D01*
X131019692Y-82941344D01*
X131071722Y-82963569D01*
X131085619Y-82968606D01*
X131161107Y-82989697D01*
X131235962Y-82999133D01*
X131312622Y-82996981D01*
X131393527Y-82983308D01*
X131416766Y-82977557D01*
X131475719Y-82960167D01*
X131533686Y-82938986D01*
X131591746Y-82913322D01*
X131650976Y-82882480D01*
X131712454Y-82845771D01*
X131777259Y-82802500D01*
X131846469Y-82751976D01*
X131921162Y-82693505D01*
X131940188Y-82677791D01*
X132781899Y-82677791D01*
X132784861Y-82685712D01*
X132794292Y-82698280D01*
X132811008Y-82716334D01*
X132835827Y-82740714D01*
X132869563Y-82772261D01*
X132905975Y-82805440D01*
X133000228Y-82892644D01*
X133089488Y-82979231D01*
X133172622Y-83063992D01*
X133248495Y-83145719D01*
X133315973Y-83223201D01*
X133373921Y-83295230D01*
X133405318Y-83337678D01*
X133417901Y-83355605D01*
X133430181Y-83373685D01*
X133442878Y-83393130D01*
X133456713Y-83415148D01*
X133472405Y-83440949D01*
X133490676Y-83471744D01*
X133512244Y-83508741D01*
X133537832Y-83553150D01*
X133568158Y-83606181D01*
X133603943Y-83669045D01*
X133631374Y-83717339D01*
X133654370Y-83757162D01*
X133677290Y-83795624D01*
X133698536Y-83830132D01*
X133716509Y-83858090D01*
X133729608Y-83876904D01*
X133730241Y-83877733D01*
X133782981Y-83937259D01*
X133840239Y-83984292D01*
X133902565Y-84019047D01*
X133970510Y-84041739D01*
X134044624Y-84052580D01*
X134125458Y-84051786D01*
X134166645Y-84047356D01*
X134236543Y-84034413D01*
X134311222Y-84014470D01*
X134388443Y-83988567D01*
X134465967Y-83957743D01*
X134541555Y-83923040D01*
X134612968Y-83885496D01*
X134677969Y-83846152D01*
X134734317Y-83806047D01*
X134779775Y-83766223D01*
X134786333Y-83759477D01*
X134813880Y-83726387D01*
X134834159Y-83692010D01*
X134847486Y-83654448D01*
X134854178Y-83611800D01*
X134854551Y-83562166D01*
X134848921Y-83503647D01*
X134839114Y-83442527D01*
X134793388Y-83229271D01*
X134734405Y-83019030D01*
X134662161Y-82811791D01*
X134642804Y-82762388D01*
X134591556Y-82636073D01*
X134543528Y-82521441D01*
X134498057Y-82417144D01*
X134454480Y-82321837D01*
X134412134Y-82234170D01*
X134370356Y-82152796D01*
X134328482Y-82076367D01*
X134285850Y-82003537D01*
X134241797Y-81932957D01*
X134213128Y-81889211D01*
X134172053Y-81828419D01*
X134136659Y-81778282D01*
X134105693Y-81737759D01*
X134077901Y-81705810D01*
X134052031Y-81681394D01*
X134026829Y-81663468D01*
X134001042Y-81650993D01*
X133973417Y-81642927D01*
X133942701Y-81638230D01*
X133908180Y-81635882D01*
X133835646Y-81637366D01*
X133768839Y-81648756D01*
X133705179Y-81670885D01*
X133642091Y-81704588D01*
X133594345Y-81737404D01*
X133571169Y-81756265D01*
X133540580Y-81783495D01*
X133504295Y-81817387D01*
X133464032Y-81856235D01*
X133421508Y-81898331D01*
X133378441Y-81941970D01*
X133336549Y-81985443D01*
X133297549Y-82027045D01*
X133263158Y-82065069D01*
X133253429Y-82076176D01*
X133191377Y-82148235D01*
X133131370Y-82218970D01*
X133074036Y-82287578D01*
X133020003Y-82353260D01*
X132969899Y-82415213D01*
X132924352Y-82472637D01*
X132883989Y-82524730D01*
X132849439Y-82570692D01*
X132821330Y-82609722D01*
X132800289Y-82641017D01*
X132786943Y-82663778D01*
X132781922Y-82677203D01*
X132781899Y-82677791D01*
X131940188Y-82677791D01*
X132002415Y-82626397D01*
X132091306Y-82549957D01*
X132115340Y-82528877D01*
X132147859Y-82500099D01*
X132180054Y-82471261D01*
X132212629Y-82441685D01*
X132246284Y-82410692D01*
X132281722Y-82377605D01*
X132319645Y-82341746D01*
X132360754Y-82302436D01*
X132405751Y-82258999D01*
X132455339Y-82210755D01*
X132510218Y-82157028D01*
X132571092Y-82097138D01*
X132638661Y-82030409D01*
X132713628Y-81956163D01*
X132796694Y-81873721D01*
X132888562Y-81782405D01*
X132900876Y-81770157D01*
X132996506Y-81675081D01*
X133083199Y-81589015D01*
X133161621Y-81511341D01*
X133232437Y-81441441D01*
X133296312Y-81378697D01*
X133353910Y-81322490D01*
X133405897Y-81272203D01*
X133452937Y-81227218D01*
X133495697Y-81186916D01*
X133534840Y-81150680D01*
X133571033Y-81117890D01*
X133604939Y-81087930D01*
X133637224Y-81060180D01*
X133668553Y-81034024D01*
X133699591Y-81008842D01*
X133731002Y-80984017D01*
X133763453Y-80958930D01*
X133797608Y-80932964D01*
X133818703Y-80917075D01*
X133914492Y-80847036D01*
X134004646Y-80785396D01*
X134092366Y-80730221D01*
X134180853Y-80679577D01*
X134273307Y-80631527D01*
X134358540Y-80590755D01*
X134442895Y-80552577D01*
X134517416Y-80520699D01*
X134583950Y-80494458D01*
X134644345Y-80473196D01*
X134700448Y-80456252D01*
X134754106Y-80442964D01*
X134794319Y-80434917D01*
X134854571Y-80425283D01*
X134922976Y-80416500D01*
X134997595Y-80408657D01*
X135076488Y-80401845D01*
X135157714Y-80396153D01*
X135239334Y-80391671D01*
X135319407Y-80388489D01*
X135395994Y-80386696D01*
X135467155Y-80386383D01*
X135530950Y-80387639D01*
X135585438Y-80390554D01*
X135628680Y-80395218D01*
X135633960Y-80396055D01*
X135668105Y-80403004D01*
X135710648Y-80413581D01*
X135758635Y-80426863D01*
X135809107Y-80441930D01*
X135859110Y-80457859D01*
X135905685Y-80473730D01*
X135945876Y-80488620D01*
X135976728Y-80501608D01*
X135984094Y-80505186D01*
X136034508Y-80532035D01*
X136085838Y-80561387D01*
X136134996Y-80591342D01*
X136178894Y-80620001D01*
X136214443Y-80645462D01*
X136222991Y-80652172D01*
X136260106Y-80686093D01*
X136299032Y-80728449D01*
X136336413Y-80775095D01*
X136368894Y-80821888D01*
X136390004Y-80858410D01*
X136411212Y-80912264D01*
X136419471Y-80964933D01*
X136414699Y-81015528D01*
X136407081Y-81040611D01*
X136391069Y-81074731D01*
X136368016Y-81113669D01*
X136340869Y-81153021D01*
X136312576Y-81188381D01*
X136297012Y-81205116D01*
X136264190Y-81232377D01*
X136222552Y-81258691D01*
X136176771Y-81281421D01*
X136133665Y-81297302D01*
X136091362Y-81307153D01*
X136041271Y-81313762D01*
X135982580Y-81317117D01*
X135914477Y-81317208D01*
X135836151Y-81314024D01*
X135746791Y-81307554D01*
X135645585Y-81297785D01*
X135572771Y-81289628D01*
X135488237Y-81280900D01*
X135406437Y-81274739D01*
X135329046Y-81271159D01*
X135257739Y-81270173D01*
X135194193Y-81271795D01*
X135140083Y-81276037D01*
X135097084Y-81282913D01*
X135085688Y-81285744D01*
X135023993Y-81306548D01*
X134973094Y-81332432D01*
X134931288Y-81365052D01*
X134896872Y-81406065D01*
X134868141Y-81457127D01*
X134843393Y-81519894D01*
X134842659Y-81522081D01*
X134823875Y-81591564D01*
X134816485Y-81654299D01*
X134820608Y-81711140D01*
X134836367Y-81762944D01*
X134863883Y-81810568D01*
X134887634Y-81839156D01*
X134904017Y-81855483D01*
X134919738Y-81867403D01*
X134938734Y-81877135D01*
X134964940Y-81886900D01*
X134982486Y-81892651D01*
X135051986Y-81911732D01*
X135118100Y-81922668D01*
X135187438Y-81926528D01*
X135192043Y-81926559D01*
X135257484Y-81931211D01*
X135325317Y-81943814D01*
X135389902Y-81963104D01*
X135429953Y-81979811D01*
X135489835Y-82015530D01*
X135546008Y-82062723D01*
X135596520Y-82119383D01*
X135639423Y-82183501D01*
X135653792Y-82210338D01*
X135666957Y-82238405D01*
X135679111Y-82268272D01*
X135690458Y-82300978D01*
X135701200Y-82337566D01*
X135711542Y-82379077D01*
X135721687Y-82426550D01*
X135731838Y-82481029D01*
X135742199Y-82543553D01*
X135752973Y-82615164D01*
X135764363Y-82696903D01*
X135776574Y-82789811D01*
X135789808Y-82894930D01*
X135793642Y-82926015D01*
X135804314Y-83011451D01*
X135813922Y-83084723D01*
X135822752Y-83147194D01*
X135831090Y-83200231D01*
X135839222Y-83245199D01*
X135847433Y-83283463D01*
X135856010Y-83316389D01*
X135865238Y-83345342D01*
X135875404Y-83371687D01*
X135886793Y-83396789D01*
X135896056Y-83415138D01*
X135925811Y-83465641D01*
X135961469Y-83515777D01*
X136000896Y-83563201D01*
X136041958Y-83605570D01*
X136082521Y-83640539D01*
X136120451Y-83665765D01*
X136127642Y-83669489D01*
X136147782Y-83678771D01*
X136167885Y-83686521D01*
X136189460Y-83692915D01*
X136214018Y-83698133D01*
X136243069Y-83702353D01*
X136278121Y-83705752D01*
X136320686Y-83708511D01*
X136372273Y-83710806D01*
X136434392Y-83712816D01*
X136508553Y-83714720D01*
X136510994Y-83714778D01*
X136608264Y-83717521D01*
X136694489Y-83721054D01*
X136772216Y-83725662D01*
X136843986Y-83731633D01*
X136912346Y-83739252D01*
X136979839Y-83748808D01*
X137049010Y-83760587D01*
X137122403Y-83774875D01*
X137202561Y-83791960D01*
X137209629Y-83793519D01*
X137302033Y-83815426D01*
X137404281Y-83842308D01*
X137513889Y-83873401D01*
X137628375Y-83907940D01*
X137745257Y-83945161D01*
X137862050Y-83984300D01*
X137976273Y-84024590D01*
X138057702Y-84054705D01*
X138197400Y-84109848D01*
X138332030Y-84168003D01*
X138463247Y-84230107D01*
X138592708Y-84297098D01*
X138722068Y-84369916D01*
X138852984Y-84449497D01*
X138987111Y-84536779D01*
X139126105Y-84632701D01*
X139271622Y-84738202D01*
X139295068Y-84755621D01*
X139358721Y-84803299D01*
X139412779Y-84844433D01*
X139458744Y-84880334D01*
X139498120Y-84912312D01*
X139532411Y-84941677D01*
X139563121Y-84969741D01*
X139591752Y-84997813D01*
X139619808Y-85027204D01*
X139648793Y-85059225D01*
X139666445Y-85079315D01*
X139701348Y-85118973D01*
X139741843Y-85164361D01*
X139784187Y-85211322D01*
X139824637Y-85255698D01*
X139849163Y-85282289D01*
X139883102Y-85318913D01*
X139918688Y-85357421D01*
X139953108Y-85394762D01*
X139983551Y-85427887D01*
X140004831Y-85451141D01*
X140039964Y-85488352D01*
X140069407Y-85516271D01*
X140095384Y-85536663D01*
X140120116Y-85551297D01*
X140142886Y-85560910D01*
X140163281Y-85567791D01*
X140174042Y-85569563D01*
X140178227Y-85565984D01*
X140178901Y-85558096D01*
X140175860Y-85547055D01*
X140167648Y-85527216D01*
X140155634Y-85501702D01*
X140145416Y-85481610D01*
X140130600Y-85451191D01*
X140111995Y-85409514D01*
X140090217Y-85358184D01*
X140065881Y-85298808D01*
X140039603Y-85232992D01*
X140012000Y-85162341D01*
X139983686Y-85088462D01*
X139955278Y-85012961D01*
X139927391Y-84937443D01*
X139900642Y-84863515D01*
X139875645Y-84792782D01*
X139853016Y-84726851D01*
X139834196Y-84669886D01*
X139817833Y-84619683D01*
X139799730Y-84565024D01*
X139781414Y-84510458D01*
X139764408Y-84460535D01*
X139752394Y-84425915D01*
X139734675Y-84373158D01*
X139722592Y-84331303D01*
X139715918Y-84298983D01*
X139714428Y-84274832D01*
X139717895Y-84257483D01*
X139723091Y-84248725D01*
X139731172Y-84242176D01*
X139743736Y-84239135D01*
X139764438Y-84238998D01*
X139777481Y-84239730D01*
X139805050Y-84244342D01*
X139842655Y-84254734D01*
X139888441Y-84270087D01*
X139940555Y-84289580D01*
X139997144Y-84312395D01*
X140056354Y-84337711D01*
X140116331Y-84364708D01*
X140175223Y-84392567D01*
X140231175Y-84420469D01*
X140282335Y-84447593D01*
X140326848Y-84473120D01*
X140362862Y-84496230D01*
X140371643Y-84502504D01*
X140399639Y-84522598D01*
X140419239Y-84535002D01*
X140432567Y-84540645D01*
X140441743Y-84540457D01*
X140448222Y-84536053D01*
X140456114Y-84521839D01*
X140464343Y-84495432D01*
X140472700Y-84458227D01*
X140480977Y-84411618D01*
X140488963Y-84357000D01*
X140496452Y-84295766D01*
X140503233Y-84229311D01*
X140509098Y-84159029D01*
X140512712Y-84105592D01*
X140514571Y-84064607D01*
X140515958Y-84012048D01*
X140516890Y-83949931D01*
X140517384Y-83880272D01*
X140517457Y-83805085D01*
X140517125Y-83726387D01*
X140516407Y-83646193D01*
X140515319Y-83566518D01*
X140513877Y-83489377D01*
X140512100Y-83416786D01*
X140510003Y-83350761D01*
X140507605Y-83293316D01*
X140505534Y-83255753D01*
X140495164Y-83098578D01*
X140484695Y-82953844D01*
X140473983Y-82820394D01*
X140462881Y-82697074D01*
X140451243Y-82582725D01*
X140438922Y-82476193D01*
X140425773Y-82376321D01*
X140411649Y-82281952D01*
X140396404Y-82191931D01*
X140379891Y-82105101D01*
X140361965Y-82020306D01*
X140342480Y-81936389D01*
X140334662Y-81904595D01*
X140285430Y-81724784D01*
X140227657Y-81544744D01*
X140162370Y-81367072D01*
X140090598Y-81194369D01*
X140013366Y-81029233D01*
X139931702Y-80874262D01*
X139917391Y-80849008D01*
X139883539Y-80792291D01*
X139843279Y-80728714D01*
X139798984Y-80661796D01*
X139753030Y-80595057D01*
X139707791Y-80532018D01*
X139667417Y-80478478D01*
X139549166Y-80332970D01*
X139429686Y-80199482D01*
X139307227Y-80076446D01*
X139180035Y-79962295D01*
X139046359Y-79855460D01*
X138904447Y-79754375D01*
X138752547Y-79657471D01*
X138744372Y-79652535D01*
X138666053Y-79606978D01*
X138588511Y-79565349D01*
X138510769Y-79527420D01*
X138431847Y-79492968D01*
X138350767Y-79461765D01*
X138266550Y-79433586D01*
X138178217Y-79408205D01*
X138084789Y-79385397D01*
X137985289Y-79364936D01*
X137878736Y-79346596D01*
X137764152Y-79330152D01*
X137640559Y-79315378D01*
X137506977Y-79302047D01*
X137362429Y-79289935D01*
X137205934Y-79278815D01*
X137093366Y-79271775D01*
X137009243Y-79267127D01*
X136937383Y-79263981D01*
X136876534Y-79262326D01*
X136825446Y-79262147D01*
X136782869Y-79263432D01*
X136747552Y-79266170D01*
X136731952Y-79268118D01*
X136714797Y-79270392D01*
X136686037Y-79273987D01*
X136647578Y-79278673D01*
X136601324Y-79284221D01*
X136549181Y-79290404D01*
X136493054Y-79296991D01*
X136446406Y-79302417D01*
X136364696Y-79312008D01*
X136294507Y-79320573D01*
X136233827Y-79328434D01*
X136180648Y-79335910D01*
X136132959Y-79343321D01*
X136088749Y-79350989D01*
X136046009Y-79359232D01*
X136002728Y-79368373D01*
X135956897Y-79378730D01*
X135934303Y-79384014D01*
X135830434Y-79409885D01*
X135716033Y-79440876D01*
X135592910Y-79476407D01*
X135462878Y-79515894D01*
X135327747Y-79558753D01*
X135189328Y-79604402D01*
X135049431Y-79652257D01*
X134909869Y-79701736D01*
X134772451Y-79752255D01*
X134671942Y-79790454D01*
X134602917Y-79817185D01*
X134537856Y-79842627D01*
X134475475Y-79867321D01*
X134414491Y-79891811D01*
X134353622Y-79916640D01*
X134291583Y-79942350D01*
X134227093Y-79969483D01*
X134158868Y-79998583D01*
X134085625Y-80030192D01*
X134006081Y-80064853D01*
X133918954Y-80103108D01*
X133822959Y-80145500D01*
X133716816Y-80192571D01*
X133631153Y-80230659D01*
X133511220Y-80283971D01*
X133402604Y-80332112D01*
X133304242Y-80375535D01*
X133215069Y-80414691D01*
X133134021Y-80450034D01*
X133060036Y-80482014D01*
X132992049Y-80511084D01*
X132928997Y-80537695D01*
X132869815Y-80562301D01*
X132813441Y-80585352D01*
X132758810Y-80607301D01*
X132704859Y-80628600D01*
X132650524Y-80649700D01*
X132594934Y-80670981D01*
X132467990Y-80718894D01*
X132348411Y-80763163D01*
X132234418Y-80804356D01*
X132124236Y-80843035D01*
X132016086Y-80879767D01*
X131908191Y-80915116D01*
X131798774Y-80949648D01*
X131686058Y-80983926D01*
X131568265Y-81018517D01*
X131443618Y-81053985D01*
X131310339Y-81090896D01*
X131166652Y-81129813D01*
X131072235Y-81155018D01*
X130976764Y-81180580D01*
X130893150Y-81203447D01*
X130820023Y-81224076D01*
X130756011Y-81242928D01*
X130699746Y-81260460D01*
X130649857Y-81277130D01*
X130604974Y-81293398D01*
X130563727Y-81309722D01*
X130524746Y-81326560D01*
X130486660Y-81344370D01*
X130448100Y-81363612D01*
X130446540Y-81364412D01*
X130370079Y-81409322D01*
X130291971Y-81466035D01*
X130213850Y-81533161D01*
X130137349Y-81609306D01*
X130071457Y-81684127D01*
X130033459Y-81730977D01*
X130002976Y-81771006D01*
X129978047Y-81807147D01*
X129956711Y-81842331D01*
X129937007Y-81879490D01*
X129926859Y-81900349D01*
X129904795Y-81948425D01*
X129887441Y-81990904D01*
X129874230Y-82030573D01*
X129864594Y-82070220D01*
X129857966Y-82112634D01*
X129853778Y-82160602D01*
X129851462Y-82216913D01*
X129850525Y-82275298D01*
X129850332Y-82322768D01*
X129195968Y-82322768D01*
X129204400Y-82191621D01*
X129225914Y-82047167D01*
X129259304Y-81903886D01*
X129304185Y-81763468D01*
X129360173Y-81627602D01*
X129417473Y-81514678D01*
X129494733Y-81385863D01*
X129577366Y-81268384D01*
X129666456Y-81161226D01*
X129763093Y-81063372D01*
X129868364Y-80973807D01*
X129983355Y-80891513D01*
X130109154Y-80815474D01*
X130235780Y-80749974D01*
X130290389Y-80724373D01*
X130346886Y-80699327D01*
X130406022Y-80674602D01*
X130468553Y-80649963D01*
X130535230Y-80625177D01*
X130606808Y-80600009D01*
X130684040Y-80574226D01*
X130767678Y-80547592D01*
X130858477Y-80519874D01*
X130957189Y-80490837D01*
X131064569Y-80460247D01*
X131181368Y-80427871D01*
X131308341Y-80393473D01*
X131446241Y-80356820D01*
X131595821Y-80317678D01*
X131757834Y-80275811D01*
X131775689Y-80271224D01*
X131882418Y-80243740D01*
X131977424Y-80218991D01*
X132062178Y-80196427D01*
X132138152Y-80175499D01*
X132206816Y-80155656D01*
X132269642Y-80136347D01*
X132328101Y-80117024D01*
X132383665Y-80097135D01*
X132437804Y-80076131D01*
X132491991Y-80053461D01*
X132547696Y-80028575D01*
X132606390Y-80000923D01*
X132669545Y-79969955D01*
X132738633Y-79935120D01*
X132815123Y-79895868D01*
X132900489Y-79851650D01*
X132907675Y-79847918D01*
X132961084Y-79820279D01*
X133011096Y-79794645D01*
X133059063Y-79770377D01*
X133106333Y-79746834D01*
X133154257Y-79723375D01*
X133204185Y-79699360D01*
X133257469Y-79674150D01*
X133315457Y-79647104D01*
X133379501Y-79617582D01*
X133450950Y-79584943D01*
X133531154Y-79548547D01*
X133621465Y-79507755D01*
X133694004Y-79475077D01*
X133836710Y-79411178D01*
X133968858Y-79352752D01*
X134092042Y-79299167D01*
X134207852Y-79249791D01*
X134317881Y-79203989D01*
X134423721Y-79161129D01*
X134526964Y-79120579D01*
X134629202Y-79081704D01*
X134732027Y-79043874D01*
X134837031Y-79006453D01*
X134945805Y-78968811D01*
X135059943Y-78930313D01*
X135086663Y-78921423D01*
X135201479Y-78883905D01*
X135308121Y-78850417D01*
X135409324Y-78820245D01*
X135507824Y-78792674D01*
X135606358Y-78766987D01*
X135707660Y-78742471D01*
X135814466Y-78718408D01*
X135929512Y-78694086D01*
X136045282Y-78670805D01*
X136162087Y-78648151D01*
X136266929Y-78628664D01*
X136361034Y-78612206D01*
X136445628Y-78598634D01*
X136521936Y-78587810D01*
X136591186Y-78579593D01*
X136654603Y-78573842D01*
X136713412Y-78570418D01*
X136768840Y-78569180D01*
X136822113Y-78569989D01*
X136874457Y-78572703D01*
X136891722Y-78573992D01*
X136960486Y-78580120D01*
X137039964Y-78588274D01*
X137127479Y-78598114D01*
X137220358Y-78609299D01*
X137315923Y-78621486D01*
X137411498Y-78634334D01*
X137504410Y-78647503D01*
X137591981Y-78660649D01*
X137671535Y-78673433D01*
X137673574Y-78673774D01*
X137887050Y-78713495D01*
X138089061Y-78759258D01*
X138280472Y-78811377D01*
X138462151Y-78870164D01*
X138634964Y-78935934D01*
X138799777Y-79008999D01*
X138957457Y-79089672D01*
X139108869Y-79178266D01*
X139161158Y-79211604D01*
X139310639Y-79315178D01*
X139460329Y-79430863D01*
X139608919Y-79557261D01*
X139755099Y-79692970D01*
X139897560Y-79836592D01*
X140034993Y-79986724D01*
X140166089Y-80141968D01*
X140289537Y-80300922D01*
X140404030Y-80462188D01*
X140508257Y-80624364D01*
X140553235Y-80700347D01*
X140628073Y-80836919D01*
X140696784Y-80976177D01*
X140759568Y-81118956D01*
X140816623Y-81266091D01*
X140868151Y-81418417D01*
X140914349Y-81576769D01*
X140955418Y-81741983D01*
X140991557Y-81914893D01*
X141022966Y-82096336D01*
X141049845Y-82287144D01*
X141072392Y-82488155D01*
X141090807Y-82700204D01*
X141105290Y-82924124D01*
X141110817Y-83034161D01*
X141112705Y-83085751D01*
X141114115Y-83146265D01*
X141115063Y-83213766D01*
X141115566Y-83286316D01*
X141115640Y-83361980D01*
X141115302Y-83438820D01*
X141114568Y-83514901D01*
X141113457Y-83588284D01*
X141111984Y-83657035D01*
X141110166Y-83719216D01*
X141108020Y-83772890D01*
X141105563Y-83816122D01*
X141103870Y-83837043D01*
X141091299Y-83954439D01*
X141075816Y-84072673D01*
X141057133Y-84193144D01*
X141034967Y-84317251D01*
X141009029Y-84446392D01*
X140979034Y-84581966D01*
X140944695Y-84725373D01*
X140905727Y-84878009D01*
X140861844Y-85041276D01*
X140845155Y-85101604D01*
X140824052Y-85177994D01*
X140806668Y-85243411D01*
X140792903Y-85299934D01*
X140782654Y-85349639D01*
X140775822Y-85394604D01*
X140772303Y-85436907D01*
X140771996Y-85478624D01*
X140774802Y-85521834D01*
X140780617Y-85568613D01*
X140789340Y-85621039D01*
X140800871Y-85681189D01*
X140813770Y-85744642D01*
X140843843Y-85900222D01*
X140869792Y-86054014D01*
X140891527Y-86204828D01*
X140908956Y-86351469D01*
X140921988Y-86492747D01*
X140930532Y-86627467D01*
X140934496Y-86754437D01*
X140933790Y-86872465D01*
X140928322Y-86980358D01*
X140918001Y-87076923D01*
X140916442Y-87087625D01*
X140896254Y-87199774D01*
X140868110Y-87321368D01*
X140832427Y-87451140D01*
X140789621Y-87587822D01*
X140740107Y-87730144D01*
X140684303Y-87876838D01*
X140622625Y-88026636D01*
X140566448Y-88154227D01*
X140534955Y-88222282D01*
X140502660Y-88289063D01*
X140468881Y-88355750D01*
X140432930Y-88423524D01*
X140394122Y-88493565D01*
X140351773Y-88567054D01*
X140305196Y-88645169D01*
X140253706Y-88729093D01*
X140196618Y-88820004D01*
X140133246Y-88919083D01*
X140062905Y-89027510D01*
X140030540Y-89077005D01*
X139971749Y-89167262D01*
X139920228Y-89247642D01*
X139875349Y-89319332D01*
X139836479Y-89383523D01*
X139802989Y-89441400D01*
X139774247Y-89494153D01*
X139749623Y-89542970D01*
X139728487Y-89589040D01*
X139710206Y-89633549D01*
X139694151Y-89677687D01*
X139679691Y-89722642D01*
X139669792Y-89756614D01*
X139647790Y-89844100D01*
X139627168Y-89944502D01*
X139607977Y-90057203D01*
X139590264Y-90181587D01*
X139574078Y-90317038D01*
X139559469Y-90462940D01*
X139546485Y-90618675D01*
X139535176Y-90783628D01*
X139525589Y-90957182D01*
X139517774Y-91138721D01*
X139511780Y-91327629D01*
X139507656Y-91523289D01*
X139505450Y-91725085D01*
X139505076Y-91834212D01*
X139505220Y-91949686D01*
X139505935Y-92053776D01*
X139507326Y-92148690D01*
X139509497Y-92236633D01*
X139512551Y-92319811D01*
X139516593Y-92400431D01*
X139521727Y-92480698D01*
X139528056Y-92562820D01*
X139535686Y-92649002D01*
X139544719Y-92741450D01*
X139550532Y-92797750D01*
X139577095Y-93025068D01*
X139608553Y-93245486D01*
X139645366Y-93460811D01*
X139687993Y-93672853D01*
X139736892Y-93883421D01*
X139792522Y-94094323D01*
X139855341Y-94307369D01*
X139925810Y-94524366D01*
X140004385Y-94747125D01*
X140091526Y-94977453D01*
X140124744Y-95061722D01*
X140191912Y-95227542D01*
X140259276Y-95387810D01*
X140327673Y-95544238D01*
X140397940Y-95698539D01*
X140470914Y-95852422D01*
X140547433Y-96007602D01*
X140628334Y-96165788D01*
X140714454Y-96328694D01*
X140806630Y-96498031D01*
X140905700Y-96675510D01*
X140966046Y-96781797D01*
X141009379Y-96857534D01*
X141049520Y-96927301D01*
X141087366Y-96992585D01*
X141123816Y-97054871D01*
X141159766Y-97115644D01*
X141196114Y-97176389D01*
X141233757Y-97238591D01*
X141273593Y-97303735D01*
X141316520Y-97373307D01*
X141363434Y-97448793D01*
X141415234Y-97531676D01*
X141472816Y-97623443D01*
X141518900Y-97696707D01*
X141620411Y-97858213D01*
X141714726Y-98008861D01*
X141802098Y-98149167D01*
X141882780Y-98279648D01*
X141957028Y-98400821D01*
X142025094Y-98513201D01*
X142087232Y-98617307D01*
X142143697Y-98713653D01*
X142194741Y-98802757D01*
X142240618Y-98885135D01*
X142281583Y-98961304D01*
X142317888Y-99031780D01*
X142349789Y-99097080D01*
X142377537Y-99157720D01*
X142401388Y-99214218D01*
X142421595Y-99267088D01*
X142438411Y-99316849D01*
X142452091Y-99364016D01*
X142462888Y-99409107D01*
X142471056Y-99452637D01*
X142476849Y-99495123D01*
X142480519Y-99537083D01*
X142482322Y-99579031D01*
X142482511Y-99621485D01*
X142481655Y-99656607D01*
X142476319Y-99740100D01*
X142465921Y-99815042D01*
X142449402Y-99885740D01*
X142425705Y-99956498D01*
X142393773Y-100031623D01*
X142384932Y-100050434D01*
X142343535Y-100130256D01*
X142298975Y-100201810D01*
X142249820Y-100266450D01*
X142194640Y-100325527D01*
X142132004Y-100380395D01*
X142060479Y-100432407D01*
X141978635Y-100482914D01*
X141885039Y-100533270D01*
X141861583Y-100545030D01*
X141819947Y-100565077D01*
X141777357Y-100584571D01*
X141737270Y-100601998D01*
X141703145Y-100615845D01*
X141683175Y-100623093D01*
X141573232Y-100653005D01*
X141456378Y-100672710D01*
X141334615Y-100682270D01*
X141209944Y-100681747D01*
X141084367Y-100671202D01*
X140959885Y-100650699D01*
X140838500Y-100620298D01*
X140760191Y-100594528D01*
X140628326Y-100540575D01*
X140494836Y-100474157D01*
X140360957Y-100396099D01*
X140227925Y-100307231D01*
X140096976Y-100208378D01*
X139969345Y-100100369D01*
X139846267Y-99984030D01*
X139842199Y-99979959D01*
X139806923Y-99944211D01*
X139773770Y-99909684D01*
X139741428Y-99874870D01*
X139708585Y-99838258D01*
X139673930Y-99798339D01*
X139636150Y-99753603D01*
X139593934Y-99702540D01*
X139545971Y-99643641D01*
X139494220Y-99579468D01*
X139434875Y-99506082D01*
X139382713Y-99442675D01*
X139336819Y-99388305D01*
X139296275Y-99342032D01*
X139260163Y-99302915D01*
X139227566Y-99270011D01*
X139197566Y-99242381D01*
X139169246Y-99219082D01*
X139141688Y-99199174D01*
X139113976Y-99181715D01*
X139097250Y-99172220D01*
X139052926Y-99150576D01*
X139002861Y-99131295D01*
X138946172Y-99114235D01*
X138881979Y-99099253D01*
X138809398Y-99086210D01*
X138727547Y-99074962D01*
X138635544Y-99065369D01*
X138532507Y-99057290D01*
X138417554Y-99050582D01*
X138309254Y-99045831D01*
X138242532Y-99042811D01*
X138186519Y-99039293D01*
X138142041Y-99035344D01*
X138109921Y-99031030D01*
X138098723Y-99028751D01*
X138056784Y-99015573D01*
X138008506Y-98995571D01*
X137957930Y-98970698D01*
X137909098Y-98942912D01*
X137874399Y-98920178D01*
X137836259Y-98894549D01*
X137805684Y-98877124D01*
X137780322Y-98866805D01*
X137757819Y-98862496D01*
X137750091Y-98862204D01*
X137729112Y-98864735D01*
X137712852Y-98873663D01*
X137699487Y-98890990D01*
X137687192Y-98918719D01*
X137680354Y-98938726D01*
X137667615Y-98973215D01*
X137648693Y-99017412D01*
X137624563Y-99069459D01*
X137596196Y-99127501D01*
X137564567Y-99189682D01*
X137530646Y-99254147D01*
X137495408Y-99319039D01*
X137459826Y-99382503D01*
X137424871Y-99442682D01*
X137391518Y-99497721D01*
X137367639Y-99535277D01*
X137275120Y-99666803D01*
X137176508Y-99786732D01*
X137070820Y-99896067D01*
X136957070Y-99995814D01*
X136834273Y-100086977D01*
X136811516Y-100102297D01*
X136711366Y-100163741D01*
X136614510Y-100212616D01*
X136519717Y-100249176D01*
X136425751Y-100273673D01*
X136331379Y-100286361D01*
X136235368Y-100287492D01*
X136136484Y-100277318D01*
X136045968Y-100259181D01*
X135980441Y-100242012D01*
X135920993Y-100223315D01*
X135864991Y-100201862D01*
X135809802Y-100176422D01*
X135752792Y-100145767D01*
X135691329Y-100108666D01*
X135622781Y-100063892D01*
X135611710Y-100056428D01*
X135563994Y-100024478D01*
X135525773Y-99999704D01*
X135495575Y-99981245D01*
X135471926Y-99968240D01*
X135453352Y-99959828D01*
X135438382Y-99955150D01*
X135438343Y-99955141D01*
X135426265Y-99953462D01*
X135405422Y-99951986D01*
X135375260Y-99950705D01*
X135335225Y-99949610D01*
X135284761Y-99948691D01*
X135223315Y-99947942D01*
X135150333Y-99947352D01*
X135065259Y-99946912D01*
X134967540Y-99946615D01*
X134889501Y-99946485D01*
X134787201Y-99946321D01*
X134697405Y-99946064D01*
X134619020Y-99945675D01*
X134550953Y-99945116D01*
X134492109Y-99944348D01*
X134441397Y-99943333D01*
X134397723Y-99942034D01*
X134359993Y-99940410D01*
X134327115Y-99938425D01*
X134297995Y-99936040D01*
X134271539Y-99933217D01*
X134246655Y-99929916D01*
X134222249Y-99926100D01*
X134200519Y-99922325D01*
X134128265Y-99905296D01*
X134060741Y-99880538D01*
X133995985Y-99846936D01*
X133932034Y-99803373D01*
X133866925Y-99748733D01*
X133825083Y-99708771D01*
X133791888Y-99674145D01*
X133766981Y-99644078D01*
X133747667Y-99615114D01*
X133737457Y-99596465D01*
X133724121Y-99571295D01*
X133711823Y-99549758D01*
X133702745Y-99535632D01*
X133701129Y-99533577D01*
X133684339Y-99523020D01*
X133664422Y-99524832D01*
X133643319Y-99538764D01*
X133640760Y-99541279D01*
X133632798Y-99551843D01*
X133619145Y-99572700D01*
X133600754Y-99602279D01*
X133578578Y-99639011D01*
X133553570Y-99681324D01*
X133526681Y-99727649D01*
X133509802Y-99757138D01*
X133465317Y-99835106D01*
X133426580Y-99902501D01*
X133392725Y-99960633D01*
X133362884Y-100010808D01*
X133336191Y-100054335D01*
X133311778Y-100092521D01*
X133288780Y-100126675D01*
X133266328Y-100158104D01*
X133243557Y-100188117D01*
X133219599Y-100218021D01*
X133193587Y-100249124D01*
X133164655Y-100282734D01*
X133151266Y-100298093D01*
X133070888Y-100386729D01*
X132989364Y-100470237D01*
X132908245Y-100547195D01*
X132829081Y-100616182D01*
X132753425Y-100675775D01*
X132693516Y-100717667D01*
X132621340Y-100761241D01*
X132540937Y-100803524D01*
X132455358Y-100843272D01*
X132367651Y-100879240D01*
X132280866Y-100910186D01*
X132198053Y-100934864D01*
X132122262Y-100952031D01*
X132116525Y-100953054D01*
X132070734Y-100958661D01*
X132016728Y-100961539D01*
X131959614Y-100961692D01*
X131904498Y-100959124D01*
X131856487Y-100953838D01*
X131850475Y-100952856D01*
X131732988Y-100926943D01*
X131623619Y-100890753D01*
X131521764Y-100843882D01*
X131426820Y-100785928D01*
X131338186Y-100716490D01*
X131255258Y-100635165D01*
X131177434Y-100541551D01*
X131126351Y-100469515D01*
X131094590Y-100418167D01*
X131060095Y-100355638D01*
X131023802Y-100283838D01*
X130986645Y-100204679D01*
X130949560Y-100120073D01*
X130918744Y-100045180D01*
X130891289Y-99977408D01*
X130867364Y-99920815D01*
X130846077Y-99873721D01*
X130826539Y-99834446D01*
X130807857Y-99801312D01*
X130789141Y-99772638D01*
X130769499Y-99746744D01*
X130748042Y-99721951D01*
X130746271Y-99720020D01*
X130720431Y-99694653D01*
X130699258Y-99680437D01*
X130681035Y-99676514D01*
X130667040Y-99680404D01*
X130658309Y-99687618D01*
X130642123Y-99703753D01*
X130619824Y-99727361D01*
X130592754Y-99756996D01*
X130562255Y-99791211D01*
X130530311Y-99827816D01*
X130464530Y-99902429D01*
X130400322Y-99971861D01*
X130335132Y-100038653D01*
X130266408Y-100105351D01*
X130191594Y-100174497D01*
X130108137Y-100248637D01*
X130105629Y-100250829D01*
X130017083Y-100327506D01*
X129937037Y-100395302D01*
X129864414Y-100454986D01*
X129798136Y-100507331D01*
X129737125Y-100553105D01*
X129680304Y-100593080D01*
X129626595Y-100628026D01*
X129574921Y-100658714D01*
X129524204Y-100685913D01*
X129473366Y-100710395D01*
X129445735Y-100722648D01*
X129315666Y-100774364D01*
X129191891Y-100814466D01*
X129073746Y-100843023D01*
X128960570Y-100860103D01*
X128851697Y-100865775D01*
X128746465Y-100860107D01*
X128644212Y-100843169D01*
X128546299Y-100815716D01*
X128490389Y-100793700D01*
X128427473Y-100763491D01*
X128360121Y-100726547D01*
X128290905Y-100684327D01*
X128222396Y-100638289D01*
X128182568Y-100609342D01*
X128114816Y-100552754D01*
X128049032Y-100485838D01*
X127984663Y-100407890D01*
X127921153Y-100318204D01*
X127857950Y-100216075D01*
X127818744Y-100146324D01*
X127766392Y-100036951D01*
X127722683Y-99917829D01*
X127687778Y-99789836D01*
X127661837Y-99653848D01*
X127645018Y-99510745D01*
X127637483Y-99361402D01*
X127639391Y-99206698D01*
X127641121Y-99171545D01*
X127646339Y-99095224D01*
X127653473Y-99022441D01*
X127662936Y-98951293D01*
X127675138Y-98879875D01*
X127690492Y-98806282D01*
X127709410Y-98728611D01*
X127732303Y-98644956D01*
X127759583Y-98553413D01*
X127791661Y-98452078D01*
X127806483Y-98406690D01*
X127851827Y-98272039D01*
X127897275Y-98143803D01*
X127943806Y-98019615D01*
X127992398Y-97897112D01*
X128044030Y-97773927D01*
X128099681Y-97647695D01*
X128160329Y-97516051D01*
X128226952Y-97376629D01*
X128264104Y-97300634D01*
X128298326Y-97231316D01*
X128331891Y-97163791D01*
X128365217Y-97097267D01*
X128398724Y-97030953D01*
X128432832Y-96964058D01*
X128467961Y-96895792D01*
X128504529Y-96825362D01*
X128542956Y-96751979D01*
X128583662Y-96674850D01*
X128627065Y-96593185D01*
X128673587Y-96506192D01*
X128723645Y-96413081D01*
X128777660Y-96313059D01*
X128836051Y-96205338D01*
X128899237Y-96089124D01*
X128967638Y-95963627D01*
X129041673Y-95828056D01*
X129121762Y-95681619D01*
X129146615Y-95636213D01*
X129212299Y-95516198D01*
X129271927Y-95407167D01*
X129325995Y-95308189D01*
X129374996Y-95218332D01*
X129419425Y-95136664D01*
X129459778Y-95062255D01*
X129496548Y-94994172D01*
X129530230Y-94931484D01*
X129561319Y-94873260D01*
X129590309Y-94818568D01*
X129617695Y-94766476D01*
X129643972Y-94716053D01*
X129669634Y-94666368D01*
X129695176Y-94616488D01*
X129721093Y-94565483D01*
X129747879Y-94512421D01*
X129776028Y-94456370D01*
X129806036Y-94396399D01*
X129823488Y-94361454D01*
X129885826Y-94236273D01*
X129942413Y-94121901D01*
X129993782Y-94017087D01*
X130040465Y-93920582D01*
X130082994Y-93831136D01*
X130121902Y-93747500D01*
X130157722Y-93668422D01*
X130190986Y-93592653D01*
X130222226Y-93518944D01*
X130251976Y-93446044D01*
X130280767Y-93372704D01*
X130309132Y-93297674D01*
X130337604Y-93219703D01*
X130366715Y-93137542D01*
X130396997Y-93049941D01*
X130428984Y-92955650D01*
X130453241Y-92883296D01*
X130498114Y-92746963D01*
X130538075Y-92621167D01*
X130573658Y-92503988D01*
X130605397Y-92393505D01*
X130633827Y-92287797D01*
X130659482Y-92184941D01*
X130682897Y-92083019D01*
X130704607Y-91980107D01*
X130704930Y-91978505D01*
X130743670Y-91777250D01*
X130776784Y-91585212D01*
X130804163Y-91403123D01*
X130825698Y-91231717D01*
X130841278Y-91071726D01*
X130841622Y-91067477D01*
X130842733Y-91046988D01*
X130843784Y-91014789D01*
X130844746Y-90972764D01*
X130845587Y-90922799D01*
X130846276Y-90866782D01*
X130846784Y-90806598D01*
X130847079Y-90744132D01*
X130847111Y-90730940D01*
X130847271Y-90662400D01*
X130847495Y-90606075D01*
X130847851Y-90560584D01*
X130848408Y-90524546D01*
X130849235Y-90496580D01*
X130850401Y-90475302D01*
X130851973Y-90459333D01*
X130854020Y-90447290D01*
X130856612Y-90437792D01*
X130859817Y-90429457D01*
X130862366Y-90423781D01*
X130881473Y-90394733D01*
X130906091Y-90377959D01*
X130935968Y-90373416D01*
X130970850Y-90381064D01*
X131010483Y-90400861D01*
X131054613Y-90432765D01*
X131085935Y-90460299D01*
X131117144Y-90491284D01*
X131149436Y-90527023D01*
X131183153Y-90568076D01*
X131218636Y-90615002D01*
X131256225Y-90668361D01*
X131296263Y-90728713D01*
X131339091Y-90796616D01*
X131385048Y-90872630D01*
X131434478Y-90957315D01*
X131487720Y-91051229D01*
X131545117Y-91154934D01*
X131607008Y-91268987D01*
X131673737Y-91393948D01*
X131745642Y-91530378D01*
X131788282Y-91611965D01*
X131828051Y-91688892D01*
X131861640Y-91755344D01*
X131889642Y-91812635D01*
X131912646Y-91862083D01*
X131931245Y-91905003D01*
X131946030Y-91942712D01*
X131957591Y-91976525D01*
X131966521Y-92007758D01*
X131967097Y-92010017D01*
X131976205Y-92059045D01*
X131978261Y-92103926D01*
X131973764Y-92143221D01*
X131963214Y-92175489D01*
X131947109Y-92199292D01*
X131925950Y-92213191D01*
X131900235Y-92215746D01*
X131895962Y-92215052D01*
X131877624Y-92206783D01*
X131853467Y-92188869D01*
X131825256Y-92162951D01*
X131794755Y-92130670D01*
X131763730Y-92093667D01*
X131759116Y-92087779D01*
X131740997Y-92063600D01*
X131716509Y-92029653D01*
X131686745Y-91987540D01*
X131652797Y-91938861D01*
X131615760Y-91885217D01*
X131576724Y-91828208D01*
X131536783Y-91769435D01*
X131497029Y-91710498D01*
X131458555Y-91652998D01*
X131422453Y-91598535D01*
X131389817Y-91548711D01*
X131367145Y-91513591D01*
X131328203Y-91453991D01*
X131294848Y-91405743D01*
X131266447Y-91368107D01*
X131242368Y-91340344D01*
X131221976Y-91321716D01*
X131204639Y-91311482D01*
X131191745Y-91308831D01*
X131178552Y-91310464D01*
X131167646Y-91316247D01*
X131158616Y-91327507D01*
X131151052Y-91345571D01*
X131144546Y-91371765D01*
X131138685Y-91407417D01*
X131133060Y-91453854D01*
X131127262Y-91512401D01*
X131126600Y-91519591D01*
X131116441Y-91624958D01*
X131106143Y-91719484D01*
X131095296Y-91805922D01*
X131083494Y-91887025D01*
X131070330Y-91965547D01*
X131055396Y-92044241D01*
X131038284Y-92125861D01*
X131034056Y-92145073D01*
X131011510Y-92241650D01*
X130984842Y-92347228D01*
X130954764Y-92459452D01*
X130921989Y-92575965D01*
X130887230Y-92694411D01*
X130851197Y-92812434D01*
X130814603Y-92927677D01*
X130778161Y-93037785D01*
X130742582Y-93140399D01*
X130708579Y-93233166D01*
X130692965Y-93273660D01*
X130678416Y-93309791D01*
X130659031Y-93356569D01*
X130635568Y-93412246D01*
X130608785Y-93475076D01*
X130579441Y-93543311D01*
X130548295Y-93615205D01*
X130516103Y-93689010D01*
X130483625Y-93762981D01*
X130451619Y-93835369D01*
X130420843Y-93904428D01*
X130392056Y-93968411D01*
X130377200Y-94001122D01*
X130350150Y-94059119D01*
X130317473Y-94126947D01*
X130280198Y-94202579D01*
X130239353Y-94283990D01*
X130195967Y-94369152D01*
X130151069Y-94456040D01*
X130105688Y-94542628D01*
X130060853Y-94626889D01*
X130037183Y-94670796D01*
X130012928Y-94715641D01*
X129983695Y-94769813D01*
X129950915Y-94830650D01*
X129916024Y-94895488D01*
X129880453Y-94961665D01*
X129845637Y-95026518D01*
X129817649Y-95078719D01*
X129786332Y-95137013D01*
X129749875Y-95204606D01*
X129709695Y-95278886D01*
X129667212Y-95357240D01*
X129623841Y-95437056D01*
X129581000Y-95515720D01*
X129540108Y-95590621D01*
X129515155Y-95636213D01*
X129446324Y-95761996D01*
X129372327Y-95897520D01*
X129294393Y-96040525D01*
X129213751Y-96188754D01*
X129131629Y-96339947D01*
X129049255Y-96491845D01*
X128967859Y-96642188D01*
X128941997Y-96690014D01*
X128821826Y-96919326D01*
X128703792Y-97158362D01*
X128589087Y-97404354D01*
X128478903Y-97654533D01*
X128374435Y-97906128D01*
X128276876Y-98156370D01*
X128187418Y-98402490D01*
X128125706Y-98584704D01*
X128105182Y-98648849D01*
X128087648Y-98707469D01*
X128072875Y-98762340D01*
X128060634Y-98815238D01*
X128050697Y-98867939D01*
X128042834Y-98922219D01*
X128036816Y-98979855D01*
X128032414Y-99042623D01*
X128029400Y-99112299D01*
X128027544Y-99190659D01*
X128026617Y-99279480D01*
X128026394Y-99355111D01*
X128026384Y-99425926D01*
X128026504Y-99484752D01*
X128026821Y-99533197D01*
X128027399Y-99572869D01*
X128028305Y-99605376D01*
X128029604Y-99632328D01*
X128031361Y-99655331D01*
X128033643Y-99675993D01*
X128036515Y-99695924D01*
X128040043Y-99716731D01*
X128041490Y-99724766D01*
X128069203Y-99843552D01*
X128107606Y-99954199D01*
X128156570Y-100056517D01*
X128215967Y-100150318D01*
X128285669Y-100235413D01*
X128365547Y-100311615D01*
X128455474Y-100378735D01*
X128508331Y-100411230D01*
X128601886Y-100459112D01*
X128693214Y-100494320D01*
X128781935Y-100516760D01*
X128867671Y-100526342D01*
X128950042Y-100522972D01*
X128961282Y-100521462D01*
X129027146Y-100507897D01*
X129100744Y-100485728D01*
X129180074Y-100455843D01*
X129263132Y-100419130D01*
X129347916Y-100376475D01*
X129432423Y-100328766D01*
X129514651Y-100276890D01*
X129517369Y-100275073D01*
X129554564Y-100249357D01*
X129599755Y-100216832D01*
X129650475Y-100179372D01*
X129704256Y-100138850D01*
X129758629Y-100097140D01*
X129811127Y-100056115D01*
X129859281Y-100017650D01*
X129894362Y-99988861D01*
X130031689Y-99870342D01*
X130155858Y-99754827D01*
X130266951Y-99642222D01*
X130365050Y-99532434D01*
X130450235Y-99425370D01*
X130522591Y-99320937D01*
X130582197Y-99219040D01*
X130599482Y-99185143D01*
X130649459Y-99068861D01*
X130689173Y-98945671D01*
X130718079Y-98818172D01*
X130735635Y-98688962D01*
X130741296Y-98560642D01*
X130740192Y-98512070D01*
X130737602Y-98464678D01*
X130733719Y-98419147D01*
X130728188Y-98373774D01*
X130720655Y-98326853D01*
X130710766Y-98276680D01*
X130698166Y-98221550D01*
X130682500Y-98159760D01*
X130663414Y-98089604D01*
X130640553Y-98009377D01*
X130623547Y-97951176D01*
X130599628Y-97867899D01*
X130579878Y-97794343D01*
X130563600Y-97727535D01*
X130550100Y-97664497D01*
X130538679Y-97602256D01*
X130531795Y-97559193D01*
X130515901Y-97431816D01*
X130507202Y-97308376D01*
X130505601Y-97189987D01*
X130511000Y-97077765D01*
X130523300Y-96972825D01*
X130542404Y-96876284D01*
X130568214Y-96789257D01*
X130600631Y-96712859D01*
X130607220Y-96700212D01*
X130641876Y-96643109D01*
X130681000Y-96591395D01*
X130722689Y-96547126D01*
X130765043Y-96512355D01*
X130800073Y-96491837D01*
X130832295Y-96479562D01*
X130857538Y-96476742D01*
X130878430Y-96483208D01*
X130883583Y-96486466D01*
X130900341Y-96502573D01*
X130912354Y-96524763D01*
X130919654Y-96554057D01*
X130922272Y-96591475D01*
X130920240Y-96638039D01*
X130913589Y-96694770D01*
X130902350Y-96762688D01*
X130893465Y-96808992D01*
X130873408Y-96917240D01*
X130856793Y-97023218D01*
X130843799Y-97125117D01*
X130834604Y-97221131D01*
X130829386Y-97309453D01*
X130828321Y-97388273D01*
X130830797Y-97446211D01*
X130841808Y-97540070D01*
X130860128Y-97632990D01*
X130885036Y-97723157D01*
X130915809Y-97808759D01*
X130951726Y-97887985D01*
X130992063Y-97959023D01*
X131036098Y-98020060D01*
X131076976Y-98063729D01*
X131121293Y-98100710D01*
X131174437Y-98138446D01*
X131232132Y-98174063D01*
X131277945Y-98198728D01*
X131347087Y-98228614D01*
X131426200Y-98254671D01*
X131512056Y-98276328D01*
X131601423Y-98293010D01*
X131691073Y-98304147D01*
X131777775Y-98309166D01*
X131858299Y-98307495D01*
X131881017Y-98305578D01*
X131928383Y-98299722D01*
X131970204Y-98291811D01*
X132009979Y-98280731D01*
X132051210Y-98265365D01*
X132097395Y-98244600D01*
X132142284Y-98222319D01*
X132197775Y-98194976D01*
X132243420Y-98174929D01*
X132280660Y-98161886D01*
X132310933Y-98155554D01*
X132335679Y-98155641D01*
X132356335Y-98161856D01*
X132374342Y-98173906D01*
X132375568Y-98174985D01*
X132389173Y-98188884D01*
X132395612Y-98202445D01*
X132397320Y-98221731D01*
X132397282Y-98229058D01*
X132394626Y-98251727D01*
X132386636Y-98275537D01*
X132372299Y-98302167D01*
X132350606Y-98333293D01*
X132320545Y-98370593D01*
X132292573Y-98402871D01*
X132250821Y-98448093D01*
X132211037Y-98486381D01*
X132171255Y-98518770D01*
X132129508Y-98546297D01*
X132083827Y-98569996D01*
X132032245Y-98590902D01*
X131972795Y-98610052D01*
X131903510Y-98628481D01*
X131832517Y-98644995D01*
X131752537Y-98663675D01*
X131684100Y-98681887D01*
X131625209Y-98700413D01*
X131573869Y-98720035D01*
X131528082Y-98741536D01*
X131485852Y-98765698D01*
X131445183Y-98793304D01*
X131435266Y-98800654D01*
X131385462Y-98842684D01*
X131334023Y-98894248D01*
X131283764Y-98952030D01*
X131237498Y-99012716D01*
X131198041Y-99072990D01*
X131185552Y-99094850D01*
X131149701Y-99168872D01*
X131118517Y-99249985D01*
X131092498Y-99335643D01*
X131072144Y-99423300D01*
X131057954Y-99510407D01*
X131050427Y-99594418D01*
X131050063Y-99672785D01*
X131057361Y-99742962D01*
X131057904Y-99746037D01*
X131074241Y-99813105D01*
X131099160Y-99884810D01*
X131130843Y-99957029D01*
X131167470Y-100025640D01*
X131207223Y-100086523D01*
X131209582Y-100089724D01*
X131268741Y-100158673D01*
X131339421Y-100222263D01*
X131420352Y-100279754D01*
X131510268Y-100330405D01*
X131607899Y-100373477D01*
X131711977Y-100408228D01*
X131787529Y-100427107D01*
X131845811Y-100436363D01*
X131913093Y-100441407D01*
X131985445Y-100442237D01*
X132058941Y-100438856D01*
X132129652Y-100431265D01*
X132156421Y-100427024D01*
X132251523Y-100407856D01*
X132344081Y-100384377D01*
X132431223Y-100357462D01*
X132510079Y-100327983D01*
X132567739Y-100301916D01*
X132658362Y-100251600D01*
X132749936Y-100191100D01*
X132839328Y-100122906D01*
X132923408Y-100049511D01*
X132999043Y-99973408D01*
X133040590Y-99925629D01*
X133112054Y-99829112D01*
X133177985Y-99721019D01*
X133238005Y-99602356D01*
X133291734Y-99474129D01*
X133338793Y-99337345D01*
X133378804Y-99193010D01*
X133411389Y-99042131D01*
X133436167Y-98885714D01*
X133438302Y-98869003D01*
X133442208Y-98829310D01*
X133445604Y-98778168D01*
X133448457Y-98717717D01*
X133450734Y-98650098D01*
X133452402Y-98577451D01*
X133453430Y-98501915D01*
X133453784Y-98425631D01*
X133453431Y-98350739D01*
X133452340Y-98279379D01*
X133450478Y-98213692D01*
X133448862Y-98175534D01*
X133442434Y-98056959D01*
X133435428Y-97951417D01*
X133427855Y-97858988D01*
X133419724Y-97779756D01*
X133411043Y-97713803D01*
X133401822Y-97661212D01*
X133392071Y-97622064D01*
X133384475Y-97601706D01*
X133373410Y-97580207D01*
X133360705Y-97561006D01*
X133344909Y-97542989D01*
X133324570Y-97525044D01*
X133298237Y-97506056D01*
X133264456Y-97484914D01*
X133221778Y-97460504D01*
X133168749Y-97431714D01*
X133149097Y-97421257D01*
X133078610Y-97382773D01*
X133017443Y-97346762D01*
X132962152Y-97311004D01*
X132909296Y-97273281D01*
X132859420Y-97234582D01*
X132777586Y-97164332D01*
X132693665Y-97083657D01*
X132609876Y-96995030D01*
X132528437Y-96900922D01*
X132451569Y-96803807D01*
X132381490Y-96706156D01*
X132370577Y-96689928D01*
X132338609Y-96640596D01*
X132314798Y-96600699D01*
X132298635Y-96569196D01*
X132289610Y-96545046D01*
X132287212Y-96527207D01*
X132288045Y-96521400D01*
X132298576Y-96505564D01*
X132319432Y-96493620D01*
X132347786Y-96486002D01*
X132380813Y-96483149D01*
X132415687Y-96485496D01*
X132449580Y-96493479D01*
X132455396Y-96495563D01*
X132481566Y-96506766D01*
X132508361Y-96521039D01*
X132536882Y-96539275D01*
X132568229Y-96562364D01*
X132603503Y-96591197D01*
X132643804Y-96626667D01*
X132690234Y-96669663D01*
X132743892Y-96721079D01*
X132792097Y-96768215D01*
X132839383Y-96814711D01*
X132878467Y-96852908D01*
X132910821Y-96884061D01*
X132937917Y-96909425D01*
X132961226Y-96930256D01*
X132982220Y-96947811D01*
X133002371Y-96963346D01*
X133023149Y-96978115D01*
X133046028Y-96993376D01*
X133072477Y-97010384D01*
X133085731Y-97018812D01*
X133142811Y-97054387D01*
X133191362Y-97082560D01*
X133233843Y-97103937D01*
X133272714Y-97119127D01*
X133310432Y-97128737D01*
X133349458Y-97133374D01*
X133392251Y-97133645D01*
X133441268Y-97130159D01*
X133498970Y-97123523D01*
X133505962Y-97122625D01*
X133571360Y-97113408D01*
X133625991Y-97103810D01*
X133672679Y-97093099D01*
X133714251Y-97080542D01*
X133753530Y-97065409D01*
X133788109Y-97049543D01*
X133810416Y-97038350D01*
X133829238Y-97027819D01*
X133846625Y-97016298D01*
X133864622Y-97002139D01*
X133885278Y-96983691D01*
X133910642Y-96959303D01*
X133942759Y-96927326D01*
X133954818Y-96915201D01*
X134008694Y-96859685D01*
X134053739Y-96810107D01*
X134091809Y-96763999D01*
X134124759Y-96718892D01*
X134154447Y-96672318D01*
X134182727Y-96621810D01*
X134198550Y-96591067D01*
X134218395Y-96550502D01*
X134235221Y-96513174D01*
X134249261Y-96477537D01*
X134260742Y-96442046D01*
X134269897Y-96405155D01*
X134276955Y-96365318D01*
X134282146Y-96320989D01*
X134285701Y-96270623D01*
X134287850Y-96212675D01*
X134288823Y-96145598D01*
X134288851Y-96067847D01*
X134288272Y-95988883D01*
X134287678Y-95923409D01*
X134287084Y-95869246D01*
X134286204Y-95824113D01*
X134284750Y-95785727D01*
X134282435Y-95751804D01*
X134278974Y-95720062D01*
X134274080Y-95688220D01*
X134267466Y-95653993D01*
X134258845Y-95615100D01*
X134247931Y-95569257D01*
X134234437Y-95514183D01*
X134222647Y-95466246D01*
X134211348Y-95419297D01*
X134203451Y-95383569D01*
X134198797Y-95357161D01*
X134197225Y-95338171D01*
X134198576Y-95324698D01*
X134202691Y-95314841D01*
X134209250Y-95306855D01*
X134233289Y-95291571D01*
X134261871Y-95288040D01*
X134293704Y-95295734D01*
X134327495Y-95314125D01*
X134361953Y-95342684D01*
X134395786Y-95380882D01*
X134398308Y-95384181D01*
X134417549Y-95408660D01*
X134441701Y-95438043D01*
X134466510Y-95467188D01*
X134474616Y-95476444D01*
X134504165Y-95510364D01*
X134526391Y-95537542D01*
X134543332Y-95561100D01*
X134557028Y-95584155D01*
X134569517Y-95609829D01*
X134582837Y-95641242D01*
X134583728Y-95643429D01*
X134611001Y-95713050D01*
X134632081Y-95773787D01*
X134647462Y-95828593D01*
X134657643Y-95880422D01*
X134663119Y-95932226D01*
X134664388Y-95986958D01*
X134661945Y-96047573D01*
X134658762Y-96089666D01*
X134651357Y-96168288D01*
X134643159Y-96236129D01*
X134633392Y-96296004D01*
X134621281Y-96350729D01*
X134606051Y-96403119D01*
X134586926Y-96455992D01*
X134563131Y-96512161D01*
X134533892Y-96574444D01*
X134514425Y-96613892D01*
X134484352Y-96673366D01*
X134454879Y-96730062D01*
X134424983Y-96785776D01*
X134393639Y-96842300D01*
X134359822Y-96901431D01*
X134322509Y-96964961D01*
X134280675Y-97034685D01*
X134233295Y-97112396D01*
X134186199Y-97188819D01*
X134105384Y-97325448D01*
X134035379Y-97457052D01*
X133975360Y-97585649D01*
X133924506Y-97713256D01*
X133881994Y-97841892D01*
X133847001Y-97973573D01*
X133825583Y-98073553D01*
X133810175Y-98159337D01*
X133798747Y-98239085D01*
X133791441Y-98314673D01*
X133788398Y-98387974D01*
X133789763Y-98460866D01*
X133795676Y-98535221D01*
X133806280Y-98612915D01*
X133821717Y-98695824D01*
X133842131Y-98785821D01*
X133867662Y-98884783D01*
X133894419Y-98980574D01*
X133919003Y-99064767D01*
X133941348Y-99137367D01*
X133962308Y-99200026D01*
X133982738Y-99254391D01*
X134003492Y-99302112D01*
X134025424Y-99344839D01*
X134049390Y-99384219D01*
X134076243Y-99421904D01*
X134106838Y-99459541D01*
X134142029Y-99498780D01*
X134182670Y-99541270D01*
X134187426Y-99546127D01*
X134230519Y-99586423D01*
X134272004Y-99616589D01*
X134314652Y-99637638D01*
X134361237Y-99650579D01*
X134414531Y-99656424D01*
X134477306Y-99656184D01*
X134487872Y-99655677D01*
X134579613Y-99644731D01*
X134664624Y-99622189D01*
X134742532Y-99588470D01*
X134812966Y-99543998D01*
X134875553Y-99489194D01*
X134929921Y-99424480D01*
X134975698Y-99350278D01*
X135012513Y-99267009D01*
X135039992Y-99175097D01*
X135057764Y-99074961D01*
X135064111Y-99002430D01*
X135065323Y-98967384D01*
X135064669Y-98935078D01*
X135061692Y-98903323D01*
X135055934Y-98869930D01*
X135046936Y-98832710D01*
X135034239Y-98789476D01*
X135017385Y-98738037D01*
X134995915Y-98676206D01*
X134995573Y-98675239D01*
X134972644Y-98608762D01*
X134953245Y-98548513D01*
X134936618Y-98491444D01*
X134922008Y-98434507D01*
X134908658Y-98374654D01*
X134895812Y-98308835D01*
X134882711Y-98234003D01*
X134876098Y-98193904D01*
X134862204Y-98104815D01*
X134851556Y-98027244D01*
X134844203Y-97959495D01*
X134840194Y-97899870D01*
X134839581Y-97846671D01*
X134842412Y-97798201D01*
X134848737Y-97752761D01*
X134858607Y-97708656D01*
X134872071Y-97664185D01*
X134889179Y-97617654D01*
X134893328Y-97607241D01*
X134916945Y-97551638D01*
X134939317Y-97506137D01*
X134962332Y-97467609D01*
X134987879Y-97432923D01*
X135017846Y-97398950D01*
X135020977Y-97395661D01*
X135066959Y-97351437D01*
X135108583Y-97319309D01*
X135145640Y-97299386D01*
X135177916Y-97291780D01*
X135205202Y-97296598D01*
X135208636Y-97298283D01*
X135217979Y-97304328D01*
X135225449Y-97312366D01*
X135231253Y-97323866D01*
X135235595Y-97340297D01*
X135238680Y-97363127D01*
X135240716Y-97393826D01*
X135241906Y-97433863D01*
X135242457Y-97484706D01*
X135242577Y-97540810D01*
X135242846Y-97598096D01*
X135243615Y-97658030D01*
X135244803Y-97717157D01*
X135246332Y-97772022D01*
X135248125Y-97819171D01*
X135249499Y-97845796D01*
X135251712Y-97890282D01*
X135253654Y-97943802D01*
X135255201Y-98001792D01*
X135256232Y-98059689D01*
X135256620Y-98110946D01*
X135256990Y-98166712D01*
X135257930Y-98230170D01*
X135259376Y-98299561D01*
X135261261Y-98373129D01*
X135263519Y-98449114D01*
X135266086Y-98525760D01*
X135268895Y-98601309D01*
X135271881Y-98674003D01*
X135274977Y-98742084D01*
X135278118Y-98803795D01*
X135281239Y-98857378D01*
X135284274Y-98901075D01*
X135287156Y-98933129D01*
X135287463Y-98935886D01*
X135301277Y-99035927D01*
X135319053Y-99130461D01*
X135340323Y-99217639D01*
X135364617Y-99295610D01*
X135391469Y-99362525D01*
X135399906Y-99380072D01*
X135437058Y-99446328D01*
X135481317Y-99512679D01*
X135529780Y-99575220D01*
X135579545Y-99630043D01*
X135600543Y-99650199D01*
X135667620Y-99703646D01*
X135745134Y-99751656D01*
X135830620Y-99793086D01*
X135921614Y-99826793D01*
X136015650Y-99851633D01*
X136048590Y-99857981D01*
X136134316Y-99868936D01*
X136225470Y-99873468D01*
X136318680Y-99871782D01*
X136410575Y-99864086D01*
X136497784Y-99850585D01*
X136576936Y-99831485D01*
X136600094Y-99824198D01*
X136680540Y-99791813D01*
X136762829Y-99748771D01*
X136844139Y-99697105D01*
X136921650Y-99638842D01*
X136992540Y-99576016D01*
X137053989Y-99510655D01*
X137078837Y-99479597D01*
X137117442Y-99421476D01*
X137154988Y-99351468D01*
X137190738Y-99271279D01*
X137223953Y-99182617D01*
X137253896Y-99087188D01*
X137263450Y-99052568D01*
X137271002Y-99023101D01*
X137276608Y-98997511D01*
X137280640Y-98972624D01*
X137283467Y-98945266D01*
X137285461Y-98912265D01*
X137286993Y-98870448D01*
X137287710Y-98844897D01*
X137288472Y-98764781D01*
X137286685Y-98684694D01*
X137282536Y-98607770D01*
X137276208Y-98537140D01*
X137267885Y-98475937D01*
X137265080Y-98460163D01*
X137242050Y-98367728D01*
X137207376Y-98272427D01*
X137160851Y-98173866D01*
X137102267Y-98071654D01*
X137031416Y-97965395D01*
X136948092Y-97854697D01*
X136941007Y-97845796D01*
X136912116Y-97809991D01*
X136883637Y-97775527D01*
X136854722Y-97741511D01*
X136824518Y-97707049D01*
X136792177Y-97671247D01*
X136756846Y-97633213D01*
X136717675Y-97592053D01*
X136673814Y-97546874D01*
X136624413Y-97496781D01*
X136568620Y-97440881D01*
X136505586Y-97378282D01*
X136434459Y-97308089D01*
X136354389Y-97229409D01*
X136351889Y-97226956D01*
X136310644Y-97186007D01*
X136269454Y-97144221D01*
X136230203Y-97103576D01*
X136194774Y-97066046D01*
X136165052Y-97033609D01*
X136142920Y-97008240D01*
X136139839Y-97004517D01*
X136052360Y-96888539D01*
X135978379Y-96770946D01*
X135917895Y-96651744D01*
X135870912Y-96530934D01*
X135848335Y-96454348D01*
X135832972Y-96392474D01*
X135821565Y-96339410D01*
X135813579Y-96291128D01*
X135808481Y-96243602D01*
X135805738Y-96192806D01*
X135804817Y-96134713D01*
X135804803Y-96125721D01*
X135804968Y-96080066D01*
X135805676Y-96044949D01*
X135807214Y-96017312D01*
X135809868Y-95994099D01*
X135813924Y-95972251D01*
X135819670Y-95948713D01*
X135822338Y-95938756D01*
X135836252Y-95893373D01*
X135855198Y-95841455D01*
X135879615Y-95781977D01*
X135909940Y-95713914D01*
X135946613Y-95636241D01*
X135985030Y-95558028D01*
X136021195Y-95487086D01*
X136053917Y-95426592D01*
X136084577Y-95374282D01*
X136114554Y-95327890D01*
X136145228Y-95285152D01*
X136172095Y-95250968D01*
X136204368Y-95214208D01*
X136232587Y-95188551D01*
X136258380Y-95172746D01*
X136283199Y-95165565D01*
X136303169Y-95164938D01*
X136317732Y-95171365D01*
X136326912Y-95179565D01*
X136339348Y-95197903D01*
X136344821Y-95222060D01*
X136343247Y-95253417D01*
X136334545Y-95293354D01*
X136318632Y-95343253D01*
X136316799Y-95348403D01*
X136284236Y-95446773D01*
X136257434Y-95545022D01*
X136235998Y-95645507D01*
X136219536Y-95750588D01*
X136207651Y-95862622D01*
X136199951Y-95983970D01*
X136197115Y-96064532D01*
X136195847Y-96142413D01*
X136196537Y-96209979D01*
X136199402Y-96270400D01*
X136204661Y-96326848D01*
X136212532Y-96382492D01*
X136222820Y-96438462D01*
X136242473Y-96525969D01*
X136264373Y-96602142D01*
X136289613Y-96669192D01*
X136319285Y-96729332D01*
X136354481Y-96784776D01*
X136396293Y-96837737D01*
X136445814Y-96890427D01*
X136445965Y-96890576D01*
X136523247Y-96959809D01*
X136602669Y-97016564D01*
X136683731Y-97060586D01*
X136765934Y-97091621D01*
X136848779Y-97109414D01*
X136881579Y-97112738D01*
X136950428Y-97110758D01*
X137021081Y-97095611D01*
X137093050Y-97067531D01*
X137165844Y-97026755D01*
X137238976Y-96973517D01*
X137311954Y-96908052D01*
X137316133Y-96903923D01*
X137364875Y-96851952D01*
X137402017Y-96803378D01*
X137428338Y-96755973D01*
X137444615Y-96707506D01*
X137451627Y-96655746D01*
X137450151Y-96598462D01*
X137442455Y-96541744D01*
X137434140Y-96499308D01*
X137424368Y-96462081D01*
X137411968Y-96427924D01*
X137395764Y-96394697D01*
X137374585Y-96360262D01*
X137347257Y-96322478D01*
X137312605Y-96279209D01*
X137272391Y-96231717D01*
X137227715Y-96178686D01*
X137191941Y-96133206D01*
X137164150Y-96093420D01*
X137143424Y-96057475D01*
X137128845Y-96023513D01*
X137119495Y-95989681D01*
X137114456Y-95954121D01*
X137112810Y-95914979D01*
X137112798Y-95909146D01*
X137113823Y-95864018D01*
X137116521Y-95819204D01*
X137120576Y-95777485D01*
X137125675Y-95741641D01*
X137131502Y-95714452D01*
X137136332Y-95701080D01*
X137152746Y-95682351D01*
X137175538Y-95672205D01*
X137200480Y-95671159D01*
X137223344Y-95679731D01*
X137233844Y-95689141D01*
X137239495Y-95701042D01*
X137245503Y-95721476D01*
X137249543Y-95740583D01*
X137262900Y-95785606D01*
X137286736Y-95826084D01*
X137321839Y-95862863D01*
X137368997Y-95896792D01*
X137421263Y-95925044D01*
X137499144Y-95956810D01*
X137576777Y-95976471D01*
X137643627Y-95984278D01*
X137694015Y-95985291D01*
X137737128Y-95980876D01*
X137778455Y-95969948D01*
X137823484Y-95951420D01*
X137833344Y-95946741D01*
X137883407Y-95916420D01*
X137931268Y-95876024D01*
X137973455Y-95829018D01*
X138006497Y-95778865D01*
X138011689Y-95768788D01*
X138039726Y-95699654D01*
X138061591Y-95619911D01*
X138076977Y-95531217D01*
X138085576Y-95435234D01*
X138087389Y-95360865D01*
X138086564Y-95304349D01*
X138083825Y-95257862D01*
X138078396Y-95217884D01*
X138069506Y-95180894D01*
X138056379Y-95143372D01*
X138038243Y-95101798D01*
X138023886Y-95071920D01*
X138007614Y-95037285D01*
X137992719Y-95002809D01*
X137980821Y-94972420D01*
X137973540Y-94950045D01*
X137973411Y-94949543D01*
X137963071Y-94899297D01*
X137955703Y-94843485D01*
X137951369Y-94785197D01*
X137950130Y-94727523D01*
X137952047Y-94673555D01*
X137957180Y-94626381D01*
X137965590Y-94589094D01*
X137966262Y-94587057D01*
X137978375Y-94560083D01*
X137995005Y-94533330D01*
X138002961Y-94523318D01*
X138019713Y-94506372D01*
X138035104Y-94497392D01*
X138055447Y-94493118D01*
X138063021Y-94492308D01*
X138087016Y-94491333D01*
X138104789Y-94495123D01*
X138123336Y-94505271D01*
X138125083Y-94506419D01*
X138147457Y-94526290D01*
X138173081Y-94557992D01*
X138201213Y-94600358D01*
X138231109Y-94652221D01*
X138262028Y-94712415D01*
X138278823Y-94747834D01*
X138320091Y-94840219D01*
X138354017Y-94923176D01*
X138381025Y-94998445D01*
X138401536Y-95067761D01*
X138415972Y-95132862D01*
X138424755Y-95195485D01*
X138428308Y-95257367D01*
X138427052Y-95320245D01*
X138425016Y-95349505D01*
X138406950Y-95509815D01*
X138380310Y-95661875D01*
X138345266Y-95805019D01*
X138301988Y-95938582D01*
X138250645Y-96061896D01*
X138234355Y-96095478D01*
X138215709Y-96130817D01*
X138191035Y-96174864D01*
X138161888Y-96225040D01*
X138129826Y-96278769D01*
X138096403Y-96333471D01*
X138063177Y-96386569D01*
X138031703Y-96435484D01*
X138004759Y-96475855D01*
X137967787Y-96529200D01*
X137931415Y-96580032D01*
X137894285Y-96630074D01*
X137855043Y-96681048D01*
X137812332Y-96734677D01*
X137764798Y-96792684D01*
X137711084Y-96856792D01*
X137649836Y-96928725D01*
X137633012Y-96948337D01*
X137580993Y-97009292D01*
X137537181Y-97061591D01*
X137500567Y-97106580D01*
X137470143Y-97145602D01*
X137444902Y-97180001D01*
X137423835Y-97211121D01*
X137405935Y-97240307D01*
X137390194Y-97268904D01*
X137384897Y-97279243D01*
X137358981Y-97338111D01*
X137341596Y-97396166D01*
X137332515Y-97455919D01*
X137331507Y-97519881D01*
X137338346Y-97590561D01*
X137350370Y-97658831D01*
X137376274Y-97762807D01*
X137410260Y-97859307D01*
X137453360Y-97950190D01*
X137506601Y-98037314D01*
X137571015Y-98122538D01*
X137647631Y-98207721D01*
X137663375Y-98223775D01*
X137774905Y-98328711D01*
X137888344Y-98420551D01*
X138004529Y-98499757D01*
X138124293Y-98566787D01*
X138248472Y-98622101D01*
X138377901Y-98666159D01*
X138513416Y-98699420D01*
X138535129Y-98703659D01*
X138575018Y-98709279D01*
X138624386Y-98713265D01*
X138680180Y-98715641D01*
X138739347Y-98716426D01*
X138798836Y-98715644D01*
X138855592Y-98713314D01*
X138906564Y-98709458D01*
X138948699Y-98704099D01*
X138966501Y-98700633D01*
X139035021Y-98681433D01*
X139098767Y-98655851D01*
X139162325Y-98621869D01*
X139201348Y-98597224D01*
X139276841Y-98540629D01*
X139341894Y-98478182D01*
X139395929Y-98410765D01*
X139438366Y-98339260D01*
X139468627Y-98264551D01*
X139486133Y-98187520D01*
X139489303Y-98158048D01*
X139490662Y-98121719D01*
X139490361Y-98074156D01*
X139488563Y-98017603D01*
X139485428Y-97954300D01*
X139481119Y-97886489D01*
X139475796Y-97816412D01*
X139469622Y-97746312D01*
X139462759Y-97678429D01*
X139455366Y-97615005D01*
X139447608Y-97558283D01*
X139444743Y-97539854D01*
X139438107Y-97502948D01*
X139428973Y-97457882D01*
X139418402Y-97409620D01*
X139407455Y-97363124D01*
X139404061Y-97349490D01*
X139376635Y-97229572D01*
X139357603Y-97119579D01*
X139346915Y-97018780D01*
X139344520Y-96926443D01*
X139350366Y-96841836D01*
X139363720Y-96767066D01*
X139377474Y-96720900D01*
X139396812Y-96671884D01*
X139420256Y-96622656D01*
X139446328Y-96575852D01*
X139473550Y-96534112D01*
X139500446Y-96500073D01*
X139525537Y-96476372D01*
X139527254Y-96475122D01*
X139543493Y-96466377D01*
X139558027Y-96465390D01*
X139571494Y-96473065D01*
X139584534Y-96490307D01*
X139597785Y-96518022D01*
X139611886Y-96557114D01*
X139627477Y-96608488D01*
X139631524Y-96622791D01*
X139643801Y-96664268D01*
X139658232Y-96709356D01*
X139672868Y-96752134D01*
X139683836Y-96781797D01*
X139700121Y-96824801D01*
X139713272Y-96862829D01*
X139724159Y-96899219D01*
X139733652Y-96937310D01*
X139742621Y-96980440D01*
X139751935Y-97031947D01*
X139757335Y-97063944D01*
X139771445Y-97150423D01*
X139783115Y-97225839D01*
X139792564Y-97292466D01*
X139800011Y-97352574D01*
X139805675Y-97408436D01*
X139809775Y-97462324D01*
X139812528Y-97516512D01*
X139814156Y-97573270D01*
X139814875Y-97634872D01*
X139814958Y-97662231D01*
X139813903Y-97768631D01*
X139810199Y-97865552D01*
X139803399Y-97955899D01*
X139793055Y-98042578D01*
X139778719Y-98128495D01*
X139759944Y-98216556D01*
X139736282Y-98309665D01*
X139707286Y-98410730D01*
X139691913Y-98461080D01*
X139666969Y-98544347D01*
X139647092Y-98617646D01*
X139631834Y-98683440D01*
X139620742Y-98744187D01*
X139613369Y-98802349D01*
X139609262Y-98860385D01*
X139607974Y-98919993D01*
X139611321Y-99014593D01*
X139622166Y-99100365D01*
X139641427Y-99180381D01*
X139670022Y-99257714D01*
X139708870Y-99335436D01*
X139754402Y-99409845D01*
X139833033Y-99518914D01*
X139922742Y-99624944D01*
X140021968Y-99726757D01*
X140129145Y-99823174D01*
X140242712Y-99913019D01*
X140361105Y-99995113D01*
X140482761Y-100068278D01*
X140606115Y-100131336D01*
X140729606Y-100183108D01*
X140821380Y-100213826D01*
X140871408Y-100227987D01*
X140916405Y-100238944D01*
X140959373Y-100247064D01*
X141003314Y-100252717D01*
X141051229Y-100256272D01*
X141106119Y-100258096D01*
X141170986Y-100258561D01*
X141185111Y-100258524D01*
X141298018Y-100256099D01*
X141399079Y-100249456D01*
X141489505Y-100238177D01*
X141570505Y-100221846D01*
X141643289Y-100200044D01*
X141709067Y-100172354D01*
X141769049Y-100138359D01*
X141824444Y-100097639D01*
X141876464Y-100049779D01*
X141916428Y-100006107D01*
X141970085Y-99937900D01*
X142020242Y-99863656D01*
X142063572Y-99788488D01*
X142081564Y-99752312D01*
X142113160Y-99679573D01*
X142136338Y-99613105D01*
X142151971Y-99549248D01*
X142160932Y-99484346D01*
X142164095Y-99414739D01*
X142164126Y-99406375D01*
X142161561Y-99345502D01*
X142153435Y-99286880D01*
X142139105Y-99229120D01*
X142117926Y-99170834D01*
X142089253Y-99110633D01*
X142052441Y-99047128D01*
X142006848Y-98978929D01*
X141951826Y-98904649D01*
X141902122Y-98841808D01*
X141813012Y-98731190D01*
X141731560Y-98628964D01*
X141656429Y-98533326D01*
X141586283Y-98442469D01*
X141519784Y-98354590D01*
X141455597Y-98267883D01*
X141392385Y-98180543D01*
X141328811Y-98090764D01*
X141263538Y-97996742D01*
X141195230Y-97896672D01*
X141124331Y-97791406D01*
X141059344Y-97694037D01*
X141000126Y-97604431D01*
X140945822Y-97521111D01*
X140895579Y-97442601D01*
X140848544Y-97367427D01*
X140803864Y-97294111D01*
X140760686Y-97221179D01*
X140718157Y-97147155D01*
X140675423Y-97070562D01*
X140631632Y-96989925D01*
X140585930Y-96903769D01*
X140537464Y-96810617D01*
X140485380Y-96708994D01*
X140428827Y-96597424D01*
X140393275Y-96526845D01*
X140342624Y-96425826D01*
X140297508Y-96335086D01*
X140257155Y-96252860D01*
X140220795Y-96177380D01*
X140187659Y-96106877D01*
X140156976Y-96039586D01*
X140127977Y-95973737D01*
X140099890Y-95907565D01*
X140071947Y-95839300D01*
X140043377Y-95767177D01*
X140013410Y-95689427D01*
X139981275Y-95604284D01*
X139946203Y-95509978D01*
X139924004Y-95449822D01*
X139898188Y-95379850D01*
X139870287Y-95304459D01*
X139841421Y-95226662D01*
X139812709Y-95149467D01*
X139785272Y-95075886D01*
X139760229Y-95008930D01*
X139738701Y-94951609D01*
X139737923Y-94949543D01*
X139717028Y-94893352D01*
X139696559Y-94836945D01*
X139677331Y-94782670D01*
X139660159Y-94732876D01*
X139645861Y-94689911D01*
X139635252Y-94656125D01*
X139631639Y-94643601D01*
X139626342Y-94623008D01*
X139618417Y-94590336D01*
X139608134Y-94546789D01*
X139595760Y-94493573D01*
X139581566Y-94431894D01*
X139565821Y-94362958D01*
X139548794Y-94287969D01*
X139530754Y-94208133D01*
X139511971Y-94124656D01*
X139492713Y-94038743D01*
X139473250Y-93951599D01*
X139453852Y-93864431D01*
X139434786Y-93778443D01*
X139416323Y-93694841D01*
X139398732Y-93614831D01*
X139382282Y-93539617D01*
X139367243Y-93470406D01*
X139353882Y-93408403D01*
X139342471Y-93354813D01*
X139333277Y-93310842D01*
X139326570Y-93277696D01*
X139326445Y-93277059D01*
X139310731Y-93195057D01*
X139296273Y-93115250D01*
X139282938Y-93036432D01*
X139270593Y-92957397D01*
X139259103Y-92876938D01*
X139248335Y-92793848D01*
X139238157Y-92706923D01*
X139228433Y-92614956D01*
X139219030Y-92516740D01*
X139209815Y-92411070D01*
X139200654Y-92296739D01*
X139191414Y-92172541D01*
X139181960Y-92037269D01*
X139172160Y-91889718D01*
X139171304Y-91876524D01*
X139169308Y-91837176D01*
X139167575Y-91785829D01*
X139166103Y-91724075D01*
X139164892Y-91653511D01*
X139163944Y-91575731D01*
X139163256Y-91492330D01*
X139162830Y-91404902D01*
X139162666Y-91315042D01*
X139162762Y-91224345D01*
X139163120Y-91134405D01*
X139163739Y-91046817D01*
X139164618Y-90963177D01*
X139165759Y-90885078D01*
X139167160Y-90814115D01*
X139168822Y-90751883D01*
X139170744Y-90699977D01*
X139171367Y-90686749D01*
X139178921Y-90543330D01*
X139186711Y-90412259D01*
X139194938Y-90292285D01*
X139203805Y-90182161D01*
X139213514Y-90080635D01*
X139224266Y-89986458D01*
X139236264Y-89898381D01*
X139249711Y-89815153D01*
X139264807Y-89735526D01*
X139281756Y-89658249D01*
X139300759Y-89582073D01*
X139322018Y-89505749D01*
X139345736Y-89428026D01*
X139372114Y-89347654D01*
X139401355Y-89263386D01*
X139401698Y-89262418D01*
X139432647Y-89177124D01*
X139464091Y-89094510D01*
X139496851Y-89012707D01*
X139531744Y-88929847D01*
X139569591Y-88844061D01*
X139611211Y-88753483D01*
X139657423Y-88656242D01*
X139709046Y-88550472D01*
X139750535Y-88466968D01*
X139778329Y-88411093D01*
X139805867Y-88355212D01*
X139832138Y-88301415D01*
X139856131Y-88251791D01*
X139876834Y-88208430D01*
X139893235Y-88173421D01*
X139902682Y-88152601D01*
X139964732Y-87995519D01*
X140015050Y-87831589D01*
X140053638Y-87660802D01*
X140080498Y-87483150D01*
X140095631Y-87298625D01*
X140099296Y-87148018D01*
X140096528Y-87017804D01*
X140087812Y-86896892D01*
X140072553Y-86782084D01*
X140050153Y-86670181D01*
X140020019Y-86557984D01*
X139981552Y-86442296D01*
X139954381Y-86370273D01*
X139899501Y-86240439D01*
X139836748Y-86109792D01*
X139768410Y-85982764D01*
X139696774Y-85863788D01*
X139678646Y-85835865D01*
X139638832Y-85777271D01*
X139600489Y-85724968D01*
X139560970Y-85675748D01*
X139517628Y-85626403D01*
X139467815Y-85573724D01*
X139434495Y-85539958D01*
X139287927Y-85399735D01*
X139140644Y-85271989D01*
X138991297Y-85155612D01*
X138838541Y-85049498D01*
X138832755Y-85045722D01*
X138628416Y-84919031D01*
X138424885Y-84805646D01*
X138222261Y-84705613D01*
X138020642Y-84618976D01*
X137820126Y-84545781D01*
X137620813Y-84486074D01*
X137612386Y-84483840D01*
X137359396Y-84423466D01*
X137108356Y-84376368D01*
X136858547Y-84342487D01*
X136609249Y-84321765D01*
X136359744Y-84314145D01*
X136109312Y-84319568D01*
X135857234Y-84337978D01*
X135831123Y-84340612D01*
X135675496Y-84358207D01*
X135519682Y-84378709D01*
X135365827Y-84401749D01*
X135216073Y-84426957D01*
X135072566Y-84453964D01*
X134937447Y-84482399D01*
X134812863Y-84511894D01*
X134763724Y-84524634D01*
X134674194Y-84550030D01*
X134576574Y-84580399D01*
X134473998Y-84614607D01*
X134369598Y-84651521D01*
X134266507Y-84690008D01*
X134167857Y-84728935D01*
X134076783Y-84767168D01*
X134009067Y-84797619D01*
X133873930Y-84863825D01*
X133735165Y-84937683D01*
X133596165Y-85017185D01*
X133460322Y-85100321D01*
X133331030Y-85185083D01*
X133211681Y-85269463D01*
X133210218Y-85270543D01*
X133144688Y-85319986D01*
X133072113Y-85376604D01*
X132994758Y-85438508D01*
X132914891Y-85503806D01*
X132834779Y-85570610D01*
X132756688Y-85637030D01*
X132682886Y-85701174D01*
X132615639Y-85761154D01*
X132558009Y-85814330D01*
X132448685Y-85922371D01*
X132337898Y-86041316D01*
X132227515Y-86168884D01*
X132119405Y-86302796D01*
X132015437Y-86440772D01*
X131917479Y-86580533D01*
X131865988Y-86658660D01*
X131834676Y-86707144D01*
X131809622Y-86745395D01*
X131789836Y-86774689D01*
X131774331Y-86796299D01*
X131762116Y-86811499D01*
X131752203Y-86821562D01*
X131743603Y-86827764D01*
X131735327Y-86831376D01*
X131730905Y-86832634D01*
X131698428Y-86834952D01*
X131660703Y-86828448D01*
X131621517Y-86814462D01*
X131584656Y-86794334D01*
X131554813Y-86770317D01*
X131536614Y-86747457D01*
X131516573Y-86714394D01*
X131496216Y-86674102D01*
X131477069Y-86629554D01*
X131463509Y-86592437D01*
X131451190Y-86536334D01*
X131451742Y-86479357D01*
X131465271Y-86420827D01*
X131491886Y-86360066D01*
X131503821Y-86338970D01*
X131516303Y-86318691D01*
X131529474Y-86298900D01*
X131544493Y-86278173D01*
X131562518Y-86255083D01*
X131584707Y-86228206D01*
X131612218Y-86196116D01*
X131646210Y-86157387D01*
X131687841Y-86110595D01*
X131704871Y-86091558D01*
X131751765Y-86039011D01*
X131790607Y-85994944D01*
X131822554Y-85957831D01*
X131848763Y-85926146D01*
X131870391Y-85898365D01*
X131888596Y-85872962D01*
X131904533Y-85848412D01*
X131919360Y-85823189D01*
X131934235Y-85795769D01*
X131945051Y-85774925D01*
X131977390Y-85707163D01*
X132000679Y-85647144D01*
X132015501Y-85593013D01*
X132022437Y-85542917D01*
X132023103Y-85526524D01*
X132021607Y-85494095D01*
X132015390Y-85463425D01*
X132003437Y-85432591D01*
X131984737Y-85399673D01*
X131958275Y-85362748D01*
X131923040Y-85319895D01*
X131900753Y-85294451D01*
X131885534Y-85276451D01*
X131863187Y-85248761D01*
X131834670Y-85212622D01*
X131800939Y-85169277D01*
X131762953Y-85119966D01*
X131721670Y-85065931D01*
X131678048Y-85008413D01*
X131633044Y-84948655D01*
X131601869Y-84907009D01*
X131523521Y-84802234D01*
X131447455Y-84700843D01*
X131372496Y-84601291D01*
X131297468Y-84502031D01*
X131221193Y-84401515D01*
X131142497Y-84298197D01*
X131060201Y-84190530D01*
X130973132Y-84076967D01*
X130880111Y-83955961D01*
X130779963Y-83825965D01*
X130770156Y-83813248D01*
X130746558Y-83782671D01*
X131834190Y-83782671D01*
X131834401Y-83794890D01*
X131839809Y-83841295D01*
X131853757Y-83894670D01*
X131875382Y-83952163D01*
X131894036Y-83992161D01*
X131914377Y-84028323D01*
X131940109Y-84067655D01*
X131969413Y-84107949D01*
X132000474Y-84146992D01*
X132031472Y-84182576D01*
X132060593Y-84212489D01*
X132086018Y-84234522D01*
X132101473Y-84244497D01*
X132117612Y-84251172D01*
X132143286Y-84260228D01*
X132174887Y-84270548D01*
X132208811Y-84281013D01*
X132241453Y-84290506D01*
X132269206Y-84297908D01*
X132285593Y-84301597D01*
X132311689Y-84303060D01*
X132341777Y-84299861D01*
X132369228Y-84292987D01*
X132382186Y-84287213D01*
X132400303Y-84272104D01*
X132410215Y-84251657D01*
X132412571Y-84223544D01*
X132408957Y-84190914D01*
X132395789Y-84137064D01*
X132372976Y-84077407D01*
X132340207Y-84011300D01*
X132297170Y-83938100D01*
X132256524Y-83876037D01*
X132216934Y-83823429D01*
X132176965Y-83782251D01*
X132134391Y-83750461D01*
X132098628Y-83731185D01*
X132060619Y-83716157D01*
X132017199Y-83703130D01*
X131973449Y-83693348D01*
X131934451Y-83688057D01*
X131920164Y-83687471D01*
X131903636Y-83689098D01*
X131889357Y-83695568D01*
X131872978Y-83709269D01*
X131863788Y-83718404D01*
X131847676Y-83735418D01*
X131838686Y-83748381D01*
X131834847Y-83762423D01*
X131834190Y-83782671D01*
X130746558Y-83782671D01*
X130699801Y-83722086D01*
X130637155Y-83641100D01*
G37*
%TO.C,R2*%
X149956000Y-102220000D02*
X149956000Y-106060000D01*
X151796000Y-102220000D02*
X151796000Y-106060000D01*
%TO.C,D1*%
X121432000Y-80545000D02*
X121432000Y-77455000D01*
X115882000Y-78999538D02*
G75*
G03*
X121432000Y-80544830I2990000J-462D01*
G01*
X121432000Y-77455170D02*
G75*
G03*
X115882000Y-79000462I-2560000J-1544830D01*
G01*
X121372000Y-79000000D02*
G75*
G03*
X121372000Y-79000000I-2500000J0D01*
G01*
%TD*%
M02*
